<?xml version="1.0" encoding="iso-8859-1"?>
<!-- Generator: Adobe Illustrator 22.1.0, SVG Export Plug-In . SVG Version: 6.00 Build 0)  -->
<svg xmlns="http://www.w3.org/2000/svg" xmlns:xlink="http://www.w3.org/1999/xlink" version="1.1" id="Layer_32" x="0px" y="0px" viewBox="0 0 64 64" style="enable-background:new 0 0 64 64;" xml:space="preserve" width="512" height="512">
<g>
	<path d="M58,51h-1v-9c0-1.654-1.346-3-3-3h-1.219l-0.5-2H55c0.552,0,1-0.448,1-1v-4c0-0.552-0.448-1-1-1h-4.219l-1.432-5.728   C49.015,23.935,47.818,23,46.438,23H40v-3c0-0.552-0.448-1-1-1H25c-0.552,0-1,0.448-1,1v3h-6.438c-1.379,0-2.576,0.935-2.911,2.272   L13.219,31H9c-0.552,0-1,0.448-1,1v4c0,0.552,0.448,1,1,1h2.719l-0.5,2H10c-1.654,0-3,1.346-3,3v9H6c-0.552,0-1,0.448-1,1v4   c0,0.552,0.448,1,1,1h5v3c0,1.654,1.346,3,3,3h2c1.654,0,3-1.346,3-3v-3h26v3c0,1.654,1.346,3,3,3h2c1.654,0,3-1.346,3-3v-3h5   c0.552,0,1-0.448,1-1v-4C59,51.448,58.552,51,58,51z M54,33v2h-2.219l-0.5-2H54z M26,21h12v2H26V21z M17.562,25h28.877   c0.46,0,0.859,0.312,0.97,0.758L47.719,27H16.281l0.311-1.242C16.703,25.312,17.102,25,17.562,25z M10,35v-2h2.719l-0.5,2H10z    M15.781,29h32.438l2.5,10H13.281L15.781,29z M9,42c0-0.551,0.449-1,1-1h44c0.551,0,1,0.449,1,1v9H41v-7c0-0.552-0.448-1-1-1H24   c-0.552,0-1,0.448-1,1v7H9V42z M39,47H25v-2h14V47z M25,49h14v2H25V49z M17,60c0,0.551-0.449,1-1,1h-2c-0.551,0-1-0.449-1-1v-3h4   V60z M51,60c0,0.551-0.449,1-1,1h-2c-0.551,0-1-0.449-1-1v-3h4V60z M57,55H7v-2h50V55z"/>
	<path d="M20,43h-6c-0.552,0-1,0.448-1,1v4c0,0.552,0.448,1,1,1h6c0.552,0,1-0.448,1-1v-4C21,43.448,20.552,43,20,43z M19,47h-4v-2   h4V47z"/>
	<path d="M44,49h6c0.552,0,1-0.448,1-1v-4c0-0.552-0.448-1-1-1h-6c-0.552,0-1,0.448-1,1v4C43,48.552,43.448,49,44,49z M45,45h4v2h-4   V45z"/>
	<rect x="27.757" y="33" transform="matrix(0.7071 -0.7071 0.7071 0.7071 -14.669 32.5858)" width="8.485" height="2"/>
	<rect x="37.757" y="33" transform="matrix(0.7071 -0.7071 0.7071 0.7071 -11.7401 39.6569)" width="8.485" height="2"/>
	<rect x="17.757" y="33" transform="matrix(0.7071 -0.7071 0.7071 0.7071 -17.598 25.5147)" width="8.485" height="2"/>
	<path d="M60.793,7.855C61.536,7.128,62,6.119,62,5c0-2.206-1.794-4-4-4s-4,1.794-4,4c0,1.119,0.464,2.128,1.207,2.855   C53.876,8.754,53,10.277,53,12v4c0,0.552,0.448,1,1,1h8c0.552,0,1-0.448,1-1v-4C63,10.277,62.124,8.754,60.793,7.855z M56,5   c0-1.103,0.897-2,2-2s2,0.897,2,2s-0.897,2-2,2S56,6.103,56,5z M61,15h-6v-3c0-1.654,1.346-3,3-3s3,1.346,3,3V15z"/>
	<path d="M28,17h8c0.552,0,1-0.448,1-1v-4c0-1.723-0.876-3.246-2.207-4.145C35.536,7.128,36,6.119,36,5c0-2.206-1.794-4-4-4   s-4,1.794-4,4c0,1.119,0.464,2.128,1.207,2.855C27.876,8.754,27,10.277,27,12v4C27,16.552,27.448,17,28,17z M30,5   c0-1.103,0.897-2,2-2s2,0.897,2,2s-0.897,2-2,2S30,6.103,30,5z M29,12c0-1.654,1.346-3,3-3s3,1.346,3,3v3h-6V12z"/>
	<path d="M11,16v-4c0-1.723-0.876-3.246-2.207-4.145C9.536,7.128,10,6.119,10,5c0-2.206-1.794-4-4-4S2,2.794,2,5   c0,1.119,0.464,2.128,1.207,2.855C1.876,8.754,1,10.277,1,12v4c0,0.552,0.448,1,1,1h8C10.552,17,11,16.552,11,16z M4,5   c0-1.103,0.897-2,2-2s2,0.897,2,2S7.103,7,6,7S4,6.103,4,5z M9,15H3v-3c0-1.654,1.346-3,3-3s3,1.346,3,3V15z"/>
	<path d="M57,27h-5v2h6c0.552,0,1-0.448,1-1v-9h-2V27z"/>
	<path d="M5,19v9c0,0.552,0.448,1,1,1h6v-2H7v-8H5z"/>
	<rect x="13" y="11" width="12" height="2"/>
	<rect x="39" y="11" width="12" height="2"/>
</g>
</svg>
