<?xml version="1.0" encoding="utf-8"?>
<!-- Generator: Adobe Illustrator 23.0.0, SVG Export Plug-In . SVG Version: 6.00 Build 0)  -->
<svg version="1.1" id="Capa_1" xmlns="http://www.w3.org/2000/svg" xmlns:xlink="http://www.w3.org/1999/xlink" x="0px" y="0px"
	 viewBox="0 0 300 300" style="enable-background:new 0 0 300 300;" xml:space="preserve">
<style type="text/css">
	.st0{fill:#FFFFFF;}
	.st1{fill:url(#SVGID_1_);}
	.st2{fill:none;stroke:#BD220E;stroke-width:8;stroke-miterlimit:10;}
	.st3{fill:#D1C8B6;}
	.st4{fill:#97CACC;}
	.st5{opacity:7.000000e-02;}
	.st6{fill:#82ADB0;}
	.st7{fill:#E8DECA;}
	.st8{fill:#DAD1BE;}
	.st9{fill:#CFE4EB;}
	.st10{fill:none;}
	.st11{fill:#729798;}
	.st12{opacity:0.18;fill:#508C82;}
	.st13{opacity:0.23;fill:#FFFFFF;}
	.st14{fill:#BFC1C1;}
	.st15{fill:#D6D7D7;}
	.st16{fill:#ABABB2;}
	.st17{fill:#DA0100;}
	.st18{fill:#E4E4E4;}
	.st19{fill:#B32124;}
	.st20{fill:#CACACA;}
	.st21{fill:#D6714C;}
	.st22{fill:#5FA69B;}
	.st23{fill:#C3C4C4;}
	.st24{fill:#7CBFB2;}
	.st25{fill:#95CBC9;}
	.st26{fill:#508C82;}
	.st27{opacity:0.3;fill:#FFFFFF;}
	.st28{fill:#DE912F;}
	.st29{fill:#F1F1F1;}
	.st30{opacity:0.14;fill:#363636;}
	.st31{fill:#C0802B;}
	.st32{opacity:0.64;fill:#FFFFFF;}
	.st33{opacity:0.35;fill:#FFFFFF;}
	.st34{fill:#AF99C5;}
	.st35{fill:#9683A9;}
	.st36{fill:#FAEFD7;}
	.st37{opacity:0.26;fill:#FFFFFF;}
	.st38{fill:#AB926E;}
	.st39{fill:#E0BD8B;}
	.st40{fill:#F3D49A;}
	.st41{fill:#A73333;}
	.st42{fill:#C43B3C;}
	.st43{fill:#C75143;}
	.st44{fill:#D87958;}
	.st45{fill:#4070B7;}
	.st46{fill:#375E98;}
	.st47{fill:#518FCF;}
</style>
<circle class="st0" cx="149.8" cy="154.4" r="128.4"/>
<g>
	<radialGradient id="SVGID_1_" cx="153.3123" cy="152.1626" r="96.2039" gradientUnits="userSpaceOnUse">
		<stop  offset="0" style="stop-color:#A9A6A4"/>
		<stop  offset="0.3093" style="stop-color:#ABA9A7"/>
		<stop  offset="0.4999" style="stop-color:#B3B1AF"/>
		<stop  offset="0.6584" style="stop-color:#C1BFBE"/>
		<stop  offset="0.7992" style="stop-color:#D5D3D2"/>
		<stop  offset="0.9271" style="stop-color:#EDEDEC"/>
		<stop  offset="1" style="stop-color:#FFFFFF"/>
	</radialGradient>
	<path class="st1" d="M249.5,152.2c0,53-43.3,96.2-96.3,96.2c-53-0.1-96.2-43.3-96.1-96.3c0.1-53,43.2-96.1,96.2-96.1
		C206.3,55.9,249.5,99.2,249.5,152.2"/>
	<path class="st2" d="M279.7,152.2c0,71.6-58.5,129.9-130,129.9C78.1,282,19.8,223.5,19.9,152C20.1,80.5,78.3,22.3,149.8,22.3
		C221.4,22.3,279.7,80.6,279.7,152.2z"/>
	<g>
		<g>
			<g>
				<g>
					<rect x="202" y="164.2" class="st3" width="38" height="11"/>
					<path class="st4" d="M221,89.4h-25.5c0,0,3.3,69.5,3.7,73c0.3,3.6,1.8,5.6,3.2,5.6s18.7,0,18.7,0s17.4,0,18.7,0
						c1.3,0,2.8-2.1,3.2-5.6s3.7-73,3.7-73H221z"/>
					<path class="st5" d="M230,175.2h10v-7.6l-10,0.5C230,168.1,230,171.6,230,175.2z"/>
					<rect x="195.5" y="85.1" class="st6" width="51.1" height="4.3"/>
					<path class="st7" d="M238.5,169.3c-2.4,0-17.5,0-17.5,0s-15,0-17.5,0s-3.4,0.9-3.4,2.4s0,4.5,0,4.5s0,3,0,4.5
						c0,1.5,0.9,2.4,3.4,2.4s17.5,0,17.5,0s15,0,17.5,0c2.4,0,3.4-0.9,3.4-2.4c0-1.5,0-4.5,0-4.5s0-3,0-4.5S240.9,169.3,238.5,169.3
						z"/>
					<path class="st8" d="M221,183.2h-17.5c0,0,0,2.2,0,3.8s0.8,3.9,4.8,3.9c4,0,12.7,0,12.7,0s8.6,0,12.7,0c4,0,4.8-2.3,4.8-3.9
						s0-3.8,0-3.8H221z"/>
					<polygon class="st9" points="196.7,114.4 245.4,114.4 244.1,140.7 198,140.7 					"/>
					<g>
						<path class="st8" d="M202,181.7h-0.6c-0.1,0-0.1-0.1-0.1-0.1v-10.5c0-0.1,0.1-0.1,0.1-0.1h0.6c0.1,0,0.1,0.1,0.1,0.1v10.5
							C202.2,181.6,202.1,181.7,202,181.7z"/>
						<path class="st8" d="M203.6,181.7H203c-0.1,0-0.1-0.1-0.1-0.1v-10.5c0-0.1,0.1-0.1,0.1-0.1h0.6c0.1,0,0.1,0.1,0.1,0.1v10.5
							C203.7,181.6,203.6,181.7,203.6,181.7z"/>
						<path class="st8" d="M205.1,181.7h-0.6c-0.1,0-0.1-0.1-0.1-0.1v-10.5c0-0.1,0.1-0.1,0.1-0.1h0.6c0.1,0,0.1,0.1,0.1,0.1v10.5
							C205.2,181.6,205.2,181.7,205.1,181.7z"/>
						<path class="st8" d="M206.7,181.7h-0.6c-0.1,0-0.1-0.1-0.1-0.1v-10.5c0-0.1,0.1-0.1,0.1-0.1h0.6c0.1,0,0.1,0.1,0.1,0.1v10.5
							C206.8,181.6,206.7,181.7,206.7,181.7z"/>
						<path class="st8" d="M208.2,181.7h-0.6c-0.1,0-0.1-0.1-0.1-0.1v-10.5c0-0.1,0.1-0.1,0.1-0.1h0.6c0.1,0,0.1,0.1,0.1,0.1v10.5
							C208.3,181.6,208.3,181.7,208.2,181.7z"/>
						<path class="st8" d="M209.7,181.7h-0.6c-0.1,0-0.1-0.1-0.1-0.1v-10.5c0-0.1,0.1-0.1,0.1-0.1h0.6c0.1,0,0.1,0.1,0.1,0.1v10.5
							C209.9,181.6,209.8,181.7,209.7,181.7z"/>
						<path class="st8" d="M211.3,181.7h-0.6c-0.1,0-0.1-0.1-0.1-0.1v-10.5c0-0.1,0.1-0.1,0.1-0.1h0.6c0.1,0,0.1,0.1,0.1,0.1v10.5
							C211.4,181.6,211.4,181.7,211.3,181.7z"/>
						<path class="st8" d="M212.8,181.7h-0.6c-0.1,0-0.1-0.1-0.1-0.1v-10.5c0-0.1,0.1-0.1,0.1-0.1h0.6c0.1,0,0.1,0.1,0.1,0.1v10.5
							C213,181.6,212.9,181.7,212.8,181.7z"/>
						<path class="st8" d="M214.4,181.7h-0.6c-0.1,0-0.1-0.1-0.1-0.1v-10.5c0-0.1,0.1-0.1,0.1-0.1h0.6c0.1,0,0.1,0.1,0.1,0.1v10.5
							C214.5,181.6,214.5,181.7,214.4,181.7z"/>
						<path class="st8" d="M215.9,181.7h-0.6c-0.1,0-0.1-0.1-0.1-0.1v-10.5c0-0.1,0.1-0.1,0.1-0.1h0.6c0.1,0,0.1,0.1,0.1,0.1v10.5
							C216.1,181.6,216,181.7,215.9,181.7z"/>
						<path class="st8" d="M217.5,181.7h-0.6c-0.1,0-0.1-0.1-0.1-0.1v-10.5c0-0.1,0.1-0.1,0.1-0.1h0.6c0.1,0,0.1,0.1,0.1,0.1v10.5
							C217.6,181.6,217.5,181.7,217.5,181.7z"/>
						<path class="st8" d="M219,181.7h-0.6c-0.1,0-0.1-0.1-0.1-0.1v-10.5c0-0.1,0.1-0.1,0.1-0.1h0.6c0.1,0,0.1,0.1,0.1,0.1v10.5
							C219.1,181.6,219.1,181.7,219,181.7z"/>
						<path class="st8" d="M220.6,181.7H220c-0.1,0-0.1-0.1-0.1-0.1v-10.5c0-0.1,0.1-0.1,0.1-0.1h0.6c0.1,0,0.1,0.1,0.1,0.1v10.5
							C220.7,181.6,220.6,181.7,220.6,181.7z"/>
						<path class="st8" d="M222.1,181.7h-0.6c-0.1,0-0.1-0.1-0.1-0.1v-10.5c0-0.1,0.1-0.1,0.1-0.1h0.6c0.1,0,0.1,0.1,0.1,0.1v10.5
							C222.2,181.6,222.2,181.7,222.1,181.7z"/>
						<path class="st8" d="M223.6,181.7h-0.6c-0.1,0-0.1-0.1-0.1-0.1v-10.5c0-0.1,0.1-0.1,0.1-0.1h0.6c0.1,0,0.1,0.1,0.1,0.1v10.5
							C223.8,181.6,223.7,181.7,223.6,181.7z"/>
						<path class="st8" d="M225.2,181.7h-0.6c-0.1,0-0.1-0.1-0.1-0.1v-10.5c0-0.1,0.1-0.1,0.1-0.1h0.6c0.1,0,0.1,0.1,0.1,0.1v10.5
							C225.3,181.6,225.3,181.7,225.2,181.7z"/>
						<path class="st8" d="M226.7,181.7h-0.6c-0.1,0-0.1-0.1-0.1-0.1v-10.5c0-0.1,0.1-0.1,0.1-0.1h0.6c0.1,0,0.1,0.1,0.1,0.1v10.5
							C226.9,181.6,226.8,181.7,226.7,181.7z"/>
						<path class="st8" d="M228.3,181.7h-0.6c-0.1,0-0.1-0.1-0.1-0.1v-10.5c0-0.1,0.1-0.1,0.1-0.1h0.6c0.1,0,0.1,0.1,0.1,0.1v10.5
							C228.4,181.6,228.4,181.7,228.3,181.7z"/>
						<path class="st8" d="M229.8,181.7h-0.6c-0.1,0-0.1-0.1-0.1-0.1v-10.5c0-0.1,0.1-0.1,0.1-0.1h0.6c0.1,0,0.1,0.1,0.1,0.1v10.5
							C230,181.6,229.9,181.7,229.8,181.7z"/>
						<path class="st8" d="M231.4,181.7h-0.6c-0.1,0-0.1-0.1-0.1-0.1v-10.5c0-0.1,0.1-0.1,0.1-0.1h0.6c0.1,0,0.1,0.1,0.1,0.1v10.5
							C231.5,181.6,231.4,181.7,231.4,181.7z"/>
						<path class="st8" d="M232.9,181.7h-0.6c-0.1,0-0.1-0.1-0.1-0.1v-10.5c0-0.1,0.1-0.1,0.1-0.1h0.6c0.1,0,0.1,0.1,0.1,0.1v10.5
							C233,181.6,233,181.7,232.9,181.7z"/>
						<path class="st8" d="M234.5,181.7h-0.6c-0.1,0-0.1-0.1-0.1-0.1v-10.5c0-0.1,0.1-0.1,0.1-0.1h0.6c0.1,0,0.1,0.1,0.1,0.1v10.5
							C234.6,181.6,234.5,181.7,234.5,181.7z"/>
						<path class="st8" d="M236,181.7h-0.6c-0.1,0-0.1-0.1-0.1-0.1v-10.5c0-0.1,0.1-0.1,0.1-0.1h0.6c0.1,0,0.1,0.1,0.1,0.1v10.5
							C236.1,181.6,236.1,181.7,236,181.7z"/>
						<path class="st8" d="M237.6,181.7H237c-0.1,0-0.1-0.1-0.1-0.1v-10.5c0-0.1,0.1-0.1,0.1-0.1h0.6c0.1,0,0.1,0.1,0.1,0.1v10.5
							C237.7,181.6,237.6,181.7,237.6,181.7z"/>
						<path class="st8" d="M239.1,181.7h-0.6c-0.1,0-0.1-0.1-0.1-0.1v-10.5c0-0.1,0.1-0.1,0.1-0.1h0.6c0.1,0,0.1,0.1,0.1,0.1v10.5
							C239.2,181.6,239.2,181.7,239.1,181.7z"/>
						<path class="st8" d="M240.6,181.7h-0.6c-0.1,0-0.1-0.1-0.1-0.1v-10.5c0-0.1,0.1-0.1,0.1-0.1h0.6c0.1,0,0.1,0.1,0.1,0.1v10.5
							C240.8,181.6,240.7,181.7,240.6,181.7z"/>
					</g>
					<g>
						<path class="st10" d="M195.5,85.1v4.3h0.4V86c0-0.2,0.1-0.3,0.3-0.3s0.3,0.1,0.3,0.3v3.5h0.5V86c0-0.2,0.1-0.3,0.3-0.3
							c0.2,0,0.3,0.1,0.3,0.3v3.5h0.5V86c0-0.2,0.1-0.3,0.3-0.3s0.3,0.1,0.3,0.3v3.5h0.5V86c0-0.2,0.1-0.3,0.3-0.3s0.3,0.1,0.3,0.3
							v3.5h0.5V86c0-0.2,0.1-0.3,0.3-0.3c0.2,0,0.3,0.1,0.3,0.3v3.5h0.5V86c0-0.2,0.1-0.3,0.3-0.3c0.2,0,0.3,0.1,0.3,0.3v3.5h0.5V86
							c0-0.2,0.1-0.3,0.3-0.3c0.2,0,0.3,0.1,0.3,0.3v3.5h0.5V86c0-0.2,0.1-0.3,0.3-0.3s0.3,0.1,0.3,0.3v3.5h0.5V86
							c0-0.2,0.1-0.3,0.3-0.3s0.3,0.1,0.3,0.3v3.5h0.5V86c0-0.2,0.1-0.3,0.3-0.3c0.2,0,0.3,0.1,0.3,0.3v3.5h0.5V86
							c0-0.2,0.1-0.3,0.3-0.3c0.2,0,0.3,0.1,0.3,0.3v3.5h0.5V86c0-0.2,0.1-0.3,0.3-0.3c0.2,0,0.3,0.1,0.3,0.3v3.5h0.5V86
							c0-0.2,0.1-0.3,0.3-0.3s0.3,0.1,0.3,0.3v3.5h0.5V86c0-0.2,0.1-0.3,0.3-0.3s0.3,0.1,0.3,0.3v3.5h0.5V86c0-0.2,0.1-0.3,0.3-0.3
							c0.2,0,0.3,0.1,0.3,0.3v3.5h0.5V86c0-0.2,0.1-0.3,0.3-0.3c0.2,0,0.3,0.1,0.3,0.3v3.5h0.5V86c0-0.2,0.1-0.3,0.3-0.3
							c0.2,0,0.3,0.1,0.3,0.3v3.5h0.5V86c0-0.2,0.1-0.3,0.3-0.3s0.3,0.1,0.3,0.3v3.5h0.5V86c0-0.2,0.1-0.3,0.3-0.3s0.3,0.1,0.3,0.3
							v3.5h0.5V86c0-0.2,0.1-0.3,0.3-0.3c0.2,0,0.3,0.1,0.3,0.3v3.5h0.5V86c0-0.2,0.1-0.3,0.3-0.3s0.3,0.1,0.3,0.3v3.5h0.5V86
							c0-0.2,0.1-0.3,0.3-0.3c0.2,0,0.3,0.1,0.3,0.3v3.5h0.5V86c0-0.2,0.1-0.3,0.3-0.3c0.2,0,0.3,0.1,0.3,0.3v3.5h0.5V86
							c0-0.2,0.1-0.3,0.3-0.3c0.2,0,0.3,0.1,0.3,0.3v3.5h0.5V86c0-0.2,0.1-0.3,0.3-0.3c0.2,0,0.3,0.1,0.3,0.3v3.5h0.5V86
							c0-0.2,0.1-0.3,0.3-0.3c0.2,0,0.3,0.1,0.3,0.3v3.5h0.5V86c0-0.2,0.1-0.3,0.3-0.3c0.2,0,0.3,0.1,0.3,0.3v3.5h0.5V86
							c0-0.2,0.1-0.3,0.3-0.3c0.2,0,0.3,0.1,0.3,0.3v3.5h0.5V86c0-0.2,0.1-0.3,0.3-0.3s0.3,0.1,0.3,0.3v3.5h0.5V86
							c0-0.2,0.1-0.3,0.3-0.3c0.2,0,0.3,0.1,0.3,0.3v3.5h0.5V86c0-0.2,0.1-0.3,0.3-0.3s0.3,0.1,0.3,0.3v3.5h0.5V86
							c0-0.2,0.1-0.3,0.3-0.3c0.2,0,0.3,0.1,0.3,0.3v3.5h0.5V86c0-0.2,0.1-0.3,0.3-0.3c0.2,0,0.3,0.1,0.3,0.3v3.5h0.5V86
							c0-0.2,0.1-0.3,0.3-0.3c0.2,0,0.3,0.1,0.3,0.3v3.5h0.5V86c0-0.2,0.1-0.3,0.3-0.3c0.2,0,0.3,0.1,0.3,0.3v3.5h0.5V86
							c0-0.2,0.1-0.3,0.3-0.3c0.2,0,0.3,0.1,0.3,0.3v3.5h0.5V86c0-0.2,0.1-0.3,0.3-0.3c0.2,0,0.3,0.1,0.3,0.3v3.5h0.5V86
							c0-0.2,0.1-0.3,0.3-0.3s0.3,0.1,0.3,0.3v3.5h0.5V86c0-0.2,0.1-0.3,0.3-0.3s0.3,0.1,0.3,0.3v3.5h0.5V86c0-0.2,0.1-0.3,0.3-0.3
							c0.2,0,0.3,0.1,0.3,0.3v3.5h0.5V86c0-0.2,0.1-0.3,0.3-0.3s0.3,0.1,0.3,0.3v3.5h0.5V86c0-0.2,0.1-0.3,0.3-0.3s0.3,0.1,0.3,0.3
							v3.5h0.5V86c0-0.2,0.1-0.3,0.3-0.3c0.2,0,0.3,0.1,0.3,0.3v3.5h0.5V86c0-0.2,0.1-0.3,0.3-0.3c0.2,0,0.3,0.1,0.3,0.3v3.5h0.5V86
							c0-0.2,0.1-0.3,0.3-0.3c0.2,0,0.3,0.1,0.3,0.3v3.5h0.5V86c0-0.2,0.1-0.3,0.3-0.3c0.2,0,0.3,0.1,0.3,0.3v3.5h0.5V86
							c0-0.2,0.1-0.3,0.3-0.3c0.2,0,0.3,0.1,0.3,0.3v3.5h0.4v-4.3H195.5z"/>
						<path class="st11" d="M196.2,85.7c-0.2,0-0.3,0.1-0.3,0.3v3.5h0.6V86C196.5,85.8,196.4,85.7,196.2,85.7z"/>
						<path class="st11" d="M197.3,85.7c-0.2,0-0.3,0.1-0.3,0.3v3.5h0.6V86C197.6,85.8,197.5,85.7,197.3,85.7z"/>
						<path class="st11" d="M198.4,85.7c-0.2,0-0.3,0.1-0.3,0.3v3.5h0.6V86C198.7,85.8,198.5,85.7,198.4,85.7z"/>
						<path class="st11" d="M199.4,85.7c-0.2,0-0.3,0.1-0.3,0.3v3.5h0.6V86C199.8,85.8,199.6,85.7,199.4,85.7z"/>
						<path class="st11" d="M200.5,85.7c-0.2,0-0.3,0.1-0.3,0.3v3.5h0.6V86C200.8,85.8,200.7,85.7,200.5,85.7z"/>
						<path class="st11" d="M201.6,85.7c-0.2,0-0.3,0.1-0.3,0.3v3.5h0.6V86C201.9,85.8,201.8,85.7,201.6,85.7z"/>
						<path class="st11" d="M202.7,85.7c-0.2,0-0.3,0.1-0.3,0.3v3.5h0.6V86C203,85.8,202.9,85.7,202.7,85.7z"/>
						<path class="st11" d="M203.8,85.7c-0.2,0-0.3,0.1-0.3,0.3v3.5h0.6V86C204.1,85.8,203.9,85.7,203.8,85.7z"/>
						<path class="st11" d="M204.8,85.7c-0.2,0-0.3,0.1-0.3,0.3v3.5h0.6V86C205.2,85.8,205,85.7,204.8,85.7z"/>
						<path class="st11" d="M205.9,85.7c-0.2,0-0.3,0.1-0.3,0.3v3.5h0.6V86C206.2,85.8,206.1,85.7,205.9,85.7z"/>
						<path class="st11" d="M207,85.7c-0.2,0-0.3,0.1-0.3,0.3v3.5h0.6V86C207.3,85.8,207.2,85.7,207,85.7z"/>
						<path class="st11" d="M208.1,85.7c-0.2,0-0.3,0.1-0.3,0.3v3.5h0.6V86C208.4,85.8,208.3,85.7,208.1,85.7z"/>
						<path class="st11" d="M209.2,85.7c-0.2,0-0.3,0.1-0.3,0.3v3.5h0.6V86C209.5,85.8,209.3,85.7,209.2,85.7z"/>
						<path class="st11" d="M210.2,85.7c-0.2,0-0.3,0.1-0.3,0.3v3.5h0.6V86C210.5,85.8,210.4,85.7,210.2,85.7z"/>
						<path class="st11" d="M211.3,85.7c-0.2,0-0.3,0.1-0.3,0.3v3.5h0.6V86C211.6,85.8,211.5,85.7,211.3,85.7z"/>
						<path class="st11" d="M212.4,85.7c-0.2,0-0.3,0.1-0.3,0.3v3.5h0.6V86C212.7,85.8,212.6,85.7,212.4,85.7z"/>
						<path class="st11" d="M213.5,85.7c-0.2,0-0.3,0.1-0.3,0.3v3.5h0.6V86C213.8,85.8,213.7,85.7,213.5,85.7z"/>
						<path class="st11" d="M214.6,85.7c-0.2,0-0.3,0.1-0.3,0.3v3.5h0.6V86C214.9,85.8,214.7,85.7,214.6,85.7z"/>
						<path class="st11" d="M215.6,85.7c-0.2,0-0.3,0.1-0.3,0.3v3.5h0.6V86C215.9,85.8,215.8,85.7,215.6,85.7z"/>
						<path class="st11" d="M216.7,85.7c-0.2,0-0.3,0.1-0.3,0.3v3.5h0.6V86C217,85.8,216.9,85.7,216.7,85.7z"/>
						<path class="st11" d="M217.8,85.7c-0.2,0-0.3,0.1-0.3,0.3v3.5h0.6V86C218.1,85.8,218,85.7,217.8,85.7z"/>
						<path class="st11" d="M218.9,85.7c-0.2,0-0.3,0.1-0.3,0.3v3.5h0.6V86C219.2,85.8,219.1,85.7,218.9,85.7z"/>
						<path class="st11" d="M220,85.7c-0.2,0-0.3,0.1-0.3,0.3v3.5h0.6V86C220.3,85.8,220.1,85.7,220,85.7z"/>
						<path class="st11" d="M221,85.7c-0.2,0-0.3,0.1-0.3,0.3v3.5h0.6V86C221.3,85.8,221.2,85.7,221,85.7z"/>
						<path class="st11" d="M222.1,85.7c-0.2,0-0.3,0.1-0.3,0.3v3.5h0.6V86C222.4,85.8,222.3,85.7,222.1,85.7z"/>
						<path class="st11" d="M223.2,85.7c-0.2,0-0.3,0.1-0.3,0.3v3.5h0.6V86C223.5,85.8,223.4,85.7,223.2,85.7z"/>
						<path class="st11" d="M224.3,85.7c-0.2,0-0.3,0.1-0.3,0.3v3.5h0.6V86C224.6,85.8,224.4,85.7,224.3,85.7z"/>
						<path class="st11" d="M225.4,85.7c-0.2,0-0.3,0.1-0.3,0.3v3.5h0.6V86C225.7,85.8,225.5,85.7,225.4,85.7z"/>
						<path class="st11" d="M226.4,85.7c-0.2,0-0.3,0.1-0.3,0.3v3.5h0.6V86C226.7,85.8,226.6,85.7,226.4,85.7z"/>
						<path class="st11" d="M227.5,85.7c-0.2,0-0.3,0.1-0.3,0.3v3.5h0.6V86C227.8,85.8,227.7,85.7,227.5,85.7z"/>
						<path class="st11" d="M228.6,85.7c-0.2,0-0.3,0.1-0.3,0.3v3.5h0.6V86C228.9,85.8,228.8,85.7,228.6,85.7z"/>
						<path class="st11" d="M229.7,85.7c-0.2,0-0.3,0.1-0.3,0.3v3.5h0.6V86C230,85.8,229.8,85.7,229.7,85.7z"/>
						<path class="st11" d="M230.8,85.7c-0.2,0-0.3,0.1-0.3,0.3v3.5h0.6V86C231.1,85.8,230.9,85.7,230.8,85.7z"/>
						<path class="st11" d="M231.8,85.7c-0.2,0-0.3,0.1-0.3,0.3v3.5h0.6V86C232.1,85.8,232,85.7,231.8,85.7z"/>
						<path class="st11" d="M232.9,85.7c-0.2,0-0.3,0.1-0.3,0.3v3.5h0.6V86C233.2,85.8,233.1,85.7,232.9,85.7z"/>
						<path class="st11" d="M234,85.7c-0.2,0-0.3,0.1-0.3,0.3v3.5h0.6V86C234.3,85.8,234.2,85.7,234,85.7z"/>
						<path class="st11" d="M235.1,85.7c-0.2,0-0.3,0.1-0.3,0.3v3.5h0.6V86C235.4,85.8,235.2,85.7,235.1,85.7z"/>
						<path class="st11" d="M236.2,85.7c-0.2,0-0.3,0.1-0.3,0.3v3.5h0.6V86C236.5,85.8,236.3,85.7,236.2,85.7z"/>
						<path class="st11" d="M237.2,85.7c-0.2,0-0.3,0.1-0.3,0.3v3.5h0.6V86C237.5,85.8,237.4,85.7,237.2,85.7z"/>
						<path class="st11" d="M238.3,85.7c-0.2,0-0.3,0.1-0.3,0.3v3.5h0.6V86C238.6,85.8,238.5,85.7,238.3,85.7z"/>
						<path class="st11" d="M239.4,85.7c-0.2,0-0.3,0.1-0.3,0.3v3.5h0.6V86C239.7,85.8,239.6,85.7,239.4,85.7z"/>
						<path class="st11" d="M240.5,85.7c-0.2,0-0.3,0.1-0.3,0.3v3.5h0.6V86C240.8,85.8,240.6,85.7,240.5,85.7z"/>
						<path class="st11" d="M241.6,85.7c-0.2,0-0.3,0.1-0.3,0.3v3.5h0.6V86C241.9,85.8,241.7,85.7,241.6,85.7z"/>
						<path class="st11" d="M242.6,85.7c-0.2,0-0.3,0.1-0.3,0.3v3.5h0.6V86C242.9,85.8,242.8,85.7,242.6,85.7z"/>
						<path class="st11" d="M243.7,85.7c-0.2,0-0.3,0.1-0.3,0.3v3.5h0.6V86C244,85.8,243.9,85.7,243.7,85.7z"/>
						<path class="st11" d="M244.8,85.7c-0.2,0-0.3,0.1-0.3,0.3v3.5h0.6V86C245.1,85.8,245,85.7,244.8,85.7z"/>
						<path class="st11" d="M245.9,85.7c-0.2,0-0.3,0.1-0.3,0.3v3.5h0.6V86C246.2,85.8,246,85.7,245.9,85.7z"/>
					</g>
					<path class="st12" d="M230,167.9c0,0,0-0.2,0,0.2c4.5,0,9,0,9.7,0c1.3,0,2.8-2.1,3.2-5.6s3.7-73,3.7-73h-9.6
						c0,0-2.1,60.5-2.9,68C233.2,164.9,230,167.9,230,167.9z"/>
					<path class="st5" d="M229.5,183.2c3.9,0,7.8,0,9,0c2.4,0,3.4-0.9,3.4-2.4c0-1.5,0-4.5,0-4.5s0-3,0-4.5s-0.9-2.4-3.4-2.4
						c-1.1,0-4.8,0-8.5,0c0,0,1.5,0.5,1.5,2c0,1.5,0,7.8,0,9.4C231.5,182.4,229.5,183.2,229.5,183.2z"/>
					<path class="st5" d="M228.8,191c1.8,0,3.6,0,5,0c4,0,4.8-2.3,4.8-3.9s0-3.8,0-3.8H230c0,1.4,0,2,0,4.6
						C230,189.7,229.2,190.6,228.8,191z"/>
					<path class="st13" d="M198.1,89.4c0,0,3.7,68,4.1,72.7c0.4,4.8,3,5.9,3,5.9h7.6c0,0-1.6-1.8-2.1-6.1
						c-0.6-4.3-2.8-72.6-2.8-72.6H198.1z"/>
					<path class="st13" d="M207.9,183.2c0,0,0,1.8,0,3.9s2,3.9,2,3.9s5.3,0,5.1,0c-0.2,0-2-1.1-2-3.1c0-2,0-4.7,0-4.7H207.9z"/>
				</g>
				<g>
					<path class="st14" d="M186.4,79.4c-3.3,0-24.8,0-24.8,0s-21.4,0-24.8,0c-3.3,0-5.4,2.2-5.4,6s0,47.4,0,47.4s0,43.6,0,47.4
						c0,3.9,2.1,6,5.4,6c3.3,0,24.8,0,24.8,0s21.4,0,24.8,0s5.4-2.2,5.4-6c0-3.9,0-47.4,0-47.4s0-43.6,0-47.4S189.8,79.4,186.4,79.4
						z"/>
					<path class="st15" d="M186.4,78.4c-3.3,0-24.8,0-24.8,0s-21.4,0-24.8,0c-3.3,0-5.4,2.2-5.4,6s0,47.4,0,47.4s0,43.6,0,47.4
						c0,3.9,2.1,6,5.4,6c3.3,0,24.8,0,24.8,0s21.4,0,24.8,0s5.4-2.2,5.4-6c0-3.9,0-47.4,0-47.4s0-43.6,0-47.4S189.8,78.4,186.4,78.4
						z"/>
					<rect x="161.1" y="78.4" class="st14" width="1.1" height="106.9"/>
					<g>
						<g>
							<path class="st16" d="M153.7,90.1c0-0.1,0-0.2-0.1-0.3c0,0,0,0,0,0c0-0.1,0-0.1-0.1-0.2c0-0.1,0-0.1-0.1-0.2
								c0,0,0-0.1-0.1-0.1c0-0.1-0.1-0.1-0.1-0.2c0,0,0,0,0-0.1c0-0.1-0.1-0.2-0.2-0.2c0,0,0,0,0,0c0,0,0,0,0,0
								c-0.3-0.3-0.6-0.6-0.9-0.8c-0.8-0.4-1.9-0.7-3.2,0.2c-2.5,1.7-3.8,2.7-3.8,2.7s-1.3,0.9-3.8,2.7c-1.3,0.9-1.5,2.1-1.3,3
								c0.1,0.4,0.2,0.8,0.5,1.1l0,0l0,0c0.1,0.2,0.3,0.4,0.4,0.5c0,0,0,0,0,0c0.1,0.1,0.2,0.1,0.2,0.2c0,0,0,0,0,0
								c0.1,0.1,0.2,0.1,0.3,0.2c0.2,0.1,0.4,0.2,0.6,0.3c0,0,0.1,0,0.1,0c0.1,0,0.2,0.1,0.3,0.1c0.1,0,0.1,0,0.2,0
								c0.6,0,1.3-0.1,2-0.6c2.5-1.7,3.8-2.7,3.8-2.7s1.3-0.9,3.8-2.7c0,0,0,0,0,0c0,0,0,0,0,0C153.7,92.1,153.8,90.9,153.7,90.1z"
								/>
							<g>
								<path class="st17" d="M141.4,92.6c-1.3,0.9-1.5,2.1-1.3,3c0.2,0.9,0.7,1.7,1.5,2.1c0.8,0.4,1.9,0.7,3.2-0.2
									c2.5-1.7,3.8-2.7,3.8-2.7l-1.7-2.4l-1.7-2.4C145.2,89.9,143.8,90.8,141.4,92.6z"/>
								<path class="st18" d="M152.4,92c1.3-0.9,1.5-2.1,1.3-3c-0.2-0.9-0.7-1.7-1.5-2.1c-0.8-0.4-1.9-0.7-3.2,0.2
									c-2.5,1.7-3.8,2.7-3.8,2.7l1.7,2.4l1.7,2.4C148.6,94.7,149.9,93.8,152.4,92z"/>
								<path class="st19" d="M140.6,96.7c0.3,0.4,0.6,0.7,1,1c0.8,0.4,1.9,0.7,3.2-0.2c2.5-1.7,3.8-2.7,3.8-2.7l-0.5-0.8
									C142.3,98,141.3,97.4,140.6,96.7z"/>
								<path class="st20" d="M153.1,87.8c0.3,0.4,0.5,0.8,0.6,1.3c0.2,0.9,0,2-1.3,3c-2.5,1.7-3.8,2.7-3.8,2.7l-0.5-0.8
									C153.8,89.8,153.6,88.7,153.1,87.8z"/>
								<path class="st0" d="M148.8,87.8l-3.4,2.4l0.4,0.5l3.4-2.4c0.2-0.1,0.2-0.3,0.1-0.5C149.2,87.7,149,87.7,148.8,87.8z"/>
								<path class="st21" d="M141.9,92.7c-0.2,0.1-0.2,0.3-0.1,0.5c0.1,0.2,0.3,0.2,0.5,0.1l3.5-2.5l-0.4-0.5L141.9,92.7z"/>
							</g>
						</g>
						<g>
							<path class="st16" d="M153.7,103.1c0-0.1,0-0.2-0.1-0.3c0,0,0,0,0,0c0-0.1,0-0.1-0.1-0.2c0-0.1,0-0.1-0.1-0.2
								c0,0,0-0.1-0.1-0.1c0-0.1-0.1-0.1-0.1-0.2c0,0,0,0,0-0.1c0-0.1-0.1-0.2-0.2-0.2c0,0,0,0,0,0c0,0,0,0,0,0
								c-0.3-0.3-0.6-0.6-0.9-0.8c-0.8-0.4-1.9-0.7-3.2,0.2c-2.5,1.7-3.8,2.7-3.8,2.7s-1.3,0.9-3.8,2.7c-1.3,0.9-1.5,2.1-1.3,3
								c0.1,0.4,0.2,0.8,0.5,1.1h0l0,0c0.1,0.2,0.3,0.4,0.4,0.5c0,0,0,0,0,0c0.1,0.1,0.2,0.1,0.2,0.2c0,0,0,0,0,0
								c0.1,0.1,0.2,0.1,0.3,0.2c0.2,0.1,0.4,0.2,0.6,0.3c0,0,0.1,0,0.1,0c0.1,0,0.2,0.1,0.3,0.1c0.1,0,0.1,0,0.2,0
								c0.6,0,1.3-0.1,2-0.6c2.5-1.7,3.8-2.7,3.8-2.7s1.3-0.9,3.8-2.7c0,0,0,0,0,0c0,0,0,0,0,0C153.7,105.1,153.8,103.9,153.7,103.1
								z"/>
							<g>
								<path class="st17" d="M141.4,105.6c-1.3,0.9-1.5,2.1-1.3,3c0.2,0.9,0.7,1.7,1.5,2.1c0.8,0.4,1.9,0.7,3.2-0.2
									c2.5-1.7,3.8-2.7,3.8-2.7l-1.7-2.4l-1.7-2.4C145.2,102.9,143.8,103.8,141.4,105.6z"/>
								<path class="st18" d="M152.4,105c1.3-0.9,1.5-2.1,1.3-3c-0.2-0.9-0.7-1.7-1.5-2.1c-0.8-0.4-1.9-0.7-3.2,0.2
									c-2.5,1.7-3.8,2.7-3.8,2.7l1.7,2.4l1.7,2.4C148.6,107.7,149.9,106.8,152.4,105z"/>
								<path class="st19" d="M140.6,109.7c0.3,0.4,0.6,0.7,1,1c0.8,0.4,1.9,0.7,3.2-0.2c2.5-1.7,3.8-2.7,3.8-2.7l-0.5-0.8
									C142.3,111,141.3,110.4,140.6,109.7z"/>
								<path class="st20" d="M153.1,100.8c0.3,0.4,0.5,0.8,0.6,1.3c0.2,0.9,0,2-1.3,3c-2.5,1.7-3.8,2.7-3.8,2.7l-0.5-0.8
									C153.8,102.8,153.6,101.7,153.1,100.8z"/>
								<path class="st0" d="M148.8,100.8l-3.4,2.4l0.4,0.5l3.4-2.4c0.2-0.1,0.2-0.3,0.1-0.5C149.2,100.7,149,100.7,148.8,100.8z"/>
								<path class="st21" d="M141.9,105.7c-0.2,0.1-0.2,0.3-0.1,0.5c0.1,0.2,0.3,0.2,0.5,0.1l3.5-2.5l-0.4-0.5L141.9,105.7z"/>
							</g>
						</g>
						<g>
							<path class="st16" d="M153.7,116.1c0-0.1,0-0.2-0.1-0.3c0,0,0,0,0,0c0-0.1,0-0.1-0.1-0.2c0-0.1,0-0.1-0.1-0.2
								c0,0,0-0.1-0.1-0.1c0-0.1-0.1-0.1-0.1-0.2c0,0,0,0,0-0.1c0-0.1-0.1-0.2-0.2-0.2c0,0,0,0,0,0c0,0,0,0,0,0
								c-0.3-0.3-0.6-0.6-0.9-0.8c-0.8-0.4-1.9-0.7-3.2,0.2c-2.5,1.7-3.8,2.7-3.8,2.7s-1.3,0.9-3.8,2.7c-1.3,0.9-1.5,2.1-1.3,3
								c0.1,0.4,0.2,0.8,0.5,1.1l0,0c0,0,0,0,0,0c0.1,0.2,0.3,0.4,0.4,0.5c0,0,0,0,0,0c0.1,0.1,0.2,0.1,0.2,0.2c0,0,0,0,0,0
								c0.1,0.1,0.2,0.1,0.3,0.2c0.2,0.1,0.4,0.2,0.6,0.3c0,0,0.1,0,0.1,0c0.1,0,0.2,0.1,0.3,0.1c0.1,0,0.1,0,0.2,0
								c0.6,0,1.3-0.1,2-0.6c2.5-1.7,3.8-2.7,3.8-2.7s1.3-0.9,3.8-2.7c0,0,0,0,0,0l0,0C153.7,118.1,153.8,116.9,153.7,116.1z"/>
							<g>
								<path class="st17" d="M141.4,118.6c-1.3,0.9-1.5,2.1-1.3,3c0.2,0.9,0.7,1.7,1.5,2.1c0.8,0.4,1.9,0.7,3.2-0.2
									c2.5-1.7,3.8-2.7,3.8-2.7l-1.7-2.4l-1.7-2.4C145.2,115.9,143.8,116.8,141.4,118.6z"/>
								<path class="st18" d="M152.4,118c1.3-0.9,1.5-2.1,1.3-3c-0.2-0.9-0.7-1.7-1.5-2.1c-0.8-0.4-1.9-0.7-3.2,0.2
									c-2.5,1.7-3.8,2.7-3.8,2.7l1.7,2.4l1.7,2.4C148.6,120.7,149.9,119.8,152.4,118z"/>
								<path class="st19" d="M140.6,122.7c0.3,0.4,0.6,0.7,1,1c0.8,0.4,1.9,0.7,3.2-0.2c2.5-1.7,3.8-2.7,3.8-2.7l-0.5-0.8
									C142.3,124,141.3,123.4,140.6,122.7z"/>
								<path class="st20" d="M153.1,113.8c0.3,0.4,0.5,0.8,0.6,1.3c0.2,0.9,0,2-1.3,3c-2.5,1.7-3.8,2.7-3.8,2.7l-0.5-0.8
									C153.8,115.9,153.6,114.7,153.1,113.8z"/>
								<path class="st0" d="M148.8,113.8l-3.4,2.4l0.4,0.5l3.4-2.4c0.2-0.1,0.2-0.3,0.1-0.5C149.2,113.7,149,113.7,148.8,113.8z"/>
								<path class="st21" d="M141.9,118.7c-0.2,0.1-0.2,0.3-0.1,0.5c0.1,0.2,0.3,0.2,0.5,0.1l3.5-2.5l-0.4-0.5L141.9,118.7z"/>
							</g>
						</g>
						<g>
							<path class="st16" d="M153.7,129.1c0-0.1,0-0.2-0.1-0.3c0,0,0,0,0,0c0-0.1,0-0.1-0.1-0.2c0-0.1,0-0.1-0.1-0.2
								c0,0,0-0.1-0.1-0.1c0-0.1-0.1-0.1-0.1-0.2c0,0,0,0,0-0.1c0-0.1-0.1-0.2-0.2-0.2c0,0,0,0,0,0c0,0,0,0,0,0
								c-0.3-0.3-0.6-0.6-0.9-0.8c-0.8-0.4-1.9-0.7-3.2,0.2c-2.5,1.7-3.8,2.7-3.8,2.7s-1.3,0.9-3.8,2.7c-1.3,0.9-1.5,2.1-1.3,3
								c0.1,0.4,0.2,0.8,0.5,1.1l0,0l0,0c0.1,0.2,0.3,0.4,0.4,0.5c0,0,0,0,0,0c0.1,0.1,0.2,0.1,0.2,0.2c0,0,0,0,0,0
								c0.1,0.1,0.2,0.1,0.3,0.2c0.2,0.1,0.4,0.2,0.6,0.3c0,0,0.1,0,0.1,0c0.1,0,0.2,0.1,0.3,0.1c0.1,0,0.1,0,0.2,0
								c0.6,0,1.3-0.1,2-0.6c2.5-1.7,3.8-2.7,3.8-2.7s1.3-0.9,3.8-2.7c0,0,0,0,0,0l0,0C153.7,131.1,153.8,129.9,153.7,129.1z"/>
							<g>
								<path class="st17" d="M141.4,131.6c-1.3,0.9-1.5,2.1-1.3,3c0.2,0.9,0.7,1.7,1.5,2.1c0.8,0.4,1.9,0.7,3.2-0.2
									c2.5-1.7,3.8-2.7,3.8-2.7l-1.7-2.4l-1.7-2.4C145.2,128.9,143.8,129.8,141.4,131.6z"/>
								<path class="st18" d="M152.4,131c1.3-0.9,1.5-2.1,1.3-3c-0.2-0.9-0.7-1.7-1.5-2.1c-0.8-0.4-1.9-0.7-3.2,0.2
									c-2.5,1.7-3.8,2.7-3.8,2.7l1.7,2.4l1.7,2.4C148.6,133.7,149.9,132.8,152.4,131z"/>
								<path class="st19" d="M140.6,135.7c0.3,0.4,0.6,0.7,1,1c0.8,0.4,1.9,0.7,3.2-0.2c2.5-1.7,3.8-2.7,3.8-2.7l-0.5-0.8
									C142.3,137.1,141.3,136.4,140.6,135.7z"/>
								<path class="st20" d="M153.1,126.8c0.3,0.4,0.5,0.8,0.6,1.3c0.2,0.9,0,2-1.3,3c-2.5,1.7-3.8,2.7-3.8,2.7l-0.5-0.8
									C153.8,128.9,153.6,127.7,153.1,126.8z"/>
								<path class="st0" d="M148.8,126.8l-3.4,2.4l0.4,0.5l3.4-2.4c0.2-0.1,0.2-0.3,0.1-0.5C149.2,126.8,149,126.7,148.8,126.8z"/>
								<path class="st21" d="M141.9,131.7c-0.2,0.1-0.2,0.3-0.1,0.5c0.1,0.2,0.3,0.2,0.5,0.1l3.5-2.5l-0.4-0.5L141.9,131.7z"/>
							</g>
						</g>
						<g>
							<path class="st16" d="M153.7,142.1c0-0.1,0-0.2-0.1-0.3c0,0,0,0,0,0c0-0.1,0-0.1-0.1-0.2c0-0.1,0-0.1-0.1-0.2
								c0,0,0-0.1-0.1-0.1c0-0.1-0.1-0.1-0.1-0.2c0,0,0,0,0-0.1c0-0.1-0.1-0.2-0.2-0.2c0,0,0,0,0,0c0,0,0,0,0,0
								c-0.3-0.3-0.6-0.6-0.9-0.8c-0.8-0.4-1.9-0.7-3.2,0.2c-2.5,1.7-3.8,2.7-3.8,2.7s-1.3,0.9-3.8,2.7c-1.3,0.9-1.5,2.1-1.3,3
								c0.1,0.4,0.2,0.8,0.5,1.1l0,0l0,0c0.1,0.2,0.3,0.4,0.4,0.5c0,0,0,0,0,0c0.1,0.1,0.2,0.1,0.2,0.2c0,0,0,0,0,0
								c0.1,0.1,0.2,0.1,0.3,0.2c0.2,0.1,0.4,0.2,0.6,0.3c0,0,0.1,0,0.1,0c0.1,0,0.2,0.1,0.3,0.1c0.1,0,0.1,0,0.2,0
								c0.6,0,1.3-0.1,2-0.6c2.5-1.7,3.8-2.7,3.8-2.7s1.3-0.9,3.8-2.7c0,0,0,0,0,0c0,0,0,0,0,0C153.7,144.1,153.8,143,153.7,142.1z"
								/>
							<g>
								<path class="st17" d="M141.4,144.6c-1.3,0.9-1.5,2.1-1.3,3c0.2,0.9,0.7,1.7,1.5,2.1c0.8,0.4,1.9,0.7,3.2-0.2
									c2.5-1.7,3.8-2.7,3.8-2.7l-1.7-2.4l-1.7-2.4C145.2,141.9,143.8,142.8,141.4,144.6z"/>
								<path class="st18" d="M152.4,144.1c1.3-0.9,1.5-2.1,1.3-3c-0.2-0.9-0.7-1.7-1.5-2.1c-0.8-0.4-1.9-0.7-3.2,0.2
									c-2.5,1.7-3.8,2.7-3.8,2.7l1.7,2.4l1.7,2.4C148.6,146.7,149.9,145.8,152.4,144.1z"/>
								<path class="st19" d="M140.6,148.7c0.3,0.4,0.6,0.7,1,1c0.8,0.4,1.9,0.7,3.2-0.2c2.5-1.7,3.8-2.7,3.8-2.7l-0.5-0.8
									C142.3,150.1,141.3,149.4,140.6,148.7z"/>
								<path class="st20" d="M153.1,139.8c0.3,0.4,0.5,0.8,0.6,1.3c0.2,0.9,0,2-1.3,3c-2.5,1.7-3.8,2.7-3.8,2.7l-0.5-0.8
									C153.8,141.9,153.6,140.7,153.1,139.8z"/>
								<path class="st0" d="M148.8,139.8l-3.4,2.4l0.4,0.5l3.4-2.4c0.2-0.1,0.2-0.3,0.1-0.5C149.2,139.8,149,139.7,148.8,139.8z"/>
								<path class="st21" d="M141.9,144.7c-0.2,0.1-0.2,0.3-0.1,0.5c0.1,0.2,0.3,0.2,0.5,0.1l3.5-2.5l-0.4-0.5L141.9,144.7z"/>
							</g>
						</g>
						<g>
							<path class="st16" d="M153.7,155.1c0-0.1,0-0.2-0.1-0.3c0,0,0,0,0,0c0-0.1,0-0.1-0.1-0.2c0-0.1,0-0.1-0.1-0.2
								c0,0,0-0.1-0.1-0.1c0-0.1-0.1-0.1-0.1-0.2c0,0,0,0,0-0.1c0-0.1-0.1-0.2-0.2-0.2c0,0,0,0,0,0c0,0,0,0,0,0
								c-0.3-0.3-0.6-0.6-0.9-0.8c-0.8-0.4-1.9-0.7-3.2,0.2c-2.5,1.7-3.8,2.7-3.8,2.7s-1.3,0.9-3.8,2.7c-1.3,0.9-1.5,2.1-1.3,3
								c0.1,0.4,0.2,0.8,0.5,1.1l0,0l0,0c0.1,0.2,0.3,0.4,0.4,0.5c0,0,0,0,0,0c0.1,0.1,0.2,0.1,0.2,0.2c0,0,0,0,0,0
								c0.1,0.1,0.2,0.1,0.3,0.2c0.2,0.1,0.4,0.2,0.6,0.3c0,0,0.1,0,0.1,0c0.1,0,0.2,0.1,0.3,0.1c0.1,0,0.1,0,0.2,0
								c0.6,0,1.3-0.1,2-0.6c2.5-1.7,3.8-2.7,3.8-2.7s1.3-0.9,3.8-2.7c0,0,0,0,0,0c0,0,0,0,0,0C153.7,157.1,153.8,156,153.7,155.1z"
								/>
							<g>
								<path class="st17" d="M141.4,157.6c-1.3,0.9-1.5,2.1-1.3,3c0.2,0.9,0.7,1.7,1.5,2.1c0.8,0.4,1.9,0.7,3.2-0.2
									c2.5-1.7,3.8-2.7,3.8-2.7l-1.7-2.4l-1.7-2.4C145.2,154.9,143.8,155.9,141.4,157.6z"/>
								<path class="st18" d="M152.4,157.1c1.3-0.9,1.5-2.1,1.3-3c-0.2-0.9-0.7-1.7-1.5-2.1c-0.8-0.4-1.9-0.7-3.2,0.2
									c-2.5,1.7-3.8,2.7-3.8,2.7l1.7,2.4l1.7,2.4C148.6,159.7,149.9,158.8,152.4,157.1z"/>
								<path class="st19" d="M140.6,161.7c0.3,0.4,0.6,0.7,1,1c0.8,0.4,1.9,0.7,3.2-0.2c2.5-1.7,3.8-2.7,3.8-2.7l-0.5-0.8
									C142.3,163.1,141.3,162.4,140.6,161.7z"/>
								<path class="st20" d="M153.1,152.8c0.3,0.4,0.5,0.8,0.6,1.3c0.2,0.9,0,2-1.3,3c-2.5,1.7-3.8,2.7-3.8,2.7l-0.5-0.8
									C153.8,154.9,153.6,153.7,153.1,152.8z"/>
								<path class="st0" d="M148.8,152.8l-3.4,2.4l0.4,0.5l3.4-2.4c0.2-0.1,0.2-0.3,0.1-0.5C149.2,152.8,149,152.7,148.8,152.8z"/>
								<path class="st21" d="M141.9,157.7c-0.2,0.1-0.2,0.3-0.1,0.5c0.1,0.2,0.3,0.2,0.5,0.1l3.5-2.5l-0.4-0.5L141.9,157.7z"/>
							</g>
						</g>
						<g>
							<path class="st16" d="M153.7,168.1c0-0.1,0-0.2-0.1-0.3c0,0,0,0,0,0c0-0.1,0-0.1-0.1-0.2c0-0.1,0-0.1-0.1-0.2
								c0,0,0-0.1-0.1-0.1c0-0.1-0.1-0.1-0.1-0.2c0,0,0,0,0-0.1c0-0.1-0.1-0.2-0.2-0.2c0,0,0,0,0,0c0,0,0,0,0,0
								c-0.3-0.3-0.6-0.6-0.9-0.8c-0.8-0.4-1.9-0.7-3.2,0.2c-2.5,1.7-3.8,2.7-3.8,2.7s-1.3,0.9-3.8,2.7c-1.3,0.9-1.5,2.1-1.3,3
								c0.1,0.4,0.2,0.8,0.5,1.1h0c0,0,0,0,0,0c0.1,0.2,0.3,0.4,0.4,0.5c0,0,0,0,0,0c0.1,0.1,0.2,0.1,0.2,0.2c0,0,0,0,0,0
								c0.1,0.1,0.2,0.1,0.3,0.2c0.2,0.1,0.4,0.2,0.6,0.3c0,0,0.1,0,0.1,0c0.1,0,0.2,0.1,0.3,0.1c0.1,0,0.1,0,0.2,0
								c0.6,0,1.3-0.1,2-0.6c2.5-1.7,3.8-2.7,3.8-2.7s1.3-0.9,3.8-2.7c0,0,0,0,0,0l0,0C153.7,170.1,153.8,169,153.7,168.1z"/>
							<g>
								<path class="st17" d="M141.4,170.6c-1.3,0.9-1.5,2.1-1.3,3c0.2,0.9,0.7,1.7,1.5,2.1c0.8,0.4,1.9,0.7,3.2-0.2
									c2.5-1.7,3.8-2.7,3.8-2.7l-1.7-2.4l-1.7-2.4C145.2,167.9,143.8,168.9,141.4,170.6z"/>
								<path class="st18" d="M152.4,170.1c1.3-0.9,1.5-2.1,1.3-3c-0.2-0.9-0.7-1.7-1.5-2.1c-0.8-0.4-1.9-0.7-3.2,0.2
									c-2.5,1.7-3.8,2.7-3.8,2.7l1.7,2.4l1.7,2.4C148.6,172.8,149.9,171.8,152.4,170.1z"/>
								<path class="st19" d="M140.6,174.7c0.3,0.4,0.6,0.7,1,1c0.8,0.4,1.9,0.7,3.2-0.2c2.5-1.7,3.8-2.7,3.8-2.7l-0.5-0.8
									C142.3,176.1,141.3,175.5,140.6,174.7z"/>
								<path class="st20" d="M153.1,165.8c0.3,0.4,0.5,0.8,0.6,1.3c0.2,0.9,0,2-1.3,3c-2.5,1.7-3.8,2.7-3.8,2.7l-0.5-0.8
									C153.8,167.9,153.6,166.7,153.1,165.8z"/>
								<path class="st0" d="M148.8,165.8l-3.4,2.4l0.4,0.5l3.4-2.4c0.2-0.1,0.2-0.3,0.1-0.5C149.2,165.8,149,165.7,148.8,165.8z"/>
								<path class="st21" d="M141.9,170.8c-0.2,0.1-0.2,0.3-0.1,0.5c0.1,0.2,0.3,0.2,0.5,0.1l3.5-2.5l-0.4-0.5L141.9,170.8z"/>
							</g>
						</g>
					</g>
					<g>
						<g>
							<path class="st16" d="M183.5,90.1c0-0.1,0-0.2-0.1-0.3c0,0,0,0,0,0c0-0.1,0-0.1-0.1-0.2c0-0.1,0-0.1-0.1-0.2
								c0,0,0-0.1-0.1-0.1c0-0.1-0.1-0.1-0.1-0.2c0,0,0,0,0-0.1c0-0.1-0.1-0.2-0.2-0.2c0,0,0,0,0,0c0,0,0,0,0,0
								c-0.3-0.3-0.6-0.6-0.9-0.8c-0.8-0.4-1.9-0.7-3.2,0.2c-2.5,1.7-3.8,2.7-3.8,2.7s-1.3,0.9-3.8,2.7c-1.3,0.9-1.5,2.1-1.3,3
								c0.1,0.4,0.2,0.8,0.5,1.1v0l0,0c0.1,0.2,0.3,0.4,0.4,0.5c0,0,0,0,0,0c0.1,0.1,0.2,0.1,0.2,0.2c0,0,0,0,0,0
								c0.1,0.1,0.2,0.1,0.3,0.2c0.2,0.1,0.4,0.2,0.6,0.3c0,0,0.1,0,0.1,0c0.1,0,0.2,0.1,0.3,0.1c0.1,0,0.1,0,0.2,0
								c0.6,0,1.3-0.1,2-0.6c2.5-1.7,3.8-2.7,3.8-2.7s1.3-0.9,3.8-2.7l0,0c0,0,0,0,0,0C183.5,92.1,183.6,90.9,183.5,90.1z"/>
							<g>
								<path class="st17" d="M171.2,92.6c-1.3,0.9-1.5,2.1-1.3,3c0.2,0.9,0.7,1.7,1.5,2.1c0.8,0.4,1.9,0.7,3.2-0.2
									c2.5-1.7,3.8-2.7,3.8-2.7l-1.7-2.4l-1.7-2.4C175,89.9,173.6,90.8,171.2,92.6z"/>
								<path class="st18" d="M182.2,92c1.3-0.9,1.5-2.1,1.3-3c-0.2-0.9-0.7-1.7-1.5-2.1c-0.8-0.4-1.9-0.7-3.2,0.2
									c-2.5,1.7-3.8,2.7-3.8,2.7l1.7,2.4l1.7,2.4C178.4,94.7,179.7,93.8,182.2,92z"/>
								<path class="st19" d="M170.4,96.7c0.3,0.4,0.6,0.7,1,1c0.8,0.4,1.9,0.7,3.2-0.2c2.5-1.7,3.8-2.7,3.8-2.7l-0.5-0.8
									C172.1,98,171.1,97.4,170.4,96.7z"/>
								<path class="st20" d="M182.9,87.8c0.3,0.4,0.5,0.8,0.6,1.3c0.2,0.9,0,2-1.3,3c-2.5,1.7-3.8,2.7-3.8,2.7l-0.5-0.8
									C183.6,89.8,183.4,88.7,182.9,87.8z"/>
								<path class="st0" d="M178.6,87.8l-3.4,2.4l0.4,0.5l3.4-2.4c0.2-0.1,0.2-0.3,0.1-0.5S178.8,87.7,178.6,87.8z"/>
								<path class="st21" d="M171.7,92.7c-0.2,0.1-0.2,0.3-0.1,0.5c0.1,0.2,0.3,0.2,0.5,0.1l3.5-2.5l-0.4-0.5L171.7,92.7z"/>
							</g>
						</g>
						<g>
							<path class="st16" d="M183.5,103.1c0-0.1,0-0.2-0.1-0.3c0,0,0,0,0,0c0-0.1,0-0.1-0.1-0.2c0-0.1,0-0.1-0.1-0.2
								c0,0,0-0.1-0.1-0.1c0-0.1-0.1-0.1-0.1-0.2c0,0,0,0,0-0.1c0-0.1-0.1-0.2-0.2-0.2c0,0,0,0,0,0c0,0,0,0,0,0
								c-0.3-0.3-0.6-0.6-0.9-0.8c-0.8-0.4-1.9-0.7-3.2,0.2c-2.5,1.7-3.8,2.7-3.8,2.7s-1.3,0.9-3.8,2.7c-1.3,0.9-1.5,2.1-1.3,3
								c0.1,0.4,0.2,0.8,0.5,1.1l0,0l0,0c0.1,0.2,0.3,0.4,0.4,0.5c0,0,0,0,0,0c0.1,0.1,0.2,0.1,0.2,0.2c0,0,0,0,0,0
								c0.1,0.1,0.2,0.1,0.3,0.2c0.2,0.1,0.4,0.2,0.6,0.3c0,0,0.1,0,0.1,0c0.1,0,0.2,0.1,0.3,0.1c0.1,0,0.1,0,0.2,0
								c0.6,0,1.3-0.1,2-0.6c2.5-1.7,3.8-2.7,3.8-2.7s1.3-0.9,3.8-2.7l0,0c0,0,0,0,0,0C183.5,105.1,183.6,103.9,183.5,103.1z"/>
							<g>
								<path class="st17" d="M171.2,105.6c-1.3,0.9-1.5,2.1-1.3,3c0.2,0.9,0.7,1.7,1.5,2.1c0.8,0.4,1.9,0.7,3.2-0.2
									c2.5-1.7,3.8-2.7,3.8-2.7l-1.7-2.4l-1.7-2.4C175,102.9,173.6,103.8,171.2,105.6z"/>
								<path class="st18" d="M182.2,105c1.3-0.9,1.5-2.1,1.3-3c-0.2-0.9-0.7-1.7-1.5-2.1c-0.8-0.4-1.9-0.7-3.2,0.2
									c-2.5,1.7-3.8,2.7-3.8,2.7l1.7,2.4l1.7,2.4C178.4,107.7,179.7,106.8,182.2,105z"/>
								<path class="st19" d="M170.4,109.7c0.3,0.4,0.6,0.7,1,1c0.8,0.4,1.9,0.7,3.2-0.2c2.5-1.7,3.8-2.7,3.8-2.7l-0.5-0.8
									C172.1,111,171.1,110.4,170.4,109.7z"/>
								<path class="st20" d="M182.9,100.8c0.3,0.4,0.5,0.8,0.6,1.3c0.2,0.9,0,2-1.3,3c-2.5,1.7-3.8,2.7-3.8,2.7l-0.5-0.8
									C183.6,102.8,183.4,101.7,182.9,100.8z"/>
								<path class="st0" d="M178.6,100.8l-3.4,2.4l0.4,0.5l3.4-2.4c0.2-0.1,0.2-0.3,0.1-0.5S178.8,100.7,178.6,100.8z"/>
								<path class="st21" d="M171.7,105.7c-0.2,0.1-0.2,0.3-0.1,0.5c0.1,0.2,0.3,0.2,0.5,0.1l3.5-2.5l-0.4-0.5L171.7,105.7z"/>
							</g>
						</g>
						<g>
							<path class="st16" d="M183.5,116.1c0-0.1,0-0.2-0.1-0.3c0,0,0,0,0,0c0-0.1,0-0.1-0.1-0.2c0-0.1,0-0.1-0.1-0.2
								c0,0,0-0.1-0.1-0.1c0-0.1-0.1-0.1-0.1-0.2c0,0,0,0,0-0.1c0-0.1-0.1-0.2-0.2-0.2c0,0,0,0,0,0c0,0,0,0,0,0
								c-0.3-0.3-0.6-0.6-0.9-0.8c-0.8-0.4-1.9-0.7-3.2,0.2c-2.5,1.7-3.8,2.7-3.8,2.7s-1.3,0.9-3.8,2.7c-1.3,0.9-1.5,2.1-1.3,3
								c0.1,0.4,0.2,0.8,0.5,1.1v0c0,0,0,0,0,0c0.1,0.2,0.3,0.4,0.4,0.5c0,0,0,0,0,0c0.1,0.1,0.2,0.1,0.2,0.2c0,0,0,0,0,0
								c0.1,0.1,0.2,0.1,0.3,0.2c0.2,0.1,0.4,0.2,0.6,0.3c0,0,0.1,0,0.1,0c0.1,0,0.2,0.1,0.3,0.1c0.1,0,0.1,0,0.2,0
								c0.6,0,1.3-0.1,2-0.6c2.5-1.7,3.8-2.7,3.8-2.7s1.3-0.9,3.8-2.7l0,0c0,0,0,0,0,0C183.5,118.1,183.6,116.9,183.5,116.1z"/>
							<g>
								<path class="st17" d="M171.2,118.6c-1.3,0.9-1.5,2.1-1.3,3c0.2,0.9,0.7,1.7,1.5,2.1c0.8,0.4,1.9,0.7,3.2-0.2
									c2.5-1.7,3.8-2.7,3.8-2.7l-1.7-2.4l-1.7-2.4C175,115.9,173.6,116.8,171.2,118.6z"/>
								<path class="st18" d="M182.2,118c1.3-0.9,1.5-2.1,1.3-3c-0.2-0.9-0.7-1.7-1.5-2.1c-0.8-0.4-1.9-0.7-3.2,0.2
									c-2.5,1.7-3.8,2.7-3.8,2.7l1.7,2.4l1.7,2.4C178.4,120.7,179.7,119.8,182.2,118z"/>
								<path class="st19" d="M170.4,122.7c0.3,0.4,0.6,0.7,1,1c0.8,0.4,1.9,0.7,3.2-0.2c2.5-1.7,3.8-2.7,3.8-2.7l-0.5-0.8
									C172.1,124,171.1,123.4,170.4,122.7z"/>
								<path class="st20" d="M182.9,113.8c0.3,0.4,0.5,0.8,0.6,1.3c0.2,0.9,0,2-1.3,3c-2.5,1.7-3.8,2.7-3.8,2.7l-0.5-0.8
									C183.6,115.9,183.4,114.7,182.9,113.8z"/>
								<path class="st0" d="M178.6,113.8l-3.4,2.4l0.4,0.5l3.4-2.4c0.2-0.1,0.2-0.3,0.1-0.5C179,113.7,178.8,113.7,178.6,113.8z"/>
								<path class="st21" d="M171.7,118.7c-0.2,0.1-0.2,0.3-0.1,0.5c0.1,0.2,0.3,0.2,0.5,0.1l3.5-2.5l-0.4-0.5L171.7,118.7z"/>
							</g>
						</g>
						<g>
							<path class="st16" d="M183.5,129.1c0-0.1,0-0.2-0.1-0.3c0,0,0,0,0,0c0-0.1,0-0.1-0.1-0.2c0-0.1,0-0.1-0.1-0.2
								c0,0,0-0.1-0.1-0.1c0-0.1-0.1-0.1-0.1-0.2c0,0,0,0,0-0.1c0-0.1-0.1-0.2-0.2-0.2c0,0,0,0,0,0c0,0,0,0,0,0
								c-0.3-0.3-0.6-0.6-0.9-0.8c-0.8-0.4-1.9-0.7-3.2,0.2c-2.5,1.7-3.8,2.7-3.8,2.7s-1.3,0.9-3.8,2.7c-1.3,0.9-1.5,2.1-1.3,3
								c0.1,0.4,0.2,0.8,0.5,1.1v0l0,0c0.1,0.2,0.3,0.4,0.4,0.5c0,0,0,0,0,0c0.1,0.1,0.2,0.1,0.2,0.2c0,0,0,0,0,0
								c0.1,0.1,0.2,0.1,0.3,0.2c0.2,0.1,0.4,0.2,0.6,0.3c0,0,0.1,0,0.1,0c0.1,0,0.2,0.1,0.3,0.1c0.1,0,0.1,0,0.2,0
								c0.6,0,1.3-0.1,2-0.6c2.5-1.7,3.8-2.7,3.8-2.7s1.3-0.9,3.8-2.7l0,0c0,0,0,0,0,0C183.5,131.1,183.6,129.9,183.5,129.1z"/>
							<g>
								<path class="st17" d="M171.2,131.6c-1.3,0.9-1.5,2.1-1.3,3c0.2,0.9,0.7,1.7,1.5,2.1c0.8,0.4,1.9,0.7,3.2-0.2
									c2.5-1.7,3.8-2.7,3.8-2.7l-1.7-2.4l-1.7-2.4C175,128.9,173.6,129.8,171.2,131.6z"/>
								<path class="st18" d="M182.2,131c1.3-0.9,1.5-2.1,1.3-3c-0.2-0.9-0.7-1.7-1.5-2.1c-0.8-0.4-1.9-0.7-3.2,0.2
									c-2.5,1.7-3.8,2.7-3.8,2.7l1.7,2.4l1.7,2.4C178.4,133.7,179.7,132.8,182.2,131z"/>
								<path class="st19" d="M170.4,135.7c0.3,0.4,0.6,0.7,1,1c0.8,0.4,1.9,0.7,3.2-0.2c2.5-1.7,3.8-2.7,3.8-2.7l-0.5-0.8
									C172.1,137.1,171.1,136.4,170.4,135.7z"/>
								<path class="st20" d="M182.9,126.8c0.3,0.4,0.5,0.8,0.6,1.3c0.2,0.9,0,2-1.3,3c-2.5,1.7-3.8,2.7-3.8,2.7l-0.5-0.8
									C183.6,128.9,183.4,127.7,182.9,126.8z"/>
								<path class="st0" d="M178.6,126.8l-3.4,2.4l0.4,0.5l3.4-2.4c0.2-0.1,0.2-0.3,0.1-0.5S178.8,126.7,178.6,126.8z"/>
								<path class="st21" d="M171.7,131.7c-0.2,0.1-0.2,0.3-0.1,0.5c0.1,0.2,0.3,0.2,0.5,0.1l3.5-2.5l-0.4-0.5L171.7,131.7z"/>
							</g>
						</g>
						<g>
							<path class="st16" d="M183.5,142.1c0-0.1,0-0.2-0.1-0.3c0,0,0,0,0,0c0-0.1,0-0.1-0.1-0.2c0-0.1,0-0.1-0.1-0.2
								c0,0,0-0.1-0.1-0.1c0-0.1-0.1-0.1-0.1-0.2c0,0,0,0,0-0.1c0-0.1-0.1-0.2-0.2-0.2c0,0,0,0,0,0c0,0,0,0,0,0
								c-0.3-0.3-0.6-0.6-0.9-0.8c-0.8-0.4-1.9-0.7-3.2,0.2c-2.5,1.7-3.8,2.7-3.8,2.7s-1.3,0.9-3.8,2.7c-1.3,0.9-1.5,2.1-1.3,3
								c0.1,0.4,0.2,0.8,0.5,1.1v0l0,0c0.1,0.2,0.3,0.4,0.4,0.5c0,0,0,0,0,0c0.1,0.1,0.2,0.1,0.2,0.2c0,0,0,0,0,0
								c0.1,0.1,0.2,0.1,0.3,0.2c0.2,0.1,0.4,0.2,0.6,0.3c0,0,0.1,0,0.1,0c0.1,0,0.2,0.1,0.3,0.1c0.1,0,0.1,0,0.2,0
								c0.6,0,1.3-0.1,2-0.6c2.5-1.7,3.8-2.7,3.8-2.7s1.3-0.9,3.8-2.7c0,0,0,0,0,0c0,0,0,0,0,0C183.5,144.1,183.6,143,183.5,142.1z"
								/>
							<g>
								<path class="st17" d="M171.2,144.6c-1.3,0.9-1.5,2.1-1.3,3c0.2,0.9,0.7,1.7,1.5,2.1c0.8,0.4,1.9,0.7,3.2-0.2
									c2.5-1.7,3.8-2.7,3.8-2.7l-1.7-2.4l-1.7-2.4C175,141.9,173.6,142.8,171.2,144.6z"/>
								<path class="st18" d="M182.2,144.1c1.3-0.9,1.5-2.1,1.3-3c-0.2-0.9-0.7-1.7-1.5-2.1c-0.8-0.4-1.9-0.7-3.2,0.2
									c-2.5,1.7-3.8,2.7-3.8,2.7l1.7,2.4l1.7,2.4C178.4,146.7,179.7,145.8,182.2,144.1z"/>
								<path class="st19" d="M170.4,148.7c0.3,0.4,0.6,0.7,1,1c0.8,0.4,1.9,0.7,3.2-0.2c2.5-1.7,3.8-2.7,3.8-2.7l-0.5-0.8
									C172.1,150.1,171.1,149.4,170.4,148.7z"/>
								<path class="st20" d="M182.9,139.8c0.3,0.4,0.5,0.8,0.6,1.3c0.2,0.9,0,2-1.3,3c-2.5,1.7-3.8,2.7-3.8,2.7l-0.5-0.8
									C183.6,141.9,183.4,140.7,182.9,139.8z"/>
								<path class="st0" d="M178.6,139.8l-3.4,2.4l0.4,0.5l3.4-2.4c0.2-0.1,0.2-0.3,0.1-0.5C179,139.8,178.8,139.7,178.6,139.8z"/>
								<path class="st21" d="M171.7,144.7c-0.2,0.1-0.2,0.3-0.1,0.5c0.1,0.2,0.3,0.2,0.5,0.1l3.5-2.5l-0.4-0.5L171.7,144.7z"/>
							</g>
						</g>
						<g>
							<path class="st16" d="M183.5,155.1c0-0.1,0-0.2-0.1-0.3c0,0,0,0,0,0c0-0.1,0-0.1-0.1-0.2c0-0.1,0-0.1-0.1-0.2
								c0,0,0-0.1-0.1-0.1c0-0.1-0.1-0.1-0.1-0.2c0,0,0,0,0-0.1c0-0.1-0.1-0.2-0.2-0.2c0,0,0,0,0,0c0,0,0,0,0,0
								c-0.3-0.3-0.6-0.6-0.9-0.8c-0.8-0.4-1.9-0.7-3.2,0.2c-2.5,1.7-3.8,2.7-3.8,2.7s-1.3,0.9-3.8,2.7c-1.3,0.9-1.5,2.1-1.3,3
								c0.1,0.4,0.2,0.8,0.5,1.1v0l0,0c0.1,0.2,0.3,0.4,0.4,0.5c0,0,0,0,0,0c0.1,0.1,0.2,0.1,0.2,0.2c0,0,0,0,0,0
								c0.1,0.1,0.2,0.1,0.3,0.2c0.2,0.1,0.4,0.2,0.6,0.3c0,0,0.1,0,0.1,0c0.1,0,0.2,0.1,0.3,0.1c0.1,0,0.1,0,0.2,0
								c0.6,0,1.3-0.1,2-0.6c2.5-1.7,3.8-2.7,3.8-2.7s1.3-0.9,3.8-2.7l0,0c0,0,0,0,0,0C183.5,157.1,183.6,156,183.5,155.1z"/>
							<g>
								<path class="st17" d="M171.2,157.6c-1.3,0.9-1.5,2.1-1.3,3c0.2,0.9,0.7,1.7,1.5,2.1c0.8,0.4,1.9,0.7,3.2-0.2
									c2.5-1.7,3.8-2.7,3.8-2.7l-1.7-2.4l-1.7-2.4C175,154.9,173.6,155.9,171.2,157.6z"/>
								<path class="st18" d="M182.2,157.1c1.3-0.9,1.5-2.1,1.3-3c-0.2-0.9-0.7-1.7-1.5-2.1c-0.8-0.4-1.9-0.7-3.2,0.2
									c-2.5,1.7-3.8,2.7-3.8,2.7l1.7,2.4l1.7,2.4C178.4,159.7,179.7,158.8,182.2,157.1z"/>
								<path class="st19" d="M170.4,161.7c0.3,0.4,0.6,0.7,1,1c0.8,0.4,1.9,0.7,3.2-0.2c2.5-1.7,3.8-2.7,3.8-2.7l-0.5-0.8
									C172.1,163.1,171.1,162.4,170.4,161.7z"/>
								<path class="st20" d="M182.9,152.8c0.3,0.4,0.5,0.8,0.6,1.3c0.2,0.9,0,2-1.3,3c-2.5,1.7-3.8,2.7-3.8,2.7l-0.5-0.8
									C183.6,154.9,183.4,153.7,182.9,152.8z"/>
								<path class="st0" d="M178.6,152.8l-3.4,2.4l0.4,0.5l3.4-2.4c0.2-0.1,0.2-0.3,0.1-0.5C179,152.8,178.8,152.7,178.6,152.8z"/>
								<path class="st21" d="M171.7,157.7c-0.2,0.1-0.2,0.3-0.1,0.5c0.1,0.2,0.3,0.2,0.5,0.1l3.5-2.5l-0.4-0.5L171.7,157.7z"/>
							</g>
						</g>
						<g>
							<path class="st16" d="M183.5,168.1c0-0.1,0-0.2-0.1-0.3c0,0,0,0,0,0c0-0.1,0-0.1-0.1-0.2c0-0.1,0-0.1-0.1-0.2
								c0,0,0-0.1-0.1-0.1c0-0.1-0.1-0.1-0.1-0.2c0,0,0,0,0-0.1c0-0.1-0.1-0.2-0.2-0.2c0,0,0,0,0,0c0,0,0,0,0,0
								c-0.3-0.3-0.6-0.6-0.9-0.8c-0.8-0.4-1.9-0.7-3.2,0.2c-2.5,1.7-3.8,2.7-3.8,2.7s-1.3,0.9-3.8,2.7c-1.3,0.9-1.5,2.1-1.3,3
								c0.1,0.4,0.2,0.8,0.5,1.1l0,0c0,0,0,0,0,0c0.1,0.2,0.3,0.4,0.4,0.5c0,0,0,0,0,0c0.1,0.1,0.2,0.1,0.2,0.2c0,0,0,0,0,0
								c0.1,0.1,0.2,0.1,0.3,0.2c0.2,0.1,0.4,0.2,0.6,0.3c0,0,0.1,0,0.1,0c0.1,0,0.2,0.1,0.3,0.1c0.1,0,0.1,0,0.2,0
								c0.6,0,1.3-0.1,2-0.6c2.5-1.7,3.8-2.7,3.8-2.7s1.3-0.9,3.8-2.7l0,0c0,0,0,0,0,0C183.5,170.1,183.6,169,183.5,168.1z"/>
							<g>
								<path class="st17" d="M171.2,170.6c-1.3,0.9-1.5,2.1-1.3,3c0.2,0.9,0.7,1.7,1.5,2.1c0.8,0.4,1.9,0.7,3.2-0.2
									c2.5-1.7,3.8-2.7,3.8-2.7l-1.7-2.4l-1.7-2.4C175,167.9,173.6,168.9,171.2,170.6z"/>
								<path class="st18" d="M182.2,170.1c1.3-0.9,1.5-2.1,1.3-3c-0.2-0.9-0.7-1.7-1.5-2.1c-0.8-0.4-1.9-0.7-3.2,0.2
									c-2.5,1.7-3.8,2.7-3.8,2.7l1.7,2.4l1.7,2.4C178.4,172.8,179.7,171.8,182.2,170.1z"/>
								<path class="st19" d="M170.4,174.7c0.3,0.4,0.6,0.7,1,1c0.8,0.4,1.9,0.7,3.2-0.2c2.5-1.7,3.8-2.7,3.8-2.7l-0.5-0.8
									C172.1,176.1,171.1,175.5,170.4,174.7z"/>
								<path class="st20" d="M182.9,165.8c0.3,0.4,0.5,0.8,0.6,1.3c0.2,0.9,0,2-1.3,3c-2.5,1.7-3.8,2.7-3.8,2.7l-0.5-0.8
									C183.6,167.9,183.4,166.7,182.9,165.8z"/>
								<path class="st0" d="M178.6,165.8l-3.4,2.4l0.4,0.5l3.4-2.4c0.2-0.1,0.2-0.3,0.1-0.5C179,165.8,178.8,165.7,178.6,165.8z"/>
								<path class="st21" d="M171.7,170.8c-0.2,0.1-0.2,0.3-0.1,0.5c0.1,0.2,0.3,0.2,0.5,0.1l3.5-2.5l-0.4-0.5L171.7,170.8z"/>
							</g>
						</g>
					</g>
				</g>
				<g>
					<path class="st22" d="M104.1,108c-2.3-0.9-2.8-2.1-2.8-3.8c0-1.6,0-5.6,0-5.6l-13.5,0.1l-13.5-0.1c0,0,0,4,0,5.6
						c0,1.6-0.5,2.9-2.8,3.8c-2.3,0.9-8.5,1.6-8.5,7.5s0,58.8,0,62.9c0,4.1,1.9,7.7,5.6,7.7c3.8,0,19.2,0,19.2,0s15.4,0,19.2,0
						s5.6-3.6,5.6-7.7c0-4.1,0-57,0-62.9S106.4,108.8,104.1,108z"/>
					<g>
						<path class="st15" d="M99.4,92.1c-1.6,0-11.6,0-11.6,0s-10,0-11.6,0c-1.6,0-2.6,1.1-2.6,3c0,1.8,0,5.2,0,5.2h14.2H102
							c0,0,0-3.4,0-5.2C102,93.2,101,92.1,99.4,92.1z"/>
						<rect x="73.6" y="99.4" class="st23" width="28.4" height="0.8"/>
						<g>
							<path class="st23" d="M75.2,93.9c-0.2,0-0.3,0.2-0.3,0.3v6h0.7v-6C75.6,94.1,75.4,93.9,75.2,93.9z"/>
							<path class="st23" d="M76.8,93.9c-0.2,0-0.3,0.2-0.3,0.3v6h0.7v-6C77.1,94.1,77,93.9,76.8,93.9z"/>
							<path class="st23" d="M78.4,93.9c-0.2,0-0.3,0.2-0.3,0.3v6h0.7v-6C78.7,94.1,78.6,93.9,78.4,93.9z"/>
							<path class="st23" d="M79.9,93.9c-0.2,0-0.3,0.2-0.3,0.3v6h0.7v-6C80.3,94.1,80.1,93.9,79.9,93.9z"/>
							<path class="st23" d="M81.5,93.9c-0.2,0-0.3,0.2-0.3,0.3v6h0.7v-6C81.8,94.1,81.7,93.9,81.5,93.9z"/>
							<path class="st23" d="M83.1,93.9c-0.2,0-0.3,0.2-0.3,0.3v6h0.7v-6C83.4,94.1,83.3,93.9,83.1,93.9z"/>
							<path class="st23" d="M84.7,93.9c-0.2,0-0.3,0.2-0.3,0.3v6H85v-6C85,94.1,84.8,93.9,84.7,93.9z"/>
							<path class="st23" d="M86.2,93.9c-0.2,0-0.3,0.2-0.3,0.3v6h0.7v-6C86.6,94.1,86.4,93.9,86.2,93.9z"/>
							<path class="st23" d="M87.8,93.9c-0.2,0-0.3,0.2-0.3,0.3v6h0.3h0.3v-6C88.1,94.1,88,93.9,87.8,93.9z"/>
							<path class="st23" d="M89.4,93.9c-0.2,0-0.3,0.2-0.3,0.3v6h0.7v-6C89.7,94.1,89.6,93.9,89.4,93.9z"/>
							<path class="st23" d="M90.9,93.9c-0.2,0-0.3,0.2-0.3,0.3v6h0.7v-6C91.3,94.1,91.1,93.9,90.9,93.9z"/>
							<path class="st23" d="M92.5,93.9c-0.2,0-0.3,0.2-0.3,0.3v6h0.7v-6C92.8,94.1,92.7,93.9,92.5,93.9z"/>
							<path class="st23" d="M94.1,93.9c-0.2,0-0.3,0.2-0.3,0.3v6h0.7v-6C94.4,94.1,94.3,93.9,94.1,93.9z"/>
							<path class="st23" d="M95.7,93.9c-0.2,0-0.3,0.2-0.3,0.3v6H96v-6C96,94.1,95.8,93.9,95.7,93.9z"/>
							<path class="st23" d="M97.2,93.9c-0.2,0-0.3,0.2-0.3,0.3v6h0.7v-6C97.6,94.1,97.4,93.9,97.2,93.9z"/>
							<path class="st23" d="M98.8,93.9c-0.2,0-0.3,0.2-0.3,0.3v6h0.7v-6C99.1,94.1,99,93.9,98.8,93.9z"/>
							<path class="st23" d="M100.4,93.9c-0.2,0-0.3,0.2-0.3,0.3v6h0.7v-6C100.7,94.1,100.6,93.9,100.4,93.9z"/>
						</g>
					</g>
					<path class="st24" d="M102.7,104.1H72.9c-0.2,0-0.3-0.1-0.3-0.3v-1.3c0-0.2,0.1-0.3,0.3-0.3h29.8c0.2,0,0.3,0.1,0.3,0.3v1.3
						C103,104,102.8,104.1,102.7,104.1z"/>
					<rect x="63" y="128.2" class="st25" width="49.6" height="33.7"/>
					<rect x="74.3" y="100.2" class="st26" width="27" height="0.9"/>
					<path class="st26" d="M101.5,105.4c-0.1-0.4-0.1-0.8-0.1-1.2c0,0,0-0.1,0-0.1h-27c0,0,0,0.1,0,0.1c0,0.4,0,0.9-0.1,1.2H101.5z"
						/>
					<path class="st12" d="M102,112.8c1.7,1.7,2.5,1.8,2.5,6.2c0,4.4,0,49.2,0,55.8c0,6.6-0.8,10.5-5.1,11.2c3.2,0,6.1,0,7.5,0
						c3.8,0,5.6-3.6,5.6-7.7c0-4.1,0-57,0-62.9s-6.2-6.6-8.5-7.5c-1.7-0.6-2.4-1.5-2.7-2.6c-3.2,0-5.5,0-5.5,0
						C96.7,108.5,100.3,111.1,102,112.8z"/>
					<path class="st27" d="M76.5,105.4c0,0,0.6,2.8-4.6,4.3c-5.1,1.5-6.2,3.2-6.2,7.9c0,4.7,0,53.7,0,59.3c0,5.6,1.3,8.3,3,9.1h6.9
						c0,0-2-2.1-2-7.1c0-5,0-49.9,0-56.7c0-6.9,0.7-8.5,3.2-10.8c2.5-2.3,2.8-3.7,2.8-6L76.5,105.4z"/>
					<path class="st12" d="M95.8,93.8c0,1.1,0,5.1,0,6.4H96h0.9h0.7h0.9h0.7h0.9h0.7h1.3c0,0,0-0.3,0-0.8c0-1.1,0-3.1,0-4.4
						c0-1.8-0.9-3-2.6-3c-0.7,0-3,0-5.3,0C94.1,92.1,95.8,92.5,95.8,93.8z"/>
					<path class="st27" d="M76.8,92.1c0,0-1.1,0.4-1.1,1.4s0,6.7,0,6.7h3c0,0,0-4,0-5.6c0-1.6,1.3-2.5,1.7-2.5H76.8z"/>
				</g>
				<g>
					<path class="st28" d="M136.8,129.9c-1.9-0.9-3.7-2.3-3.7-3.8c0-1.5,0-8.6,0-8.6l-12-1.2l-12,1.2c0,0,0,7.1,0,8.6
						c0,1.5-1.8,2.9-3.7,3.8c-1.9,0.9-4.7,2.3-4.7,5.5c0,3.2,0,51.9,0,57.4c0,5.4,2.9,8,7,8s13.4,0,13.4,0s9.4,0,13.4,0
						c4,0,7-2.6,7-8c0-5.4,0-54.2,0-57.4C141.5,132.3,138.6,130.8,136.8,129.9z"/>
					<rect x="100.7" y="148.6" class="st29" width="40.8" height="30"/>
					<path class="st30" d="M131.8,200.8c1,0,2,0,2.7,0c4,0,7-2.6,7-8c0-5.4,0-54.2,0-57.4c0-3.2-2.8-4.7-4.7-5.5
						c-1.9-0.9-3.7-2.3-3.7-3.8c0-0.4,0-1.1,0-2c-1.8,0.7-3.4,1.2-3.4,1.2l0.1,0.8c0,0,0.7,2.4,2.8,4.3c2.1,1.8,3.7,3.9,3.7,5.7
						c0,1.9,0,49.6,0,56.4S131.8,200.8,131.8,200.8z"/>
					<path class="st29" d="M124.2,90.6h-3.1H118c0,0-2.4,9.1-10.3,12.4h13.4h13.4C126.6,99.7,124.2,90.6,124.2,90.6z"/>
					<path class="st18" d="M131.2,119.2H111c-1.8,0-3.3-1.5-3.3-3.3V103h26.9v12.8C134.5,117.7,133,119.2,131.2,119.2z"/>
					<path class="st18" d="M133.5,125.4h-25.4c-0.4,0-0.7-0.3-0.7-0.7v-3.3c0-0.4,0.3-0.7,0.7-0.7h25.4c0.4,0,0.7,0.3,0.7,0.7v3.3
						C134.3,125,133.9,125.4,133.5,125.4z"/>
					<g>
						<path class="st20" d="M108.7,117.7h-0.4c0,0-0.1,0-0.1-0.1V104c0,0,0-0.1,0.1-0.1h0.4c0,0,0.1,0,0.1,0.1L108.7,117.7
							C108.8,117.7,108.8,117.7,108.7,117.7z"/>
						<path class="st20" d="M109.8,117.7h-0.4c0,0-0.1,0-0.1-0.1V104c0,0,0-0.1,0.1-0.1h0.4c0,0,0.1,0,0.1,0.1L109.8,117.7
							C109.9,117.7,109.9,117.7,109.8,117.7z"/>
						<path class="st20" d="M111,117.7h-0.4c0,0-0.1,0-0.1-0.1V104c0,0,0-0.1,0.1-0.1h0.4c0,0,0.1,0,0.1,0.1L111,117.7
							C111.1,117.7,111,117.7,111,117.7z"/>
						<path class="st20" d="M112.1,117.7h-0.4c0,0-0.1,0-0.1-0.1V104c0,0,0-0.1,0.1-0.1h0.4c0,0,0.1,0,0.1,0.1L112.1,117.7
							C112.2,117.7,112.2,117.7,112.1,117.7z"/>
						<path class="st20" d="M113.3,117.7h-0.4c0,0-0.1,0-0.1-0.1V104c0,0,0-0.1,0.1-0.1h0.4c0,0,0.1,0,0.1,0.1L113.3,117.7
							C113.3,117.7,113.3,117.7,113.3,117.7z"/>
						<path class="st20" d="M114.4,117.7h-0.4c0,0-0.1,0-0.1-0.1V104c0,0,0-0.1,0.1-0.1h0.4c0,0,0.1,0,0.1,0.1L114.4,117.7
							C114.5,117.7,114.5,117.7,114.4,117.7z"/>
						<path class="st20" d="M115.5,117.7h-0.4c0,0-0.1,0-0.1-0.1V104c0,0,0-0.1,0.1-0.1h0.4c0,0,0.1,0,0.1,0.1L115.5,117.7
							C115.6,117.7,115.6,117.7,115.5,117.7z"/>
						<path class="st20" d="M116.7,117.7h-0.4c0,0-0.1,0-0.1-0.1V104c0,0,0-0.1,0.1-0.1h0.4c0,0,0.1,0,0.1,0.1L116.7,117.7
							C116.8,117.7,116.7,117.7,116.7,117.7z"/>
						<path class="st20" d="M117.8,117.7h-0.4c0,0-0.1,0-0.1-0.1V104c0,0,0-0.1,0.1-0.1h0.4c0,0,0.1,0,0.1,0.1L117.8,117.7
							C117.9,117.7,117.9,117.7,117.8,117.7z"/>
						<path class="st20" d="M119,117.7h-0.4c0,0-0.1,0-0.1-0.1V104c0,0,0-0.1,0.1-0.1h0.4c0,0,0.1,0,0.1,0.1L119,117.7
							C119,117.7,119,117.7,119,117.7z"/>
						<path class="st20" d="M120.1,117.7h-0.4c0,0-0.1,0-0.1-0.1V104c0,0,0-0.1,0.1-0.1h0.4c0,0,0.1,0,0.1,0.1L120.1,117.7
							C120.2,117.7,120.2,117.7,120.1,117.7z"/>
						<path class="st20" d="M121.2,117.7h-0.4c0,0-0.1,0-0.1-0.1V104c0,0,0-0.1,0.1-0.1h0.4c0,0,0.1,0,0.1,0.1L121.2,117.7
							C121.3,117.7,121.3,117.7,121.2,117.7z"/>
						<path class="st20" d="M122.4,117.7H122c0,0-0.1,0-0.1-0.1V104c0,0,0-0.1,0.1-0.1h0.4c0,0,0.1,0,0.1,0.1L122.4,117.7
							C122.5,117.7,122.4,117.7,122.4,117.7z"/>
						<path class="st20" d="M123.5,117.7h-0.4c0,0-0.1,0-0.1-0.1V104c0,0,0-0.1,0.1-0.1h0.4c0,0,0.1,0,0.1,0.1L123.5,117.7
							C123.6,117.7,123.6,117.7,123.5,117.7z"/>
						<path class="st20" d="M124.7,117.7h-0.4c0,0-0.1,0-0.1-0.1V104c0,0,0-0.1,0.1-0.1h0.4c0,0,0.1,0,0.1,0.1L124.7,117.7
							C124.7,117.7,124.7,117.7,124.7,117.7z"/>
						<path class="st20" d="M125.8,117.7h-0.4c0,0-0.1,0-0.1-0.1V104c0,0,0-0.1,0.1-0.1h0.4c0,0,0.1,0,0.1,0.1L125.8,117.7
							C125.9,117.7,125.9,117.7,125.8,117.7z"/>
						<path class="st20" d="M126.9,117.7h-0.4c0,0-0.1,0-0.1-0.1V104c0,0,0-0.1,0.1-0.1h0.4c0,0,0.1,0,0.1,0.1L126.9,117.7
							C127,117.7,127,117.7,126.9,117.7z"/>
						<path class="st20" d="M128.1,117.7h-0.4c0,0-0.1,0-0.1-0.1V104c0,0,0-0.1,0.1-0.1h0.4c0,0,0.1,0,0.1,0.1L128.1,117.7
							C128.2,117.7,128.1,117.7,128.1,117.7z"/>
						<path class="st20" d="M129.2,117.7h-0.4c0,0-0.1,0-0.1-0.1V104c0,0,0-0.1,0.1-0.1h0.4c0,0,0.1,0,0.1,0.1L129.2,117.7
							C129.3,117.7,129.3,117.7,129.2,117.7z"/>
						<path class="st20" d="M130.4,117.7H130c0,0-0.1,0-0.1-0.1V104c0,0,0-0.1,0.1-0.1h0.4c0,0,0.1,0,0.1,0.1L130.4,117.7
							C130.4,117.7,130.4,117.7,130.4,117.7z"/>
						<path class="st20" d="M131.5,117.7h-0.4c0,0-0.1,0-0.1-0.1V104c0,0,0-0.1,0.1-0.1h0.4c0,0,0.1,0,0.1,0.1L131.5,117.7
							C131.6,117.7,131.5,117.7,131.5,117.7z"/>
						<path class="st20" d="M132.6,117.7h-0.4c0,0-0.1,0-0.1-0.1V104c0,0,0-0.1,0.1-0.1h0.4c0,0,0.1,0,0.1,0.1L132.6,117.7
							C132.7,117.7,132.7,117.7,132.6,117.7z"/>
						<path class="st20" d="M133.8,117.7h-0.4c0,0-0.1,0-0.1-0.1V104c0,0,0-0.1,0.1-0.1h0.4c0,0,0.1,0,0.1,0.1L133.8,117.7
							C133.9,117.7,133.8,117.7,133.8,117.7z"/>
					</g>
					<rect x="109.1" y="119.2" class="st31" width="23.9" height="0.7"/>
					<rect x="109.1" y="125.4" class="st31" width="23.9" height="0.8"/>
					<path class="st30" d="M129.6,125.4h3.6c0.6,0,1.1-0.5,1.1-1.1v-2.6c0-0.6-0.5-1.1-1.1-1.1h-3.8l-0.1,0c0,0,0.9,0.3,0.9,0.9
						s0,1.9,0,2.7C130.2,124.9,129.7,125.3,129.6,125.4z"/>
					<path class="st30" d="M128.2,119.2h4.6c1,0,1.7-0.8,1.7-1.7V103c-7.9-3.3-10.3-12.4-10.3-12.4h-1.7c0,0,0.6,6.7,6.3,12.4
						c0,0,0,13.1,0,14.5C128.8,118.8,128.2,119.2,128.2,119.2z"/>
					<path class="st32" d="M118.5,90.6c0,0-1.7,9.5-8.2,12.4c0,0,0,12,0,13.6c0,1.6,0.8,2.6,0.8,2.6h3.2c0,0-0.9-1.2-0.9-2.6
						c0-1.4,0-13.6,0-13.6s5.2-4.2,6.1-12.4H118.5z"/>
					<path class="st33" d="M112,126.2c0,0-0.2,2.1-2.3,3.2c-2.1,1.2-4.8,2.9-4.8,5.6c0,2.6,0,50.1,0,56.3c0,6.2,2.9,9,5.3,9.6h5.7
						c0,0-4.1-1.5-4.1-9.8s0-50.1,0-55c0-4.9,1.7-5.6,2.2-7.6c0.5-1.9,0.5-2.4,0.5-2.4H112z"/>
					<path class="st0" d="M112.2,120.6c0,0-0.7,0.4-0.7,1c0,0.6,0,1.4,0,2.2c0,0.8,0.7,1.6,0.7,1.6h2.3c0,0-0.7-0.6-0.7-1.3
						c0-0.7,0-1.6,0-2.4c0-0.8,0.7-1.2,0.7-1.2H112.2z"/>
				</g>
				<g>
					<path class="st34" d="M192.5,166.6l-33.7,0.2c0,0,0.1,27.3,0.2,29.7c0,2.4,0.5,4.5,4.6,4.4c4.2,0,29.1-0.2,29.1-0.2
						s24.9-0.1,29.1-0.2c4.2,0,4.6-2.1,4.6-4.5c0-2.4-0.2-29.7-0.2-29.7L192.5,166.6z"/>
					<path class="st29" d="M197.7,172.5c-0.9,0-38.8,0.2-38.8,0.2l0.1,10.3l0.1,10.3c0,0,37.9-0.2,38.8-0.2c0.9,0,2.3-0.2,2.3-2.4
						c0-2.2,0-7.9,0-7.9s0-5.6,0-7.9C199.9,172.7,198.6,172.5,197.7,172.5z"/>
					<path class="st35" d="M158.8,166.8c0,0,0,0.7,0,2c6.7,0,51-0.3,54.1-0.3c3.4,0,3.6,1.8,3.6,3.5c0,1.7,0.1,19.8,0.1,23.5
						c0,3.7-1.2,5.2-4,5.2c4.2,0,7.7,0,9.1,0c4.2,0,4.6-2.1,4.6-4.5c0-2.4-0.2-29.7-0.2-29.7l-33.7,0.2L158.8,166.8z"/>
					<path class="st36" d="M224.4,153.3c-2,0-32,0.2-32,0.2s-29.9,0.2-32,0.2c-2,0-3.2,1-3.2,2.6c0,1.6,0.1,10.8,0.1,10.8l35.2-0.2
						l35.2-0.2c0,0,0-9.2-0.1-10.8C227.6,154.2,226.4,153.2,224.4,153.3z"/>
					
						<rect x="157.3" y="165.3" transform="matrix(1 -5.255085e-03 5.255085e-03 1 -0.8701 1.0139)" class="st7" width="70.4" height="1.5"/>
					<g>
						<path class="st7" d="M159.9,156.7c0-0.3-0.3-0.6-0.6-0.6c-0.3,0-0.6,0.3-0.6,0.6l0.1,10.1c0,0.1,0,0.2,0.1,0.2l1.1,0
							c0-0.1,0.1-0.2,0.1-0.2L159.9,156.7z"/>
						<path class="st7" d="M162.2,156.7c0-0.3-0.3-0.6-0.6-0.6c-0.3,0-0.6,0.3-0.6,0.6l0.1,10.1c0,0.1,0,0.2,0.1,0.2l1.1,0
							c0-0.1,0.1-0.2,0.1-0.2L162.2,156.7z"/>
						<path class="st7" d="M164.5,156.7c0-0.3-0.3-0.6-0.6-0.6c-0.3,0-0.6,0.3-0.6,0.6l0.1,10.1c0,0.1,0,0.2,0.1,0.2l1.1,0
							c0-0.1,0.1-0.2,0.1-0.2L164.5,156.7z"/>
						<path class="st7" d="M166.8,156.7c0-0.3-0.3-0.6-0.6-0.6c-0.3,0-0.6,0.3-0.6,0.6l0.1,10.1c0,0.1,0,0.2,0.1,0.2l1.1,0
							c0-0.1,0.1-0.2,0.1-0.2L166.8,156.7z"/>
						<path class="st7" d="M169,156.6c0-0.3-0.3-0.6-0.6-0.6c-0.3,0-0.6,0.3-0.6,0.6l0.1,10.1c0,0.1,0,0.2,0.1,0.2l1.1,0
							c0-0.1,0.1-0.2,0.1-0.2L169,156.6z"/>
						<path class="st7" d="M171.3,156.6c0-0.3-0.3-0.6-0.6-0.6c-0.3,0-0.6,0.3-0.6,0.6l0.1,10.1c0,0.1,0,0.2,0.1,0.2l1.1,0
							c0-0.1,0.1-0.2,0.1-0.2L171.3,156.6z"/>
						<path class="st7" d="M173.6,156.6c0-0.3-0.3-0.6-0.6-0.6c-0.3,0-0.6,0.3-0.6,0.6l0.1,10.1c0,0.1,0,0.2,0.1,0.2l1.1,0
							c0-0.1,0.1-0.2,0.1-0.2L173.6,156.6z"/>
						<path class="st7" d="M175.9,156.6c0-0.3-0.3-0.6-0.6-0.6c-0.3,0-0.6,0.3-0.6,0.6l0.1,10.1c0,0.1,0,0.2,0.1,0.2l1.1,0
							c0-0.1,0.1-0.2,0.1-0.2L175.9,156.6z"/>
						<path class="st7" d="M178.2,156.6c0-0.3-0.3-0.6-0.6-0.6c-0.3,0-0.6,0.3-0.6,0.6l0.1,10.1c0,0.1,0,0.2,0.1,0.2l1.1,0
							c0-0.1,0.1-0.2,0.1-0.2L178.2,156.6z"/>
						<path class="st7" d="M180.5,156.6c0-0.3-0.3-0.6-0.6-0.6c-0.3,0-0.6,0.3-0.6,0.6l0.1,10.1c0,0.1,0,0.2,0.1,0.2l1.1,0
							c0-0.1,0.1-0.2,0.1-0.2L180.5,156.6z"/>
						<path class="st7" d="M182.8,156.6c0-0.3-0.3-0.6-0.6-0.6c-0.3,0-0.6,0.3-0.6,0.6l0.1,10.1c0,0.1,0,0.2,0.1,0.2l1.1,0
							c0-0.1,0.1-0.2,0.1-0.2L182.8,156.6z"/>
						<path class="st7" d="M185,156.6c0-0.3-0.3-0.6-0.6-0.6c-0.3,0-0.6,0.3-0.6,0.6l0.1,10.1c0,0.1,0,0.2,0.1,0.2l1.1,0
							c0-0.1,0.1-0.2,0.1-0.2L185,156.6z"/>
						<path class="st7" d="M187.3,156.6c0-0.3-0.3-0.6-0.6-0.6c-0.3,0-0.6,0.3-0.6,0.6l0.1,10.1c0,0.1,0,0.2,0.1,0.2l1.1,0
							c0-0.1,0.1-0.2,0.1-0.2L187.3,156.6z"/>
						<path class="st7" d="M189.6,156.5c0-0.3-0.3-0.6-0.6-0.6c-0.3,0-0.6,0.3-0.6,0.6l0.1,10.1c0,0.1,0,0.2,0.1,0.2l1.1,0
							c0-0.1,0.1-0.2,0.1-0.2L189.6,156.5z"/>
						<path class="st7" d="M191.9,156.5c0-0.3-0.3-0.6-0.6-0.6s-0.6,0.3-0.6,0.6l0.1,10.1c0,0.1,0,0.2,0.1,0.2l1.1,0
							c0-0.1,0.1-0.2,0.1-0.2L191.9,156.5z"/>
						<path class="st7" d="M194.2,156.5c0-0.3-0.3-0.6-0.6-0.6c-0.3,0-0.6,0.3-0.6,0.6l0.1,10.1c0,0.1,0,0.2,0.1,0.2l1.1,0
							c0-0.1,0.1-0.2,0.1-0.2L194.2,156.5z"/>
						<path class="st7" d="M196.5,156.5c0-0.3-0.3-0.6-0.6-0.6c-0.3,0-0.6,0.3-0.6,0.6l0.1,10.1c0,0.1,0,0.2,0.1,0.2l1.1,0
							c0-0.1,0.1-0.2,0.1-0.2L196.5,156.5z"/>
						<path class="st7" d="M198.7,156.5c0-0.3-0.3-0.6-0.6-0.6c-0.3,0-0.6,0.3-0.6,0.6l0.1,10.1c0,0.1,0,0.2,0.1,0.2l1.1,0
							c0-0.1,0.1-0.2,0.1-0.2L198.7,156.5z"/>
						<path class="st7" d="M201,156.5c0-0.3-0.3-0.6-0.6-0.6c-0.3,0-0.6,0.3-0.6,0.6l0.1,10.1c0,0.1,0,0.2,0.1,0.2l1.1,0
							c0-0.1,0.1-0.2,0.1-0.2L201,156.5z"/>
						<path class="st7" d="M203.3,156.5c0-0.3-0.3-0.6-0.6-0.6c-0.3,0-0.6,0.3-0.6,0.6l0.1,10.1c0,0.1,0,0.2,0.1,0.2l1.1,0
							c0-0.1,0.1-0.2,0.1-0.2L203.3,156.5z"/>
						<path class="st7" d="M205.6,156.5c0-0.3-0.3-0.6-0.6-0.6c-0.3,0-0.6,0.3-0.6,0.6l0.1,10.1c0,0.1,0,0.2,0.1,0.2l1.1,0
							c0-0.1,0.1-0.2,0.1-0.2L205.6,156.5z"/>
						<path class="st7" d="M207.9,156.4c0-0.3-0.3-0.6-0.6-0.6c-0.3,0-0.6,0.3-0.6,0.6l0.1,10.1c0,0.1,0,0.2,0.1,0.2l1.1,0
							c0-0.1,0.1-0.2,0.1-0.2L207.9,156.4z"/>
						<path class="st7" d="M210.2,156.4c0-0.3-0.3-0.6-0.6-0.6c-0.3,0-0.6,0.3-0.6,0.6l0.1,10.1c0,0.1,0,0.2,0.1,0.2l1.1,0
							c0-0.1,0.1-0.2,0.1-0.2L210.2,156.4z"/>
						<path class="st7" d="M212.5,156.4c0-0.3-0.3-0.6-0.6-0.6s-0.6,0.3-0.6,0.6l0.1,10.1c0,0.1,0,0.2,0.1,0.2l1.1,0
							c0-0.1,0.1-0.2,0.1-0.2L212.5,156.4z"/>
						<path class="st7" d="M214.7,156.4c0-0.3-0.3-0.6-0.6-0.6c-0.3,0-0.6,0.3-0.6,0.6l0.1,10.1c0,0.1,0,0.2,0.1,0.2l1.1,0
							c0-0.1,0.1-0.2,0.1-0.2L214.7,156.4z"/>
						<path class="st7" d="M217,156.4c0-0.3-0.3-0.6-0.6-0.6c-0.3,0-0.6,0.3-0.6,0.6l0.1,10.1c0,0.1,0,0.2,0.1,0.2l1.1,0
							c0-0.1,0.1-0.2,0.1-0.2L217,156.4z"/>
						<path class="st7" d="M219.3,156.4c0-0.3-0.3-0.6-0.6-0.6c-0.3,0-0.6,0.3-0.6,0.6l0.1,10.1c0,0.1,0,0.2,0.1,0.2l1.1,0
							c0-0.1,0.1-0.2,0.1-0.2L219.3,156.4z"/>
						<path class="st7" d="M221.6,156.4c0-0.3-0.3-0.6-0.6-0.6c-0.3,0-0.6,0.3-0.6,0.6l0.1,10.1c0,0.1,0,0.2,0.1,0.2l1.1,0
							c0-0.1,0.1-0.2,0.1-0.2L221.6,156.4z"/>
						<path class="st7" d="M223.9,156.4c0-0.3-0.3-0.6-0.6-0.6c-0.3,0-0.6,0.3-0.6,0.6l0.1,10.1c0,0.1,0,0.2,0.1,0.2l1.1,0
							c0-0.1,0.1-0.2,0.1-0.2L223.9,156.4z"/>
						<path class="st7" d="M226.2,156.3c0-0.3-0.3-0.6-0.6-0.6c-0.3,0-0.6,0.3-0.6,0.6l0.1,10.1c0,0.1,0,0.2,0.1,0.2l1.1,0
							c0-0.1,0.1-0.2,0.1-0.2L226.2,156.3z"/>
					</g>
					<path class="st37" d="M161.7,168.7c0,0,0.1,25.5,0.1,28c0,2.5,1.8,4.2,1.8,4.2l13.2-0.1c0,0-1.8-1.1-1.9-3.6
						c0-2.5-0.1-28.5-0.1-28.5L161.7,168.7z"/>
					<path class="st30" d="M214.7,156.4c0,1.7,0,6.7,0.1,10.3l12.9-0.1c0,0,0-9.2-0.1-10.8c0-1.6-1.2-2.6-3.3-2.6
						c-0.8,0-6,0-11.9,0.1C212.4,153.3,214.7,153.6,214.7,156.4z"/>
				</g>
				<g>
					<path class="st38" d="M90.7,189.8c0-1.6,0-9.5,0-9.5s0-7.9,0-9.5c0-1.6-0.6-2.8-3.1-2.8s-23.1,0-23.1,0s-20.6,0-23.1,0
						c-2.5,0-3.1,1.2-3.1,2.8c0,1.6,0,9.5,0,9.5s0,7.9,0,9.5c0,1.6,0.6,2.8,3.1,2.8c2.5,0,23.1,0,23.1,0s20.6,0,23.1,0
						S90.7,191.4,90.7,189.8z"/>
					<g>
						<path class="st39" d="M89.8,189.8c0-1.6,0-9.5,0-9.5s0-7.9,0-9.5c0-1.6-0.6-2.8-3-2.8c-2.4,0-22.3,0-22.3,0s-19.9,0-22.3,0
							c-2.4,0-3,1.2-3,2.8c0,1.6,0,9.5,0,9.5s0,7.9,0,9.5c0,1.6,0.6,2.8,3,2.8c2.4,0,22.3,0,22.3,0s19.9,0,22.3,0
							C89.3,192.5,89.8,191.4,89.8,189.8z"/>
					</g>
					<path class="st38" d="M76.6,188.1c0-1.3,0-7.8,0-7.8s0-6.5,0-7.8c0-1.3-0.3-2.3-1.4-2.3s-10.6,0-10.6,0s-9.5,0-10.6,0
						c-1.1,0-1.4,1-1.4,2.3c0,1.3,0,7.8,0,7.8s0,6.5,0,7.8c0,1.3,0.3,2.3,1.4,2.3c1.1,0,10.6,0,10.6,0s9.5,0,10.6,0
						S76.6,189.4,76.6,188.1z"/>
					<path class="st39" d="M76.1,188.1c0-1.3,0-7.8,0-7.8s0-6.5,0-7.8c0-1.3-0.3-2.3-1.4-2.3c-1.1,0-10.2,0-10.2,0s-9.1,0-10.2,0
						c-1.1,0-1.4,1-1.4,2.3c0,1.3,0,7.8,0,7.8s0,6.5,0,7.8c0,1.3,0.3,2.3,1.4,2.3c1.1,0,10.2,0,10.2,0s9.1,0,10.2,0
						C75.8,190.4,76.1,189.4,76.1,188.1z"/>
					<path class="st40" d="M75.7,188.1c0-1.3,0-7.8,0-7.8s0-6.5,0-7.8c0-1.3-0.3-2.3-1.3-2.3s-9.8,0-9.8,0s-8.7,0-9.8,0
						s-1.3,1-1.3,2.3c0,1.3,0,7.8,0,7.8s0,6.5,0,7.8c0,1.3,0.3,2.3,1.3,2.3s9.8,0,9.8,0s8.7,0,9.8,0S75.7,189.4,75.7,188.1z"/>
					<g>
						<g>
							<circle class="st38" cx="86" cy="171.4" r="0.5"/>
							<circle class="st38" cx="86" cy="175.8" r="0.5"/>
							<circle class="st38" cx="86" cy="180.3" r="0.5"/>
							<circle class="st38" cx="86" cy="184.7" r="0.5"/>
							<path class="st38" d="M86,189.7c-0.3,0-0.5-0.2-0.5-0.5c0-0.3,0.2-0.5,0.5-0.5s0.5,0.2,0.5,0.5
								C86.5,189.4,86.3,189.7,86,189.7z"/>
						</g>
						<g>
							<path class="st38" d="M83.8,171.9c-0.3,0-0.5-0.2-0.5-0.5c0-0.3,0.2-0.5,0.5-0.5c0.3,0,0.5,0.2,0.5,0.5
								C84.3,171.7,84.1,171.9,83.8,171.9z"/>
							<path class="st38" d="M83.8,176.4c-0.3,0-0.5-0.2-0.5-0.5s0.2-0.5,0.5-0.5c0.3,0,0.5,0.2,0.5,0.5S84.1,176.4,83.8,176.4z"/>
							<path class="st38" d="M83.8,180.8c-0.3,0-0.5-0.2-0.5-0.5c0-0.3,0.2-0.5,0.5-0.5c0.3,0,0.5,0.2,0.5,0.5
								C84.3,180.6,84.1,180.8,83.8,180.8z"/>
							<path class="st38" d="M83.8,185.2c-0.3,0-0.5-0.2-0.5-0.5c0-0.3,0.2-0.5,0.5-0.5c0.3,0,0.5,0.2,0.5,0.5
								C84.3,185,84.1,185.2,83.8,185.2z"/>
							<path class="st38" d="M83.8,189.7c-0.3,0-0.5-0.2-0.5-0.5c0-0.3,0.2-0.5,0.5-0.5c0.3,0,0.5,0.2,0.5,0.5
								C84.3,189.4,84.1,189.7,83.8,189.7z"/>
						</g>
						<g>
							<circle class="st38" cx="81.6" cy="171.4" r="0.5"/>
							<circle class="st38" cx="81.6" cy="175.8" r="0.5"/>
							<circle class="st38" cx="81.6" cy="180.3" r="0.5"/>
							<circle class="st38" cx="81.6" cy="184.7" r="0.5"/>
							<path class="st38" d="M81.6,189.7c-0.3,0-0.5-0.2-0.5-0.5c0-0.3,0.2-0.5,0.5-0.5c0.3,0,0.5,0.2,0.5,0.5
								C82.1,189.4,81.9,189.7,81.6,189.7z"/>
						</g>
						<g>
							<circle class="st38" cx="79.4" cy="171.4" r="0.5"/>
							<circle class="st38" cx="79.4" cy="175.8" r="0.5"/>
							<circle class="st38" cx="79.4" cy="180.3" r="0.5"/>
							<circle class="st38" cx="79.4" cy="184.7" r="0.5"/>
							<path class="st38" d="M79.4,189.7c-0.3,0-0.5-0.2-0.5-0.5c0-0.3,0.2-0.5,0.5-0.5c0.3,0,0.5,0.2,0.5,0.5
								C80,189.4,79.7,189.7,79.4,189.7z"/>
						</g>
					</g>
					<g>
						<g>
							<circle class="st38" cx="49.7" cy="171.4" r="0.5"/>
							<circle class="st38" cx="49.7" cy="175.8" r="0.5"/>
							<circle class="st38" cx="49.7" cy="180.3" r="0.5"/>
							<circle class="st38" cx="49.7" cy="184.7" r="0.5"/>
							<path class="st38" d="M49.7,189.7c-0.3,0-0.5-0.2-0.5-0.5c0-0.3,0.2-0.5,0.5-0.5c0.3,0,0.5,0.2,0.5,0.5
								C50.2,189.4,50,189.7,49.7,189.7z"/>
						</g>
						<g>
							<circle class="st38" cx="47.5" cy="171.4" r="0.5"/>
							<circle class="st38" cx="47.5" cy="175.8" r="0.5"/>
							<circle class="st38" cx="47.5" cy="180.3" r="0.5"/>
							<circle class="st38" cx="47.5" cy="184.7" r="0.5"/>
							<path class="st38" d="M47.5,189.7c-0.3,0-0.5-0.2-0.5-0.5c0-0.3,0.2-0.5,0.5-0.5c0.3,0,0.5,0.2,0.5,0.5
								C48,189.4,47.8,189.7,47.5,189.7z"/>
						</g>
						<g>
							<circle class="st38" cx="45.3" cy="171.4" r="0.5"/>
							<circle class="st38" cx="45.3" cy="175.8" r="0.5"/>
							<circle class="st38" cx="45.3" cy="180.3" r="0.5"/>
							<circle class="st38" cx="45.3" cy="184.7" r="0.5"/>
							<path class="st38" d="M45.3,189.7c-0.3,0-0.5-0.2-0.5-0.5c0-0.3,0.2-0.5,0.5-0.5c0.3,0,0.5,0.2,0.5,0.5
								C45.9,189.4,45.6,189.7,45.3,189.7z"/>
						</g>
						<g>
							<circle class="st38" cx="43.1" cy="171.4" r="0.5"/>
							<circle class="st38" cx="43.1" cy="175.8" r="0.5"/>
							<circle class="st38" cx="43.1" cy="180.3" r="0.5"/>
							<circle class="st38" cx="43.1" cy="184.7" r="0.5"/>
							<path class="st38" d="M43.1,189.7c-0.3,0-0.5-0.2-0.5-0.5c0-0.3,0.2-0.5,0.5-0.5s0.5,0.2,0.5,0.5
								C43.7,189.4,43.4,189.7,43.1,189.7z"/>
						</g>
					</g>
				</g>
				<g>
					<path class="st38" d="M100.9,196.1c0-1.6,0-9.5,0-9.5s0-7.9,0-9.5c0-1.6-0.6-2.8-3.1-2.8s-23.1,0-23.1,0s-20.6,0-23.1,0
						c-2.5,0-3.1,1.2-3.1,2.8c0,1.6,0,9.5,0,9.5s0,7.9,0,9.5c0,1.6,0.6,2.8,3.1,2.8c2.5,0,23.1,0,23.1,0s20.6,0,23.1,0
						S100.9,197.7,100.9,196.1z"/>
					<g>
						<path class="st39" d="M100,196.1c0-1.6,0-9.5,0-9.5s0-7.9,0-9.5c0-1.6-0.6-2.8-3-2.8s-22.3,0-22.3,0s-19.9,0-22.3,0
							c-2.4,0-3,1.2-3,2.8c0,1.6,0,9.5,0,9.5s0,7.9,0,9.5c0,1.6,0.6,2.8,3,2.8c2.4,0,22.3,0,22.3,0s19.9,0,22.3,0
							S100,197.7,100,196.1z"/>
					</g>
					<path class="st38" d="M86.8,194.4c0-1.3,0-7.8,0-7.8s0-6.5,0-7.8c0-1.3-0.3-2.3-1.4-2.3c-1.1,0-10.6,0-10.6,0s-9.5,0-10.6,0
						c-1.1,0-1.4,1-1.4,2.3c0,1.3,0,7.8,0,7.8s0,6.5,0,7.8c0,1.3,0.3,2.3,1.4,2.3c1.1,0,10.6,0,10.6,0s9.5,0,10.6,0
						C86.5,196.7,86.8,195.7,86.8,194.4z"/>
					<path class="st39" d="M86.3,194.4c0-1.3,0-7.8,0-7.8s0-6.5,0-7.8c0-1.3-0.3-2.3-1.4-2.3c-1.1,0-10.2,0-10.2,0s-9.1,0-10.2,0
						s-1.4,1-1.4,2.3c0,1.3,0,7.8,0,7.8s0,6.5,0,7.8c0,1.3,0.3,2.3,1.4,2.3s10.2,0,10.2,0s9.1,0,10.2,0
						C86,196.7,86.3,195.7,86.3,194.4z"/>
					<path class="st40" d="M85.8,194.4c0-1.3,0-7.8,0-7.8s0-6.5,0-7.8c0-1.3-0.3-2.3-1.3-2.3c-1.1,0-9.8,0-9.8,0s-8.7,0-9.8,0
						s-1.3,1-1.3,2.3c0,1.3,0,7.8,0,7.8s0,6.5,0,7.8c0,1.3,0.3,2.3,1.3,2.3s9.8,0,9.8,0s8.7,0,9.8,0
						C85.6,196.7,85.8,195.7,85.8,194.4z"/>
					<g>
						<g>
							<path class="st38" d="M96.1,178.2c-0.3,0-0.5-0.2-0.5-0.5c0-0.3,0.2-0.5,0.5-0.5c0.3,0,0.5,0.2,0.5,0.5
								C96.7,178,96.4,178.2,96.1,178.2z"/>
							<path class="st38" d="M96.1,182.7c-0.3,0-0.5-0.2-0.5-0.5c0-0.3,0.2-0.5,0.5-0.5c0.3,0,0.5,0.2,0.5,0.5
								C96.7,182.4,96.4,182.7,96.1,182.7z"/>
							<circle class="st38" cx="96.1" cy="186.6" r="0.5"/>
							<circle class="st38" cx="96.1" cy="191" r="0.5"/>
							<circle class="st38" cx="96.1" cy="195.4" r="0.5"/>
						</g>
						<g>
							<path class="st38" d="M94,178.2c-0.3,0-0.5-0.2-0.5-0.5c0-0.3,0.2-0.5,0.5-0.5c0.3,0,0.5,0.2,0.5,0.5
								C94.5,178,94.3,178.2,94,178.2z"/>
							<path class="st38" d="M94,182.7c-0.3,0-0.5-0.2-0.5-0.5c0-0.3,0.2-0.5,0.5-0.5c0.3,0,0.5,0.2,0.5,0.5
								C94.5,182.4,94.3,182.7,94,182.7z"/>
							<path class="st38" d="M94,187.1c-0.3,0-0.5-0.2-0.5-0.5c0-0.3,0.2-0.5,0.5-0.5c0.3,0,0.5,0.2,0.5,0.5
								C94.5,186.9,94.3,187.1,94,187.1z"/>
							<path class="st38" d="M94,191.5c-0.3,0-0.5-0.2-0.5-0.5c0-0.3,0.2-0.5,0.5-0.5c0.3,0,0.5,0.2,0.5,0.5
								C94.5,191.3,94.3,191.5,94,191.5z"/>
							<path class="st38" d="M94,196c-0.3,0-0.5-0.2-0.5-0.5s0.2-0.5,0.5-0.5c0.3,0,0.5,0.2,0.5,0.5S94.3,196,94,196z"/>
						</g>
						<g>
							<path class="st38" d="M91.8,178.2c-0.3,0-0.5-0.2-0.5-0.5c0-0.3,0.2-0.5,0.5-0.5s0.5,0.2,0.5,0.5
								C92.3,178,92.1,178.2,91.8,178.2z"/>
							<path class="st38" d="M91.8,182.7c-0.3,0-0.5-0.2-0.5-0.5c0-0.3,0.2-0.5,0.5-0.5s0.5,0.2,0.5,0.5
								C92.3,182.4,92.1,182.7,91.8,182.7z"/>
							<circle class="st38" cx="91.8" cy="186.6" r="0.5"/>
							<circle class="st38" cx="91.8" cy="191" r="0.5"/>
							<circle class="st38" cx="91.8" cy="195.4" r="0.5"/>
						</g>
						<g>
							<path class="st38" d="M89.6,178.2c-0.3,0-0.5-0.2-0.5-0.5c0-0.3,0.2-0.5,0.5-0.5c0.3,0,0.5,0.2,0.5,0.5
								C90.1,178,89.9,178.2,89.6,178.2z"/>
							<path class="st38" d="M89.6,182.7c-0.3,0-0.5-0.2-0.5-0.5c0-0.3,0.2-0.5,0.5-0.5c0.3,0,0.5,0.2,0.5,0.5
								C90.1,182.4,89.9,182.7,89.6,182.7z"/>
							<path class="st38" d="M89.6,187.1c-0.3,0-0.5-0.2-0.5-0.5c0-0.3,0.2-0.5,0.5-0.5c0.3,0,0.5,0.2,0.5,0.5
								C90.1,186.9,89.9,187.1,89.6,187.1z"/>
							<path class="st38" d="M89.6,191.5c-0.3,0-0.5-0.2-0.5-0.5c0-0.3,0.2-0.5,0.5-0.5c0.3,0,0.5,0.2,0.5,0.5
								C90.1,191.3,89.9,191.5,89.6,191.5z"/>
							<path class="st38" d="M89.6,196c-0.3,0-0.5-0.2-0.5-0.5s0.2-0.5,0.5-0.5c0.3,0,0.5,0.2,0.5,0.5S89.9,196,89.6,196z"/>
						</g>
					</g>
					<g>
						<g>
							<path class="st38" d="M59.8,178.2c-0.3,0-0.5-0.2-0.5-0.5c0-0.3,0.2-0.5,0.5-0.5s0.5,0.2,0.5,0.5
								C60.4,178,60.1,178.2,59.8,178.2z"/>
							<path class="st38" d="M59.8,182.7c-0.3,0-0.5-0.2-0.5-0.5c0-0.3,0.2-0.5,0.5-0.5s0.5,0.2,0.5,0.5
								C60.4,182.4,60.1,182.7,59.8,182.7z"/>
							<circle class="st38" cx="59.8" cy="186.6" r="0.5"/>
							<circle class="st38" cx="59.8" cy="191" r="0.5"/>
							<circle class="st38" cx="59.8" cy="195.4" r="0.5"/>
						</g>
						<g>
							<path class="st38" d="M57.7,178.2c-0.3,0-0.5-0.2-0.5-0.5c0-0.3,0.2-0.5,0.5-0.5c0.3,0,0.5,0.2,0.5,0.5
								C58.2,178,58,178.2,57.7,178.2z"/>
							<path class="st38" d="M57.7,182.7c-0.3,0-0.5-0.2-0.5-0.5c0-0.3,0.2-0.5,0.5-0.5c0.3,0,0.5,0.2,0.5,0.5
								C58.2,182.4,58,182.7,57.7,182.7z"/>
							<path class="st38" d="M57.7,187.1c-0.3,0-0.5-0.2-0.5-0.5c0-0.3,0.2-0.5,0.5-0.5c0.3,0,0.5,0.2,0.5,0.5
								C58.2,186.9,58,187.1,57.7,187.1z"/>
							<path class="st38" d="M57.7,191.5c-0.3,0-0.5-0.2-0.5-0.5c0-0.3,0.2-0.5,0.5-0.5c0.3,0,0.5,0.2,0.5,0.5
								C58.2,191.3,58,191.5,57.7,191.5z"/>
							<path class="st38" d="M57.7,196c-0.3,0-0.5-0.2-0.5-0.5s0.2-0.5,0.5-0.5c0.3,0,0.5,0.2,0.5,0.5S58,196,57.7,196z"/>
						</g>
						<g>
							<path class="st38" d="M55.5,178.2c-0.3,0-0.5-0.2-0.5-0.5c0-0.3,0.2-0.5,0.5-0.5s0.5,0.2,0.5,0.5
								C56,178,55.8,178.2,55.5,178.2z"/>
							<path class="st38" d="M55.5,182.7c-0.3,0-0.5-0.2-0.5-0.5c0-0.3,0.2-0.5,0.5-0.5s0.5,0.2,0.5,0.5
								C56,182.4,55.8,182.7,55.5,182.7z"/>
							<circle class="st38" cx="55.5" cy="186.6" r="0.5"/>
							<circle class="st38" cx="55.5" cy="191" r="0.5"/>
							<circle class="st38" cx="55.5" cy="195.4" r="0.5"/>
						</g>
						<g>
							<path class="st38" d="M53.3,178.2c-0.3,0-0.5-0.2-0.5-0.5c0-0.3,0.2-0.5,0.5-0.5c0.3,0,0.5,0.2,0.5,0.5
								C53.9,178,53.6,178.2,53.3,178.2z"/>
							<path class="st38" d="M53.3,182.7c-0.3,0-0.5-0.2-0.5-0.5c0-0.3,0.2-0.5,0.5-0.5c0.3,0,0.5,0.2,0.5,0.5
								C53.9,182.4,53.6,182.7,53.3,182.7z"/>
							<circle class="st38" cx="53.3" cy="186.6" r="0.5"/>
							<circle class="st38" cx="53.3" cy="191" r="0.5"/>
							<circle class="st38" cx="53.3" cy="195.4" r="0.5"/>
						</g>
					</g>
				</g>
				<g>
					<g>
						
							<ellipse transform="matrix(0.7071 -0.7071 0.7071 0.7071 -68.1712 205.7648)" class="st20" cx="214.3" cy="185.2" rx="7.8" ry="7.8"/>
						<circle class="st0" cx="213.9" cy="184.8" r="7.4"/>
						<circle class="st18" cx="213.9" cy="184.8" r="7"/>
						<circle class="st18" cx="213.9" cy="184.8" r="7"/>
						<path class="st0" d="M214.8,191.7v-13.8c-0.3,0-0.6-0.1-0.8-0.1v13.9C214.2,191.8,214.5,191.7,214.8,191.7z"/>
						<path class="st20" d="M213.5,191.7c0.1,0,0.3,0,0.4,0c0.1,0,0.3,0,0.4,0v-13.9c-0.1,0-0.3,0-0.4,0c-0.1,0-0.3,0-0.4,0V191.7z"
							/>
					</g>
					<g>
						<path class="st18" d="M218.1,198.8H202c-0.5,0-0.9-0.4-0.9-0.9v-4c0-0.5,0.4-0.9,0.9-0.9h16.1c0.5,0,0.9,0.4,0.9,0.9v4
							C219,198.4,218.6,198.8,218.1,198.8z"/>
						<path class="st0" d="M219,194v-0.1c0-0.4-0.3-0.8-0.8-0.8h-16.3c-0.4,0-0.8,0.3-0.8,0.8v0.1C203.9,194,215.5,193.9,219,194z"
							/>
						<path class="st20" d="M219,197.9v0.1c0,0.4-0.3,0.8-0.8,0.8h-16.3c-0.4,0-0.8-0.3-0.8-0.8v-0.1
							C203.9,197.9,215.5,197.9,219,197.9z"/>
					</g>
					<g>
						<path class="st18" d="M219.6,204.6h-16.1c-0.5,0-0.9-0.4-0.9-0.9v-4c0-0.5,0.4-0.9,0.9-0.9h16.1c0.5,0,0.9,0.4,0.9,0.9v4
							C220.5,204.2,220.1,204.6,219.6,204.6z"/>
						<path class="st0" d="M220.5,199.8v-0.1c0-0.4-0.3-0.8-0.8-0.8h-16.3c-0.4,0-0.8,0.3-0.8,0.8v0.1
							C205.4,199.8,217,199.7,220.5,199.8z"/>
						<path class="st20" d="M220.5,203.7v0.1c0,0.4-0.3,0.8-0.8,0.8h-16.3c-0.4,0-0.8-0.3-0.8-0.8v-0.1
							C205.4,203.7,217,203.7,220.5,203.7z"/>
					</g>
					<g>
						<ellipse class="st41" cx="228.3" cy="199.3" rx="7" ry="5.2"/>
						<path class="st42" d="M234.5,198.2c0-0.7-0.2-1.3-0.5-1.9c-1.3-1.3-3.3-2.1-5.6-2.1c-3.9,0-7,2.3-7,5.2c0,0.7,0.2,1.3,0.5,1.9
							c1.3,1.3,3.3,2.1,5.6,2.1C231.3,203.3,234.5,201,234.5,198.2z"/>
						<path class="st43" d="M232.6,197.2c0.2,1.8-1.9,3.5-4.8,3.8c-2.9,0.3-5.3-0.8-5.5-2.6c-0.2-1.8,1.9-3.5,4.8-3.8
							C229.9,194.3,232.4,195.4,232.6,197.2z"/>
						<path class="st44" d="M229.2,195.5c0.1,0.4-1,0.9-2.3,1.1c-1.3,0.2-2.4,0.1-2.5-0.3c-0.1-0.4,1-0.9,2.3-1.1
							C228,195,229.1,195.1,229.2,195.5z"/>
					</g>
					<g>
						<path class="st41" d="M240.1,204.4c-2.3,1.7-6,0.5-8.3-2.7c-2.2-3.1-2.2-7,0.1-8.7c2.3-1.7,6-0.5,8.3,2.7
							C242.5,198.9,242.4,202.8,240.1,204.4z"/>
						<path class="st42" d="M240.5,203.1c0.5-0.4,1-0.9,1.3-1.5c0.3-1.8-0.2-3.9-1.6-5.8c-2.2-3.1-5.9-4.3-8.3-2.7
							c-0.5,0.4-1,0.9-1.3,1.5c-0.3,1.8,0.2,3.9,1.6,5.8C234.5,203.5,238.2,204.7,240.5,203.1z"/>
						<path class="st43" d="M240.2,201c-1.3,1.2-4,0.5-5.9-1.7c-1.9-2.1-2.4-4.8-1.1-6c1.3-1.2,4-0.5,5.9,1.7
							C241,197,241.5,199.8,240.2,201z"/>
						<path class="st44" d="M239.6,197.2c-0.3,0.3-1.3-0.3-2.2-1.2c-0.9-0.9-1.5-1.9-1.2-2.2c0.3-0.3,1.3,0.3,2.2,1.2
							C239.4,196,239.9,197,239.6,197.2z"/>
					</g>
					<g>
						<path class="st17" d="M219.8,199.2c-1.6-0.1-2.4,0.7-2.8,1.4c-0.4,0.8-0.5,1.7-0.2,2.5c0.3,0.8,1,1.7,2.6,1.8
							c3,0.2,4.5,0.3,4.5,0.3l0.2-2.9l0.2-2.9C224.3,199.5,222.7,199.4,219.8,199.2z"/>
						<path class="st45" d="M228.4,205.6c1.6,0.1,2.4-0.7,2.8-1.4c0.4-0.8,0.5-1.7,0.2-2.5c-0.3-0.8-1-1.7-2.6-1.8
							c-3-0.2-4.5-0.3-4.5-0.3l-0.2,2.9l-0.2,2.9C223.9,205.3,225.5,205.4,228.4,205.6z"/>
						<path class="st19" d="M216.6,201.9c0,0.5,0,0.9,0.2,1.4c0.3,0.8,1,1.7,2.6,1.8c3,0.2,4.5,0.3,4.5,0.3l0.1-0.9
							C217,204,216.7,202.8,216.6,201.9z"/>
						<path class="st46" d="M231.6,202.9c0,0.5-0.1,0.9-0.4,1.3c-0.4,0.8-1.2,1.6-2.8,1.4c-3-0.2-4.5-0.3-4.5-0.3l0.1-0.9
							C230.9,204.9,231.4,203.8,231.6,202.9z"/>
						<path class="st47" d="M228.4,200.2l-4.1-0.3l0,0.7l4.1,0.3c0.2,0,0.3-0.1,0.4-0.3C228.7,200.4,228.5,200.3,228.4,200.2z"/>
						<path class="st21" d="M220.1,199.7c-0.2,0-0.3,0.1-0.4,0.3c0,0.2,0.1,0.3,0.3,0.4l4.2,0.3l0-0.7L220.1,199.7z"/>
					</g>
					<g>
						<path class="st17" d="M212.5,201.3c-1.3,1-1.4,2.1-1.2,2.9c0.2,0.9,0.8,1.6,1.5,2c0.8,0.4,1.9,0.6,3.1-0.3
							c2.4-1.8,3.6-2.7,3.6-2.7l-1.7-2.3l-1.7-2.3C216.1,198.6,214.9,199.5,212.5,201.3z"/>
						<path class="st45" d="M223.2,200.4c1.3-1,1.4-2.1,1.2-2.9c-0.2-0.9-0.8-1.6-1.5-2c-0.8-0.4-1.9-0.6-3.1,0.3
							c-2.4,1.8-3.6,2.7-3.6,2.7l1.7,2.3l1.7,2.3C219.6,203.2,220.9,202.2,223.2,200.4z"/>
						<path class="st19" d="M211.8,205.3c0.3,0.4,0.6,0.7,1,0.9c0.8,0.4,1.9,0.6,3.1-0.3c2.4-1.8,3.6-2.7,3.6-2.7l-0.6-0.7
							C213.5,206.6,212.5,206,211.8,205.3z"/>
						<path class="st46" d="M223.8,196.3c0.3,0.4,0.5,0.8,0.6,1.2c0.2,0.8,0.1,2-1.2,2.9c-2.4,1.8-3.6,2.7-3.6,2.7l-0.6-0.7
							C224.6,198.3,224.3,197.1,223.8,196.3z"/>
						<path class="st47" d="M219.7,196.4l-3.3,2.5l0.4,0.5l3.3-2.5c0.1-0.1,0.2-0.3,0.1-0.5C220,196.3,219.8,196.3,219.7,196.4z"/>
						<path class="st21" d="M213,201.4c-0.1,0.1-0.2,0.3-0.1,0.5c0.1,0.1,0.3,0.2,0.5,0.1l3.3-2.5l-0.4-0.5L213,201.4z"/>
					</g>
				</g>
				<g>
					
						<ellipse transform="matrix(0.2284 -0.9736 0.9736 0.2284 -107.4172 256.4258)" class="st20" cx="108.1" cy="196" rx="7.8" ry="7.8"/>
					
						<ellipse transform="matrix(0.2285 -0.9736 0.9736 0.2285 -107.3461 255.7634)" class="st0" cx="107.7" cy="195.6" rx="7.4" ry="7.4"/>
					
						<ellipse transform="matrix(0.2161 -0.9764 0.9764 0.2161 -106.5664 258.4841)" class="st18" cx="107.7" cy="195.6" rx="7" ry="7"/>
					
						<ellipse transform="matrix(0.2161 -0.9764 0.9764 0.2161 -106.5664 258.4841)" class="st18" cx="107.7" cy="195.6" rx="7" ry="7"/>
					<path class="st0" d="M108.5,202.5v-13.8c-0.3,0-0.6-0.1-0.8-0.1v13.9C108,202.6,108.3,202.5,108.5,202.5z"/>
					<path class="st20" d="M107.3,202.5c0.1,0,0.3,0,0.4,0c0.1,0,0.3,0,0.4,0v-13.9c-0.1,0-0.3,0-0.4,0c-0.1,0-0.3,0-0.4,0V202.5z"
						/>
				</g>
				<g>
					
						<ellipse transform="matrix(0.1599 -0.9871 0.9871 0.1599 -115.3877 265.2905)" class="st41" cx="98.2" cy="200.4" rx="5.2" ry="7"/>
					<path class="st42" d="M104.4,200.3c0.1-0.7,0-1.3-0.2-2c-1.1-1.5-2.9-2.6-5.2-3c-3.8-0.6-7.3,1.2-7.7,4c-0.1,0.7,0,1.3,0.2,2
						c1.1,1.5,2.9,2.6,5.2,3C100.5,204.9,103.9,203.1,104.4,200.3z"/>
					<path class="st43" d="M102.7,199c-0.1,1.8-2.5,3.1-5.3,3s-5.1-1.7-5.1-3.5c0.1-1.8,2.5-3.1,5.3-3
						C100.5,195.7,102.7,197.2,102.7,199z"/>
					<path class="st44" d="M99.6,196.8c0,0.4-1.1,0.7-2.4,0.7c-1.3,0-2.4-0.3-2.4-0.7c0-0.4,1.1-0.7,2.4-0.7
						C98.5,196.1,99.6,196.4,99.6,196.8z"/>
				</g>
				<g>
					
						<ellipse transform="matrix(0.7174 -0.6966 0.6966 0.7174 -113.9217 117.2638)" class="st41" cx="87.6" cy="199.1" rx="7" ry="5.2"/>
					<path class="st42" d="M91.2,194c-0.5-0.5-1-0.8-1.7-1c-1.8,0-3.8,0.8-5.5,2.4c-2.8,2.7-3.4,6.5-1.4,8.6c0.5,0.5,1,0.8,1.7,1
						c1.8,0,3.8-0.8,5.5-2.4C92.5,199.9,93.2,196,91.2,194z"/>
					<path class="st43" d="M89.2,194.6c1.4,1.1,1,3.9-0.8,6.1c-1.8,2.2-4.4,3.1-5.8,2c-1.4-1.1-1-3.9,0.8-6.1
						C85.2,194.4,87.8,193.5,89.2,194.6z"/>
					<path class="st44" d="M85.6,195.7c0.3,0.2-0.1,1.3-0.9,2.4c-0.8,1.1-1.7,1.8-2,1.5c-0.3-0.2,0.1-1.3,0.9-2.4
						C84.3,196.2,85.2,195.5,85.6,195.7z"/>
				</g>
				<g>
					<path class="st17" d="M114,199.5c-1.6,0.1-2.3,1-2.6,1.8c-0.3,0.8-0.2,1.8,0.2,2.5c0.4,0.7,1.2,1.5,2.8,1.4
						c2.9-0.2,4.5-0.4,4.5-0.4l-0.2-2.9l-0.2-2.9C118.5,199.2,116.9,199.3,114,199.5z"/>
					<path class="st45" d="M123.5,204.6c1.6-0.1,2.3-1,2.6-1.8c0.3-0.8,0.2-1.8-0.2-2.5c-0.4-0.8-1.2-1.5-2.8-1.4
						c-2.9,0.2-4.5,0.4-4.5,0.4l0.2,2.9l0.2,2.9C119,205,120.6,204.8,123.5,204.6z"/>
					<path class="st19" d="M111.3,202.6c0,0.5,0.1,0.9,0.4,1.3c0.4,0.7,1.2,1.5,2.8,1.4c2.9-0.2,4.5-0.4,4.5-0.4l-0.1-0.9
						C112,204.6,111.5,203.6,111.3,202.6z"/>
					<path class="st46" d="M126.3,201.4c0.1,0.5,0,0.9-0.2,1.4c-0.3,0.8-1,1.7-2.6,1.8c-2.9,0.2-4.5,0.4-4.5,0.4l-0.1-0.9
						C125.8,203.5,126.2,202.4,126.3,201.4z"/>
					<path class="st47" d="M122.7,199.3l-4.1,0.3l0.1,0.7l4.1-0.3c0.2,0,0.3-0.2,0.3-0.4C123,199.4,122.8,199.2,122.7,199.3z"/>
					<path class="st21" d="M114.4,199.9c-0.2,0-0.3,0.2-0.3,0.4c0,0.2,0.2,0.3,0.4,0.3l4.2-0.3l-0.1-0.7L114.4,199.9z"/>
				</g>
				<g>
					<path class="st17" d="M103,205.6c-1.6-0.1-2.4,0.6-2.8,1.4c-0.4,0.8-0.5,1.7-0.2,2.5c0.3,0.8,1,1.7,2.6,1.9
						c2.9,0.3,4.5,0.4,4.5,0.4l0.3-2.9l0.3-2.9C107.5,206,105.9,205.9,103,205.6z"/>
					<path class="st45" d="M111.6,212.2c1.6,0.1,2.4-0.6,2.8-1.4c0.4-0.8,0.5-1.7,0.2-2.5c-0.3-0.8-1-1.7-2.6-1.9
						c-2.9-0.3-4.5-0.4-4.5-0.4l-0.3,2.9l-0.3,2.9C107,211.8,108.6,212,111.6,212.2z"/>
					<path class="st19" d="M99.8,208.2c-0.1,0.5,0,0.9,0.1,1.4c0.3,0.8,1,1.7,2.6,1.9c2.9,0.3,4.5,0.4,4.5,0.4l0.1-0.9
						C100.2,210.3,99.8,209.2,99.8,208.2z"/>
					<path class="st46" d="M114.8,209.5c0,0.5-0.2,0.9-0.4,1.3c-0.4,0.7-1.2,1.5-2.8,1.4c-2.9-0.3-4.5-0.4-4.5-0.4l0.1-0.9
						C114,211.5,114.6,210.5,114.8,209.5z"/>
					<path class="st47" d="M111.6,206.8l-4.1-0.4l-0.1,0.7l4.1,0.4c0.2,0,0.3-0.1,0.4-0.3C111.9,207,111.8,206.8,111.6,206.8z"/>
					<path class="st21" d="M103.3,206.1c-0.2,0-0.3,0.1-0.4,0.3c0,0.2,0.1,0.3,0.3,0.4l4.2,0.4l0.1-0.7L103.3,206.1z"/>
				</g>
				<g>
					<path class="st18" d="M91.3,208.2H75.2c-0.5,0-0.9-0.4-0.9-0.9v-4c0-0.5,0.4-0.9,0.9-0.9h16.1c0.5,0,0.9,0.4,0.9,0.9v4
						C92.2,207.8,91.8,208.2,91.3,208.2z"/>
					<path class="st0" d="M92.2,203.4v-0.1c0-0.4-0.3-0.8-0.8-0.8H75.1c-0.4,0-0.8,0.3-0.8,0.8v0.1
						C77.1,203.4,88.7,203.3,92.2,203.4z"/>
					<path class="st20" d="M92.2,207.3v0.1c0,0.4-0.3,0.8-0.8,0.8H75.1c-0.4,0-0.8-0.3-0.8-0.8v-0.1
						C77.1,207.3,88.7,207.4,92.2,207.3z"/>
				</g>
			</g>
		</g>
	</g>
</g>
</svg>
