<?xml version="1.0" encoding="utf-8"?>
<!-- Generator: Adobe Illustrator 23.0.0, SVG Export Plug-In . SVG Version: 6.00 Build 0)  -->
<svg version="1.1" id="Capa_1" xmlns="http://www.w3.org/2000/svg" xmlns:xlink="http://www.w3.org/1999/xlink" x="0px" y="0px"
	 viewBox="0 0 300 300" style="enable-background:new 0 0 300 300;" xml:space="preserve">
<style type="text/css">
	.st0{fill-rule:evenodd;clip-rule:evenodd;fill:#BD220E;}
</style>
<path class="st0" d="M123.8,26c3.4,5.5,3.9,5.5,3.9,11.4V94h5.1V37.3c0-5.5-0.1-6,2.7-11.3c3.4,5.5,3.2,5.5,3.2,11.4L140,94v7.2
	c0,4.2-6.2,6.7-11.5,8.7c-16.2,6.2,16.7,132.1,9.5,160.4c-6.2,24.6-33.9,24.5-40.1,0c-7.1-28.3,25.7-154.2,9.5-160.4
	c-5.3-2-11.5-4.5-11.5-8.7V94l1.4-56.7c0-5.5-0.1-6,2.7-11.3c3.4,5.5,3.2,5.5,3.2,11.4V94h5.1V37.3c0-5.5,0.5-6,3.3-11.3
	c3.4,5.5,3.9,5.5,3.9,11.4V94h5V37.3C120.5,31.8,121,31.3,123.8,26z"/>
<path class="st0" d="M189.5,27.2c4.2-0.1,6.4,1,7.4,3.5c3.3,8.7,1.3,26.5,1.4,36.2c0.5,33.1,0.2,81,0.9,111.9
	c-1.5,1.9-3.2,6.9-3.1,12.6c0.2,20.8,21.1,93-5.2,96.5c-3.6,0.5-6.6-1.1-9-3.1c-15.5-12.6-3.8-74.9-4.3-92.8
	c-0.7-5.2-1.3-8.8-5.2-13.4c-3-16.1-3.3-32.3-4.6-48.5c-1.2-14.7-1.3-28.3-1.2-42.4c0.2-17.9,2.2-29.9,8.7-47.7
	c1.2-3.4,3.5-8.8,8.4-11.4C185.2,27.8,187.2,27.2,189.5,27.2z"/>
</svg>
