<?xml version="1.0" encoding="utf-8"?>
<!-- Generator: Adobe Illustrator 23.0.0, SVG Export Plug-In . SVG Version: 6.00 Build 0)  -->
<svg version="1.1" id="Capa_1" xmlns="http://www.w3.org/2000/svg" xmlns:xlink="http://www.w3.org/1999/xlink" x="0px" y="0px"
	 viewBox="0 0 300 300" style="enable-background:new 0 0 300 300;" xml:space="preserve">
<g>
	<path d="M123.3,229.5c-8.5,0-15.4,6.9-15.4,15.4s6.9,15.4,15.4,15.4c8.5,0,15.4-6.9,15.4-15.4S131.8,229.5,123.3,229.5z
		 M123.3,253.7c-4.9,0-8.8-3.9-8.8-8.8s3.9-8.8,8.8-8.8c4.9,0,8.8,3.9,8.8,8.8S128.1,253.7,123.3,253.7z"/>
	<path d="M196.3,229.5c-8.5,0-15.4,6.9-15.4,15.4s6.9,15.4,15.4,15.4s15.4-6.9,15.4-15.4S204.9,229.5,196.3,229.5z M196.3,253.7
		c-4.9,0-8.8-3.9-8.8-8.8s3.9-8.8,8.8-8.8s8.8,3.9,8.8,8.8S201.2,253.7,196.3,253.7z"/>
	<path d="M213.4,194.7c0,0,3.7,0.2,5.9-6.7c2.2-6.9,20.6-60.7,20.6-60.7s0.5-6.2-6.4-5.9c-6.9,0.2-132,0.7-132,0.7l-9.7-42.6
		L64,75.8c0,0-6.7,1-2.5,8.2l22.5,4l23.3,107.7L90.5,217c0,0-2.2,5.9,2.7,7.9h125.6c0,0,3.7,1,3.7-3.7c0-4.7-4.2-5.2-4.2-5.2
		l-114.9,0.2l12.9-15.1L213.4,194.7z M221.3,131.6l7.3-0.3l-4.6,12.8h-2.8V131.6z M220.9,148.4h2.1l-2.1,3.2
		C220.9,151.6,220.9,149.5,220.9,148.4z M140.4,189.8l-14.4,0.7v-9.7h14.4V189.8z M140.4,176.5h-14.4v-10.8h14.4V176.5z
		 M159.5,176.5h-14.4v-10.8h14.4V176.5z M178,187.4l-13.8,0.6v-6.7l13.8-0.4V187.4z M202.2,131.3h14.3v12.1h-14.3V131.3z
		 M202.1,148.4h14.5v12l-14.5,0.5V148.4z M202.5,165.4h14.2l-4,11.1h-10.5L202.5,165.4z M202.1,181.3l9.2-0.4l-1.6,4.5l-7.6,0.3
		V181.3z M183.5,131.3h14.3v12.1h-14.3V131.3z M183.1,148.7h14.3v12.1h-14.3V148.7z M183.1,165.4h14.3v11.1h-14.3V165.4z
		 M183.1,181.3h14.3v4.7l-14.3,1.2C183.1,187.2,183.1,181.7,183.1,181.3z M164.2,131.3h14.3v12.1h-14.3V131.3z M164.1,148.7
		l14.4-0.2v12.6l-14.4-0.3V148.7z M163.7,165.4H178l0.5,11.1h-14.8V165.4z M145,131.9h14.3V144H145V131.9z M159.1,148.7l0.4,12.1
		l-14.4,0.3l-0.3-12.5H159.1z M144.8,180.9h14.3l0.4,7.5l-14.7,0.7V180.9z M125.8,131.3h14.3v12.1h-14.3V131.3z M125.3,148.6h15.4
		v12.6h-15.4V148.6z M103.2,131.5l17.7,0.4V144h-14.9L103.2,131.5z M107.1,149l13.8-0.4v12.3l-10.7,0.3L107.1,149z M111.1,165.7
		h10.4v10.7h-8.2L111.1,165.7z M120.9,180.9l0.6,10.4h-4.2l-2.6-10L120.9,180.9z"/>
</g>
<g>
	<rect x="147.7" y="29.6" width="31.1" height="56.5"/>
	<polygon points="130.8,86.1 197.7,86.1 163.2,114.6 	"/>
</g>
</svg>
