<?xml version="1.0" encoding="utf-8"?>
<!-- Generator: Adobe Illustrator 23.0.0, SVG Export Plug-In . SVG Version: 6.00 Build 0)  -->
<svg version="1.1" id="Capa_1" xmlns="http://www.w3.org/2000/svg" xmlns:xlink="http://www.w3.org/1999/xlink" x="0px" y="0px"
	 viewBox="0 0 300 300" style="enable-background:new 0 0 300 300;" xml:space="preserve">
<g>
	<path d="M114,140.7c0,0,0.9-1.6,2.3-4.2c6.6-12.1,25-46.2,26-50c1.2-4.7,1.5-37.8,1.5-37.8S167,34,175.7,72.8
		c8.8,38.8-2.6,43.6-2.6,43.6l7.9-0.1l55.5-5.3c6.8-0.6,12.9,4.7,13.6,12c0.8,7.3-4.1,13.7-10.8,14.3l-16.6,1.6l0.1,0.6l20.9-2
		c7.7-0.7,14.6,4.6,15.4,11.8c0.8,7.3-4.8,13.8-12.5,14.5l-1.8,0.2c5.6,0.8,10.3,5.4,11,11.6c0.8,7.3-4.2,13.7-11,14.3l-4.4,0.4
		c4.3,1.5,7.8,5.9,8.4,11.5c0.8,7.3-3.4,13.6-9.4,14.2l-34.6,3.3c-13.2,2.1-28.9,4-41.5,4c-18.8,0-30.8-3.2-40.1-5.9
		c-5.1-1.5-9.4-2.8-13.7-3.5c-1.6,0-2.3-1.4-2.3-2.3v-68.5C107.2,139.9,114,141.7,114,140.7z"/>
	<path d="M95.6,218.9c4.1,0,7.4-3.1,7.4-6.9l0-72.6c0-3.8-3.3-6.9-7.4-6.9H66.3c-4.1,0-7.4,3.1-7.4,6.9l0,72.6
		c0,3.8,3.3,6.9,7.4,6.9H95.6z"/>
</g>
</svg>
