<?xml version="1.0" encoding="utf-8"?>
<!-- Generator: Adobe Illustrator 23.0.0, SVG Export Plug-In . SVG Version: 6.00 Build 0)  -->
<svg version="1.1" id="Capa_1" xmlns="http://www.w3.org/2000/svg" xmlns:xlink="http://www.w3.org/1999/xlink" x="0px" y="0px"
	 viewBox="0 0 300 300" style="enable-background:new 0 0 300 300;" xml:space="preserve">
<style type="text/css">
	.st0{fill:#FFFFFF;}
	.st1{fill:url(#SVGID_1_);}
	.st2{fill:none;stroke:#BD220E;stroke-width:8;stroke-miterlimit:10;}
	.st3{fill-rule:evenodd;clip-rule:evenodd;fill:#000044;}
	.st4{fill-rule:evenodd;clip-rule:evenodd;fill:#A9C2C2;}
	.st5{fill:#7E9191;}
	.st6{fill-rule:evenodd;clip-rule:evenodd;}
	.st7{fill-rule:evenodd;clip-rule:evenodd;fill:#9F0B0F;}
	.st8{fill-rule:evenodd;clip-rule:evenodd;fill:#B0040A;}
	.st9{fill-rule:evenodd;clip-rule:evenodd;fill:#CA0007;}
	.st10{fill-rule:evenodd;clip-rule:evenodd;fill:#B10B09;}
	.st11{fill-rule:evenodd;clip-rule:evenodd;fill:#F1CF00;}
	.st12{fill-rule:evenodd;clip-rule:evenodd;fill:#9DC6C6;}
	.st13{fill:#EDB38C;}
	.st14{fill:#191213;}
	.st15{fill:#2E4C5E;}
	.st16{fill:#281B1C;}
	.st17{fill:#A11211;}
	.st18{fill:#CA0007;}
	.st19{fill:#3D5E77;}
	.st20{fill:#4A6D82;}
	.st21{fill:#9E5E32;}
	.st22{fill:#C19272;}
	.st23{fill:#CEEAE8;}
	.st24{fill:#B7CECC;}
	.st25{fill:#681616;}
	.st26{fill:#4C3729;}
</style>
<circle class="st0" cx="152.6" cy="151.4" r="128.4"/>
<g>
	<radialGradient id="SVGID_1_" cx="157.8453" cy="156.2209" r="96.6879" gradientUnits="userSpaceOnUse">
		<stop  offset="0" style="stop-color:#A9A6A4"/>
		<stop  offset="0.3093" style="stop-color:#ABA9A7"/>
		<stop  offset="0.4999" style="stop-color:#B3B1AF"/>
		<stop  offset="0.6584" style="stop-color:#C1BFBE"/>
		<stop  offset="0.7992" style="stop-color:#D5D3D2"/>
		<stop  offset="0.9271" style="stop-color:#EDEDEC"/>
		<stop  offset="1" style="stop-color:#FFFFFF"/>
	</radialGradient>
	<path class="st1" d="M254.5,156.2c0,53.3-43.5,96.7-96.8,96.7c-53.3-0.1-96.7-43.6-96.6-96.8c0.1-53.3,43.4-96.6,96.7-96.6
		C211.1,59.5,254.6,103,254.5,156.2"/>
	<path class="st2" d="M283.7,155.1c0,71.9-58.7,130.6-130.6,130.5c-72-0.1-130.6-58.8-130.5-130.7C22.7,83,81.2,24.6,153.1,24.5
		C225,24.5,283.7,83.2,283.7,155.1z"/>
	<g>
		<path class="st3" d="M95.2,183.8c15.1,0,27.3,12.2,27.3,27.3c0,15.1-12.2,27.3-27.3,27.3c-15.1,0-27.3-12.2-27.3-27.3
			C67.9,196,80.2,183.8,95.2,183.8 M95.2,190.8c-11.2,0-20.3,9.1-20.3,20.3s9.1,20.3,20.3,20.3c11.2,0,20.3-9.1,20.3-20.3
			S106.4,190.8,95.2,190.8"/>
		<path class="st4" d="M95.2,190.8c11.2,0,20.3,9.1,20.3,20.3s-9.1,20.3-20.3,20.3c-11.2,0-20.3-9.1-20.3-20.3S84,190.8,95.2,190.8
			 M95.2,198.4c-7,0-12.6,5.7-12.6,12.6c0,7,5.7,12.6,12.6,12.6c7,0,12.6-5.7,12.6-12.6C107.8,204.1,102.2,198.4,95.2,198.4"/>
		<path class="st5" d="M95.2,225.4c-7.9,0-14.3-6.4-14.3-14.3c0-7.9,6.4-14.3,14.3-14.3c7.9,0,14.3,6.4,14.3,14.3
			C109.6,218.9,103.1,225.4,95.2,225.4 M95.2,192.5c-10.3,0-18.6,8.3-18.6,18.6c0,10.3,8.3,18.6,18.6,18.6
			c10.3,0,18.6-8.3,18.6-18.6C113.8,200.8,105.5,192.5,95.2,192.5"/>
		<path class="st4" d="M92.7,206.5c0.3-0.2,0.7-0.3,1-0.4l0.7-8.8h0.8H96l0.7,8.8c0.4,0.1,0.7,0.2,1,0.4l6.7-5.8l0.5,0.5l0.5,0.5
			l-5.8,6.7c0.2,0.3,0.3,0.7,0.4,1l8.8,0.7v0.8v0.8l-8.8,0.7c-0.1,0.4-0.2,0.7-0.4,1l5.8,6.7l-0.5,0.5l-0.5,0.5l-6.7-5.8
			c-0.3,0.2-0.7,0.3-1,0.4l-0.7,8.8h-0.8h-0.8l-0.7-8.8c-0.4-0.1-0.7-0.2-1-0.4l-6.7,5.8l-0.5-0.5l-0.5-0.5l5.8-6.7
			c-0.2-0.3-0.3-0.7-0.4-1l-8.8-0.7V211v-0.8l8.8-0.7c0.1-0.4,0.2-0.7,0.4-1l-5.8-6.7l0.5-0.5l0.5-0.5L92.7,206.5z"/>
		<path class="st4" d="M213.1,217.2c3.4,0,6.2-2.8,6.2-6.2s-2.8-6.2-6.2-6.2s-6.2,2.8-6.2,6.2S209.7,217.2,213.1,217.2z"/>
		<path class="st4" d="M217.5,206.7c2.4,2.4,2.4,6.3,0,8.7c-2.4,2.4-6.3,2.4-8.7,0c-2.4-2.4-2.4-6.3,0-8.7
			C211.2,204.3,215.1,204.3,217.5,206.7z"/>
		<path class="st4" d="M219.3,211c0,3.4-2.8,6.2-6.2,6.2c-3.4,0-6.2-2.8-6.2-6.2c0-3.4,2.8-6.2,6.2-6.2
			C216.5,204.9,219.3,207.6,219.3,211z"/>
		<path class="st4" d="M217.5,215.4c-2.4,2.4-6.3,2.4-8.7,0c-2.4-2.4-2.4-6.3,0-8.7c2.4-2.4,6.3-2.4,8.7,0
			C219.9,209.1,219.9,213,217.5,215.4z"/>
		<path class="st4" d="M213.1,217.2c-3.4,0-6.2-2.8-6.2-6.2c0-3.4,2.8-6.2,6.2-6.2s6.2,2.8,6.2,6.2
			C219.3,214.4,216.5,217.2,213.1,217.2z"/>
		<path class="st4" d="M208.8,215.4c-2.4-2.4-2.4-6.3,0-8.7c2.4-2.4,6.3-2.4,8.7,0c2.4,2.4,2.4,6.3,0,8.7
			C215.1,217.8,211.2,217.8,208.8,215.4z"/>
		<path class="st4" d="M207,211c0-3.4,2.8-6.2,6.2-6.2c3.4,0,6.2,2.8,6.2,6.2c0,3.4-2.8,6.2-6.2,6.2C209.7,217.2,207,214.4,207,211z
			"/>
		<path class="st3" d="M213.1,183.8c15.1,0,27.3,12.2,27.3,27.3c0,15.1-12.2,27.3-27.3,27.3s-27.3-12.2-27.3-27.3
			C185.8,196,198,183.8,213.1,183.8 M213.1,190.8c-11.2,0-20.3,9.1-20.3,20.3s9.1,20.3,20.3,20.3s20.3-9.1,20.3-20.3
			S224.3,190.8,213.1,190.8"/>
		<path class="st4" d="M213.1,190.8c11.2,0,20.3,9.1,20.3,20.3s-9.1,20.3-20.3,20.3s-20.3-9.1-20.3-20.3S201.9,190.8,213.1,190.8
			 M213.1,198.4c-7,0-12.6,5.7-12.6,12.6c0,7,5.7,12.6,12.6,12.6c7,0,12.6-5.7,12.6-12.6C225.7,204.1,220.1,198.4,213.1,198.4"/>
		<path class="st5" d="M213.1,225.4c-7.9,0-14.3-6.4-14.3-14.3c0-7.9,6.4-14.3,14.3-14.3s14.3,6.4,14.3,14.3
			C227.4,218.9,221,225.4,213.1,225.4 M213.1,192.5c-10.3,0-18.6,8.3-18.6,18.6c0,10.3,8.3,18.6,18.6,18.6
			c10.3,0,18.6-8.3,18.6-18.6C231.7,200.8,223.4,192.5,213.1,192.5"/>
		<path class="st4" d="M210.6,206.5c0.3-0.2,0.7-0.3,1-0.4l0.7-8.8h0.8h0.8l0.7,8.8c0.4,0.1,0.7,0.2,1,0.4l6.7-5.8l0.5,0.5l0.5,0.5
			l-5.8,6.7c0.2,0.3,0.3,0.7,0.4,1l8.8,0.7v0.8v0.8l-8.8,0.7c-0.1,0.4-0.2,0.7-0.4,1l5.8,6.7l-0.5,0.5l-0.5,0.5l-6.7-5.8
			c-0.3,0.2-0.7,0.3-1,0.4l-0.7,8.8h-0.8h-0.8l-0.7-8.8c-0.4-0.1-0.7-0.2-1-0.4l-6.7,5.8l-0.5-0.5l-0.5-0.5l5.8-6.7
			c-0.2-0.3-0.3-0.7-0.4-1l-8.8-0.7V211v-0.8l8.8-0.7c0.1-0.4,0.2-0.7,0.4-1l-5.8-6.7l0.5-0.5l0.5-0.5L210.6,206.5z"/>
		<path class="st6" d="M189.8,176.6l4.9-2.9l20.6,36.2c0.8,1.4,0.1,2.8-1,3.9c-1.1,1.1-3.1,0.3-3.9-1L189.8,176.6z"/>
		<path class="st7" d="M213.1,176.2c3.2,0,6.3,0.4,9.2,1.2c0.9,0.2,1.5,0.9,1.8,1.8c0.2,0.9,0,1.8-0.6,2.4l-39.8,39.8
			c-0.6,0.6-1.5,0.9-2.4,0.6c-0.9-0.2-1.5-0.9-1.8-1.8c-0.8-2.9-1.2-6-1.2-9.2C178.2,191.8,193.9,176.2,213.1,176.2z"/>
		<path class="st8" d="M94.2,169.3l54.1-0.8c-10.2,20.1-10.7,34.6,0,46.7h-24.8l-1.8-1.7H62c-1.5,0-2.8-0.6-3.8-1.7
			c-1-1.1-1.4-2.5-1.2-4c2.7-20.4,15.2-35.5,35-36.5C94.3,171.1,94.6,169.9,94.2,169.3z"/>
		<path class="st9" d="M140.1,212.5h2.7c-8.3-13-5.3-27.3,1.1-41.1l-2.1,0c-1.9,0-3.5,1.1-4.2,2.9c-4.7,12-6.6,24.1-1.7,35.5
			C136.6,211.5,138.2,212.5,140.1,212.5z"/>
		<path class="st9" d="M123,214h24.1c7.7,0,18,1.1,22.8-6.9l21.2-35.1c2.7-4.5,2.7-7.9,1.3-14l-4.8-20.2c-0.4-1.8-0.6-3.2,1.1-3.2
			h2.2c2.1,0,3.9,1.4,4.4,3.5l4.3,17.6c0.9,3.6,3.8,15.3,1.9,18.5l-25.9,43.5h-1.6h-10h-41.5C122.7,216.5,122.9,215.2,123,214z"/>
		<path class="st8" d="M175,217.4H122c-0.4,0-0.6,0.3-0.6,0.6v2.4c0,0.4,0.3,0.6,0.6,0.6H175c0.4,0,0.6-0.3,0.6-0.6V218
			C175.6,217.6,175.3,217.4,175,217.4z"/>
		<path class="st9" d="M95.1,175c19.5,0,35.6,14.5,38.1,33.3c0.2,1.3-0.2,2.6-1.1,3.6c-0.9,1-2.1,1.6-3.4,1.6H61.5
			c-1.4,0-2.5-0.5-3.4-1.6c-0.9-1-1.3-2.2-1.1-3.6C59.5,189.5,75.6,175,95.1,175z"/>
		<path class="st10" d="M95.1,178.7c16.6,0,30.2,12.3,32.4,28.3c0.2,1.1-0.2,2.2-0.9,3.1c-0.1,0.1-0.2,0.2-0.3,0.3
			c-4.2-13.2-16.5-22.8-31.2-22.8c-14.6,0-27,9.6-31.2,22.8c-0.1-0.1-0.2-0.2-0.3-0.3c-0.8-0.9-1.1-1.9-0.9-3.1
			C64.9,191,78.6,178.7,95.1,178.7z"/>
		<path class="st6" d="M93.2,159.4h55.3c0.7,0,1.2,0.5,1.2,1.2v7.6c0,0.7-0.5,1.2-1.2,1.2H93.2c-0.7,0-1.2-0.5-1.2-1.2v-7.6
			C92,159.9,92.6,159.4,93.2,159.4z"/>
		<path class="st9" d="M53.3,98.8h63.7c1.2,0,2.3,1,2.3,2.3V157c0,1.2-1,2.3-2.3,2.3H53.3c-1.2,0-2.3-1-2.3-2.3v-55.9
			C51,99.9,52,98.8,53.3,98.8z"/>
		<path class="st10" d="M56.9,102.3h56.4c1.1,0,2,0.9,2,2v20.5C95.2,133,69,114,54.9,140.8v-36.5C54.9,103.2,55.8,102.3,56.9,102.3z
			"/>
		<path class="st11" d="M203.4,142.2c1.4-0.1,2.7,2.7,3.1,6.4c0.3,3.6-0.6,6.7-1.9,6.8c-1.4,0.1-2.7-2.7-3.1-6.4
			C201.1,145.3,202,142.3,203.4,142.2z"/>
		<path class="st7" d="M202.8,141.3L202.8,141.3c0.5-0.1,1,0.3,1,0.8l1.5,13c0.1,0.5-0.3,0.9-0.8,1l0,0c-4.6,0.5-8.8-2.4-9.2-6.5
			C194.8,145.6,198.2,141.8,202.8,141.3z"/>
		<path class="st12" d="M201.3,141.6l1.9,14.6c0.4,0,0.8,0,1.3-0.1l0,0c0.5-0.1,0.9-0.5,0.8-1l-1.5-13c-0.1-0.5-0.5-0.9-1-0.8l0,0
			C202.3,141.4,201.8,141.5,201.3,141.6z"/>
		<path class="st6" d="M189.9,136.2l-10-2.6c-0.5-0.1-1.1,0.2-1.2,0.7l-0.3,1c-0.1,0.5,0.2,1.1,0.7,1.2l10,2.6
			c0.5,0.1,1.1-0.2,1.2-0.7l0.3-1C190.7,136.9,190.4,136.3,189.9,136.2z"/>
		<line class="st13" x1="191.4" y1="134.5" x2="191.4" y2="134.6"/>
		<g>
			<path class="st14" d="M148.6,206.7c-0.4,0.9-0.9,1.9-1.1,2.9c-0.2,1-0.1,2.1,0.4,3c1.1,1.6,3.4,1.7,5.4,1.5
				c1-0.1,1.9-0.1,2.9-0.2c1.2-0.1,2.7-0.3,3.3-1.3c0.5-0.9,0.2-2.1-0.1-3.2c-0.7-2.4-1.1-4.8-1-7.3c0-0.7,0-1.5-0.2-2.2
				c-0.4-1-1.3-1.6-2.3-1.9c-2.2-0.6-3.9-0.6-4.5,1.6C150.5,202.1,149.7,204.4,148.6,206.7z"/>
			<path class="st15" d="M156.3,173.5c0.5,0.5,1,1.1,1.2,1.8c0.2,0.7,0,1.4-0.2,2c-0.9,2.9-2.7,5.5-2.9,8.5
				c-0.1,0.9,0.1,1.8-0.1,2.7c-0.2,1-0.7,1.9-1.2,2.8c-0.7,1.1-1.4,2.3-2,3.4c-0.4,0.7-0.9,1.5-0.8,2.3c0.1,1.6,1.8,2.4,3.3,2.9
				c0.9,0.3,1.9,0.5,2.6-0.2c0.3-0.3,0.4-0.6,0.5-1c2.6-7.6,5.1-15.3,7.7-22.9c0.6-1.9,1.3-4,0.6-5.9c-0.8-2.1-2.9-3.2-4.9-4.2
				c-1.8-0.9-3.7-1.8-5.5-2.7c-1.6-0.8-3.8-1.5-5-0.1c-1.7,1.9-0.1,3.4,1.3,4.5C152.7,169.1,154.5,171.6,156.3,173.5z"/>
			<path class="st16" d="M152.5,207.4c-0.6,1.6-1.3,3.3-1.1,5c0,0.4,0.1,0.8,0.4,1c0.2,0.2,0.6,0.3,0.9,0.4
				c5.4,1.4,11.1,1.7,16.6,0.6c0.8-0.1,1.6-0.3,2.3-0.8c0.6-0.5,1-1.4,0.7-2.1c-0.4-0.9-1.6-1.1-2.6-1.2c-1.8-0.2-3.6-0.5-5.1-1.4
				c-1.6-0.9-2.8-2.5-2.8-4.2c0-1.4,0.6-3-0.4-3.9c-0.5-0.4-1.2-0.5-1.8-0.5c-2.1-0.1-3.3-0.6-4.5,1
				C153.7,202.7,153.1,205.7,152.5,207.4z"/>
			<path class="st17" d="M125.2,118.2c-4.6,8.6-6.9,18.3-9.2,27.8c-0.2,0.8-0.4,1.7-0.2,2.6c0.2,0.8,1.1,1.6,1.9,1.4
				c0,0.8,0,1.6,0,2.5c1.1,1.7,3.2,2.5,5.2,2.7c2,0.2,4-0.2,6-0.7c4.3-0.9,8.5-1.8,12.8-2.7c0.9-0.2,1.8-0.4,2.3-1.1
				c0.5-0.7,0.3-2-0.5-2.1c3-0.5,4.3-4.1,5-7.1c0.7-3,1.4-6,2.1-9c1.1-4.8,2.3-9.6,2.3-14.5c0-3.6-0.3-7.8,2.3-10.3
				c0.8-0.8,1.9-1.4,2.3-2.5c0.6-1.6-0.7-3.3-1.8-4.6c-1.5-1.7-3.1-3.3-4.6-5c-0.2-0.3-0.5-0.6-0.9-0.6c-0.4,0-0.8,0.3-1.1,0.6
				c-2.2,2.4-3.7,3.4-6.6,4.8c-2.6,1.3-5,2.9-7.1,4.8C131.6,108.4,127.2,113.3,125.2,118.2z"/>
			<path class="st17" d="M133.4,124.6c-0.6,5.4,0.7,11.3,4.7,15c2.7,2.5,6.3,3.7,10,4.1c3.6,0.4,7.3,0,11-0.3
				c0.2-0.4,0.5-0.8,0.7-1.2c0.9,0.3,1.7,0.6,2.6,0.9c0.3-0.4,0.6-0.8,0.9-1.1c0.3,0.9,1.4,1.5,2.3,1.2c0.3-2.5,1-5,2.2-7.2
				c-6.6-1.3-13.3-2.6-19.4-5.6c-1-0.5-2-1-3.1-0.7c0.8-4.4,1-8.9,0.6-13.4c-0.2-2.1-0.5-4.4-1.9-6
				C137.8,102.6,133.8,121.1,133.4,124.6z"/>
			<path class="st18" d="M146.4,113.5c-0.2-1-0.4-2.1-0.8-3c-0.5-1-1.5-1.9-2.5-1.6c-1.3,0.4-1.3,2.2-1.1,3.5
				c0.6,3.8,1.2,7.6,1.9,11.4c0.4,2.7,0.9,5.5,0,8.1c0.6-0.1,1.2-0.1,1.8-0.2c0,0.6,0.1,1.3,0.1,1.9c4.5,1.3,9.1,2.2,13.8,2.6
				c-0.1-1.7-2.2-2.4-3.9-2.8c-2-0.5-4.1-1.1-6-2c-2.3-1.2-2-1.6-2-4.2C147.6,122.6,147.2,118,146.4,113.5z"/>
			<path class="st18" d="M153.3,107.1c1-0.7,1.9-1.6,2.7-2.5c-0.8-1-1.6-2-2.4-3c-0.1-0.2-0.3-0.3-0.4-0.4c-0.3-0.2-0.7,0-1,0.2
				c-0.7,0.6-0.8,1.8-0.5,2.7c0.4,0.9,1.1,1.6,1.8,2.3"/>
			<path class="st18" d="M143.9,147.9c-0.8,0.7-2.1,0.7-3.2,0.7c-0.5,0-1.1-0.1-1.6-0.3c-0.5-0.3-0.7-0.9-0.5-1.4
				c0.3-0.4,0.9-0.5,1.4-0.6c0.7,0,1.5-0.1,2.2-0.3c0.7-0.3,1.3-0.8,1.5-1.5c0.6-0.3,1.4,0.1,1.6,0.7c0.2,0.6-0.1,1.3-0.5,1.8
				c-0.4,0.5-1,0.8-1.6,1.1"/>
			<path class="st19" d="M123.3,160.6c2.9,1.6,6.2,2.1,9.5,2.4c3.6,0.4,7.3,0.8,10.9,1.3c5,0.6,10.7,1.5,13.7,5.5
				c0.3,0.4,0.6,0.9,1.2,1c0.6,0.1,1.1-0.2,1.7-0.4c0.6-0.2,1.3,0,1.4,0.6c-0.6,0.5-0.9,1.4-0.9,2.2c0.4-0.1,0.8-0.1,1.2-0.2
				c0.2,1-0.4,2-1,2.8c-1.7,2.7-2.8,5.8-3.1,9c-0.2,2.3-0.1,4.7-1.2,6.7c-0.5,0.9-1.3,1.6-1.9,2.5c-0.5,0.8-0.8,1.7-0.9,2.7
				c-0.2,3.1,2.7,6.2,5.8,6c3.2-0.3,5.4-3.3,6.9-6.2c4.7-8.6,8.2-18.1,9.3-27.9c0.2-1.6,0.3-3.3-0.2-4.9c-1.1-3.5-4.9-5.4-8.3-6.7
				c-5.8-2.3-11.8-4.4-17.7-6.2c-1.6-0.5-3.3-1-5-1.1c-1.5-0.1-3,0.1-4.5,0.3c-5.8,0.8-11.6,1.5-17.4,2.3c-2.7,0.4-4.9-0.1-3.9,3.2
				C119.6,157.7,121.4,159.5,123.3,160.6z"/>
			<path class="st20" d="M162.3,160.1c1.7,0.7,3.5,1.4,4.9,2.6c3.2,3,3,8.3,1.6,12.5c-1.4,4.2-3.6,8.3-3.6,12.7
				c0.7,0.6,1.6-0.3,2-1.1c3-5.7,5-12,5.7-18.4c0.2-1.7,0.3-3.5-0.6-5c-0.8-1.2-2.1-2-3.5-2.6c-6.7-3.3-15.2-7.9-22.7-8.7
				C145.9,155.6,159.5,159,162.3,160.1z"/>
			<path class="st13" d="M171.6,142.3c0.7,0,1.3,0,2-0.1c2.5-0.6,3.9-3.4,6.3-4.1c0.2,0,0.3-0.1,0.5,0c0.2,0,0.4,0.2,0.5,0.4
				c0.4,0.4,0.7,0.9,1.2,1.3c0.5,0.4,1.1,0.5,1.7,0.3c0.5-0.3,0.7-1.1,0.2-1.5c0.2,0.5,0.9,0.8,1.4,0.5c0.5-0.3,0.7-1,0.5-1.5
				c0.2,0.4,0.8,0.6,1.2,0.5c0.5-0.1,0.8-0.5,0.9-1c0.1-0.7-0.5-1.3-0.9-1.8c-0.7-0.8-1.2-1.6-1.9-2.3c-0.7-0.7-1.6-1.3-2.6-1.5
				c-0.8-0.1-1.6,0.1-2.4,0.4c-1.7,0.6-3.4,1.3-5,2.2c-1.3,0.7-2.5,1.5-3.8,2c-1.3,0.6-2.8,0.9-4.2,0.6c-0.9-0.2-2.1,4.5-1.7,5.2
				c0.3,0.6,1.9,0.3,2.6,0.3C169.2,142.2,170.4,142.2,171.6,142.3z"/>
			<path class="st13" d="M176.7,87.8c0.6,1,2.1,1.4,2.6,2.5c-1.7,0.7-3.2,2.1-3.8,3.9c-0.7,2.1-0.4,4.7-2,6.3
				c-1.4,1.5-3.7,1.6-5.6,1.1c-1.9-0.5-3.8-1.4-5.8-1.6c-2.5-0.3-5.1,0.7-6.8,2.5c-0.4,0.4-0.9,0.9-1.4,0.8
				c-0.4-0.1-0.7-0.4-0.9-0.7c-1-1.3-1.9-2.6-2.9-3.9c1.4-1.5,2.1-3.5,2.1-5.5c0-1.6-0.5-3.1-0.6-4.7c-0.4-5.7,4.6-10.8,10.1-12.2
				c4.4-1.1,11.7-0.6,15.4,2.1C180.9,81.3,174.7,84.7,176.7,87.8z"/>
			<path class="st21" d="M173,81.7c0.3,0.7-0.7,1.2-1.4,1.2c-1.4,0-2.8-0.6-4.2-0.7c-1.4-0.1-3.1,0.4-3.6,1.7
				c-0.3,0.9,0,1.9,0.1,2.8c0.1,1-0.1,2.1-1,2.5c-0.8-1-0.5-2.6-1.5-3.5c-0.8-0.7-2.1-0.5-3.1,0c-0.8,0.4-1.6,0.9-2,1.7
				c-1,1.9,0.8,4.2,0.1,6.2c-0.2,0.7-0.7,1.2-1.2,1.7c-0.6,0.6-1.2,1.3-2,1.6c-0.8,0.3-1.8,0.3-2.4-0.3c-1.1-1-0.5-2.8-0.8-4.2
				c-0.3-1.5-1.6-2.7-1.9-4.2c-0.2-0.8,0-1.7,0.2-2.5c0.5-2.1,1.1-4.3,2.2-6.2c1.9-3.1,5.1-5.2,8.6-6.1c3.5-1,7.2-0.9,10.7-0.3
				c1.5,0.3,3.1,0.6,4.5,1.4c1.6,0.9,3,2.5,4.9,2.4c-0.5,0.4-1.1,0.8-1.7,1c0.9,0.4,1.6,1,2.3,1.7c-0.2,0.4-0.7,0.6-1.2,0.7
				c0.5,0.8,0.2,2.2-0.9,2.3c-0.8,0.1-1.7-0.8-2.4-0.9c0.2,0.1,0.4,0.4,0.6,0.5C175.3,82.4,173.3,82.4,173,81.7z"/>
			<path class="st22" d="M160.4,90.5c0,0.1-0.1,0.1-0.2,0.1c-0.1-0.1-0.1-0.2-0.1-0.2c-0.1-0.4-0.2-0.7-0.1-1.1
				c0.1-0.3,0.6-0.6,0.9-0.4c0.3-0.6,0.1-1.3-0.4-1.8c-0.5-0.4-1.3-0.4-1.8-0.1c-0.4,0.3-0.7,0.8-0.9,1.3c-0.1,0.4-0.3,0.8-0.2,1.2
				c0.1,0.3,0.3,0.6,0.5,0.9c0.2,0.3,0.5,0.7,0.7,1c0.2,0.3,0.5,0.7,0.9,0.7c0.4,0,0.7-0.4,0.8-0.8c0.1-0.4,0-0.8-0.2-1.2"/>
			<path class="st23" d="M175.4,89.1c0.6-0.3,1.3-0.6,2-0.5c1.1,0.2,1.7,1.4,1.6,2.4c-0.1,1.1-0.6,2-1.2,3c-0.9,1.6-1.9,3.1-2.8,4.7
				c-0.6,1-1.3,2.1-2.4,2.8c-1.3,0.8-3,0.8-4.4,0.3c-1.5-0.5-2.7-1.4-4-2.2c0.1-0.8,0.9-1.3,1.4-1.9c1.1-1.2,1.3-2.9,1.2-4.5
				c-0.3-2.5,1.2-1.9,3.2-2.3C171.9,90.5,173.7,89.9,175.4,89.1z"/>
			<path class="st23" d="M162.2,88.2c1.9,1.4,3.8,2.6,5.8,3.7c0.3,0.2,0.6-0.3,0.3-0.5c-2-1.1-4-2.4-5.8-3.7
				C162.2,87.5,161.9,88,162.2,88.2z"/>
			<path class="st23" d="M156.2,93.3c3.1,2.1,6.1,4.2,9.1,6.5c0.3,0.2,0.6-0.3,0.3-0.5c-3-2.2-6-4.4-9.1-6.5
				C156.2,92.6,155.9,93.1,156.2,93.3z"/>
			<path class="st24" d="M168.5,94.7c0-0.6,0-1.2,0.4-1.6c0.4-0.5,1.1-0.7,1.7-0.9c1.1-0.3,2.2-0.8,3.2-1.3c0.2-0.1,0.4-0.2,0.6-0.2
				c0.5,0,0.8,0.5,0.8,1c0,0.5-0.3,0.9-0.5,1.3l0,0.3c0,0.1,0.1,0.2,0.2,0.2c0.4,0.3,0.4,0.9,0.1,1.3c-0.3,0.4-0.8,0.6-1.3,0.6
				c-0.3,0-0.7,0-0.9,0.3c-0.1,0.1-0.1,0.3-0.1,0.4c0,1.5-1.2,2.8-2.6,3.1c0.1,0.3,0.1,0.6,0.1,0.9c0,0.1,0,0.3-0.1,0.3
				c-0.1,0.1-0.4,0-0.5-0.1c-1.1-0.6-2.6-0.9-2.2-2.2C167.6,97,168.5,96.1,168.5,94.7z"/>
			<path class="st17" d="M158.4,92.4c0.5,0,1-0.1,1.4-0.3c0.4-0.3,0.7-0.7,0.9-1.1c1.1-2.1,1.4-4.8,3-6.5c2-2.1,5.1-1.8,7.8-1.8
				c2.2,0,4.3-0.3,6.5-0.8c0.4-0.1,0.8-0.2,1.1-0.5c0.6-0.5,0.8-1.3,0.8-2.1c0.1-2.9-2-5.4-4.2-7.1c-3.9-2.9-8.6-4.3-13.2-4.1
				c-4.7,0.3-9.2,2.3-12.8,5.6c-1.9,1.8-3.6,4-4.1,6.7c-0.3,1.6-0.2,3.4,0,5c0.2,1.5,0.5,3,1.1,4.3C149,94.2,154.6,92.7,158.4,92.4z
				"/>
			<path class="st18" d="M155.2,70.4c-2.9,1-5.7,2.7-7.5,5.2c-1.8,2.5-2.5,5.9-1.3,8.8c0.4,0.8,0.9,1.7,1.8,2c1.1,0.4,2.5-0.1,3.3-1
				c1.7-1.7,2.7-4.1,4.4-5.9c1.4-1.4,3.2-2.1,4.8-3.4c1.3-1.1,1.8-3,0.9-4.5C160.3,69.2,157.2,69.6,155.2,70.4z"/>
			<path class="st25" d="M159.7,99.8l0,0.3l-0.2,0.2c-0.3,0.2-0.7,0.3-1,0.4c-0.9-2.5-1.4-5.1-1.7-7.8c0-0.3-0.1-0.6,0.1-0.8
				c0.2-0.4,1.3-1.1,1.7-0.7c0.3,0.2,0,2.4,0,2.8C158.7,96.1,159.1,98,159.7,99.8z"/>
			<path class="st26" d="M171.1,85.5c1.1-0.6,2.1-0.7,3.3-0.7c0.6,0,1.1-0.2,1.2-0.8l0-0.1c-0.4-0.1-0.7,0.1-1.1,0.1
				c-0.5,0-0.9,0-1.4,0.1c-0.8,0.2-1.7,0.5-2.2,1.2C170.7,85.4,170.9,85.5,171.1,85.5z"/>
			<path class="st26" d="M171.4,87.2c0.7-0.4,1.5-0.4,2.3-0.6c0.4-0.1,0.9-0.1,1.1-0.5c0-0.1,0-0.2-0.1-0.2
				c-0.3,0.1-0.5,0.2-0.8,0.3c-0.3,0.1-0.6,0.1-0.9,0.2C172.4,86.6,171.9,86.8,171.4,87.2L171.4,87.2z"/>
			<path class="st26" d="M173.3,86.5c-0.1,0.2-0.2,0.9,0.2,1c0.4,0.1,0.5-0.6,0.4-0.9l-0.2-0.2l0,0l-0.2,0.1l-0.1,0.2l0,0.2l0,0.2
				l0.1-0.1l0-0.1c0-0.1,0-0.2-0.1-0.3H173.3z"/>
			<path class="st26" d="M172.4,87.5c0.3,0.2,0.6,0.2,1,0.2c0.3,0,0.6-0.1,0.8-0.3l-0.1-0.1c-0.2,0-0.4,0.1-0.6,0.2
				c-0.3,0.1-0.7,0-1-0.1C172.4,87.3,172.3,87.4,172.4,87.5z"/>
			<path class="st26" d="M173.1,88.1c0.2,0,0.3,0,0.4-0.1l0-0.1c-0.1,0-0.3,0-0.4,0C172.9,87.9,172.9,88.1,173.1,88.1z"/>
		</g>
	</g>
</g>
</svg>
