<?xml version="1.0" encoding="utf-8"?>
<!-- Generator: Adobe Illustrator 25.0.0, SVG Export Plug-In . SVG Version: 6.00 Build 0)  -->
<svg version="1.1" id="Capa_1" xmlns="http://www.w3.org/2000/svg" xmlns:xlink="http://www.w3.org/1999/xlink" x="0px" y="0px"
	 viewBox="0 0 300 300" style="enable-background:new 0 0 300 300;" xml:space="preserve">
<style type="text/css">
	.st0{fill:#FCFCFC;}
</style>
<path id="profile_x5F_plus_2_" class="st0" d="M229.5,233.1c-15.2,0-28.4,0-43.6,0v-19.4h24.3c-7.2-36.7-34.9-58.2-68-58.2
	s-60.7,21.5-68,58.2h24.3v19.4c-15.2,0-28.5,0-43.6,0c0-44.2,22.5-77.2,54.5-90.5c-11.9-10.7-19.6-27-19.6-45.3
	c0-32.2,23.5-58.2,52.4-58.2s52.4,26.1,52.4,58.2c0,18.3-7.6,34.7-19.6,45.3C207,155.9,229.5,188.9,229.5,233.1z M177.1,97.2
	c0-21.4-15.7-38.8-34.9-38.8s-34.9,17.4-34.9,38.8S123,136,142.2,136S177.1,118.6,177.1,97.2z"/>
</svg>
