<?xml version="1.0" encoding="utf-8"?>
<!-- Generator: Adobe Illustrator 23.0.0, SVG Export Plug-In . SVG Version: 6.00 Build 0)  -->
<svg version="1.1" id="Capa_1" xmlns="http://www.w3.org/2000/svg" xmlns:xlink="http://www.w3.org/1999/xlink" x="0px" y="0px"
	 viewBox="0 0 300 300" style="enable-background:new 0 0 300 300;" xml:space="preserve">
<style type="text/css">
	.st0{fill:#FFFFFF;}
	.st1{fill:url(#SVGID_1_);}
	.st2{fill:none;stroke:#BD220E;stroke-width:8;stroke-miterlimit:10;}
	.st3{opacity:0.5;fill:#B6B8B9;}
	.st4{fill:#4E2B0A;}
	.st5{opacity:0.3;fill:#4E2B0A;}
	.st6{fill:#434244;}
	.st7{opacity:0.3;fill:#434244;}
	.st8{opacity:0.6;fill:#D2DEF1;}
	.st9{opacity:0.5;fill:#FFFFFF;}
	.st10{fill:#6D6E70;}
	.st11{opacity:0.5;fill:#6D6E70;}
	.st12{fill:#A1BEE3;}
	.st13{opacity:0.6;fill:#E1E6F4;}
	.st14{fill:#CA1E49;}
	.st15{opacity:0.5;fill:#910F36;}
	.st16{fill:#B21943;}
	.st17{opacity:0.4;fill:#6F0028;}
	.st18{fill:#F1D7B4;}
	.st19{opacity:0.3;fill:#F1D7B4;}
	.st20{fill:#5C3A0E;}
	.st21{fill:#D2DFF2;}
	.st22{fill:#EAF0F8;}
	.st23{opacity:0.3;fill:#E5BE92;}
	.st24{fill:#272425;}
	.st25{fill:#6F0028;}
	.st26{opacity:0.5;fill:#F1D7B4;}
	.st27{fill:#F5DECA;}
	.st28{opacity:0.4;fill:#F5DECA;}
	.st29{fill:url(#SVGID_2_);}
	.st30{opacity:0.5;fill:url(#SVGID_3_);}
	.st31{fill:url(#SVGID_4_);}
	.st32{opacity:0.5;fill:url(#SVGID_5_);}
	.st33{opacity:0.5;fill:url(#SVGID_6_);}
	.st34{opacity:0.5;fill:url(#SVGID_7_);}
	.st35{opacity:0.5;fill:url(#SVGID_8_);}
	.st36{fill:url(#SVGID_9_);}
	.st37{opacity:0.5;fill:#BABCBE;}
	.st38{fill:#A35916;}
	.st39{fill:#CD7A1D;}
	.st40{opacity:0.5;fill:#8B5F1E;}
	.st41{fill:#E1A350;}
	.st42{fill:url(#SVGID_10_);}
	.st43{fill:url(#SVGID_11_);}
	.st44{opacity:0.5;fill:url(#SVGID_12_);}
	.st45{fill:url(#SVGID_13_);}
	.st46{fill:url(#SVGID_14_);}
</style>
<circle class="st0" cx="153.4" cy="157.5" r="128.4"/>
<g>
	<radialGradient id="SVGID_1_" cx="153.3259" cy="156.2792" r="93.7969" gradientUnits="userSpaceOnUse">
		<stop  offset="0" style="stop-color:#A9A6A4"/>
		<stop  offset="0.3093" style="stop-color:#ABA9A7"/>
		<stop  offset="0.4999" style="stop-color:#B3B1AF"/>
		<stop  offset="0.6584" style="stop-color:#C1BFBE"/>
		<stop  offset="0.7992" style="stop-color:#D5D3D2"/>
		<stop  offset="0.9271" style="stop-color:#EDEDEC"/>
		<stop  offset="1" style="stop-color:#FFFFFF"/>
	</radialGradient>
	<path class="st1" d="M247.1,156.3c0,51.7-42.2,93.8-93.9,93.8c-51.7-0.1-93.8-42.3-93.7-93.9c0.1-51.7,42.1-93.7,93.8-93.7
		C205,62.5,247.1,104.6,247.1,156.3"/>
	<path class="st2" d="M280,156.3c0,69.8-57,126.7-126.7,126.6c-69.8-0.1-126.7-57.1-126.6-126.8C26.8,86.4,83.6,29.7,153.3,29.6
		C223.1,29.6,280,86.5,280,156.3z"/>
	<g>
		<path class="st3" d="M107.4,258.3c-0.2,3.6,22,7.8,49.6,9.4c27.6,1.6,50.1,0,50.3-3.6c0.2-3.6-22-7.8-49.7-9.4
			C130.1,253.1,107.6,254.7,107.4,258.3z"/>
		<g>
			<g>
				<g>
					<path class="st4" d="M124.2,248.5c0,0-2.3,4.4-9.8,5c-7.5,0.6-6.4,7.3-0.5,8.1c10.2,1.3,18.2-1.6,21.8-4.4l-0.3,2.5
						c0,0,6.1,0.2,6.4-0.3c0.3-0.5-0.3-12.6-0.3-12.6S131.4,243.9,124.2,248.5z"/>
					<g>
						<path class="st5" d="M124.2,248.5c0,0,0,0-0.1,0.1l0,0c4,2.4,10.2,1.9,12,1.8c1.9-0.2-0.2,2.2-7.2,7.5
							c-7,5.3-18.2,2.5-18.2,2.5l0,0c0.8,0.6,1.9,1.1,3.1,1.2c10.2,1.3,18.2-1.6,21.8-4.4l-0.3,2.5c0,0,6.1,0.2,6.4-0.3
							c0.3-0.5-0.3-12.6-0.3-12.6S131.4,243.9,124.2,248.5z"/>
					</g>
				</g>
				<g>
					<path class="st4" d="M180.3,248.5c0,0,2.3,4.4,9.8,5c7.5,0.6,6.4,7.3,0.5,8.1c-10.2,1.3-18.2-1.6-21.8-4.4l0.3,2.5
						c0,0-6.1,0.2-6.4-0.3c-0.3-0.5,0.3-12.6,0.3-12.6S173.2,243.9,180.3,248.5z"/>
					<g>
						<path class="st5" d="M180.3,248.5c0,0,0,0,0.1,0.1l0,0c-4,2.4-10.2,1.9-12,1.8c-1.9-0.2,0.2,2.2,7.2,7.5
							c7,5.3,18.2,2.5,18.2,2.5l0,0c-0.8,0.6-1.9,1.1-3.1,1.2c-10.2,1.3-18.2-1.6-21.8-4.4l0.3,2.5c0,0-6.1,0.2-6.4-0.3
							c-0.3-0.5,0.3-12.6,0.3-12.6S173.2,243.9,180.3,248.5z"/>
					</g>
				</g>
				<g>
					<path class="st6" d="M129.1,197.8c0,0,21,2.7,37.3-2.4c0,0-20.8,40-22.2,44.8c-1.4,4.7,0.9,8.3-3.9,8.6
						c-4.7,0.3-18.5,2.3-17.3-2.6c1.2-5,2.2-12.4,1.8-16.2C124.3,226.1,127.9,203,129.1,197.8z"/>
					<path class="st7" d="M144.1,240.2c1.4-4.7,22.2-44.8,22.2-44.8c-16.3,5.2-37.3,2.4-37.3,2.4c-0.2,0.8-0.4,2.2-0.7,3.9
						c0,0,3.7,7.1,17.3,9.3c0,0,5.6,10.1,0.6,17.1c-3.6,5-6.9,11.1-7.6,14.9c-0.7,3.7-6.2,4.5-9.5,4.1c-3.3-0.3-4.4-4.5-4.4-11.7
						c-0.3,3.6-1,7.7-1.7,10.9c-1.2,4.9,12.6,2.9,17.3,2.6C145.1,248.5,142.7,244.8,144.1,240.2z"/>
				</g>
				<g>
					<path class="st6" d="M182.5,194.2c0,0-21.3,8.4-35.1,7.5c0,0,12.7,35.7,13.4,40.6c0.7,4.9-2.3,9.1,2.5,9
						c4.8-0.2,19.7,0.4,19-5.1c-0.7-5.6-0.7-13.8,0.4-18.3C183.8,223.4,183,199.3,182.5,194.2z"/>
					<path class="st7" d="M160.9,242.3c-0.7-4.9-13.4-40.6-13.4-40.6c13.8,0.9,35.1-7.5,35.1-7.5c0.1,0.8,0.2,2.1,0.3,3.8
						c0.3,6.3-13.6,13.4-21.6,12.7c0,0-10.2-3.3-3.8,6.5c6.4,9.8,8.5,23.2,8.7,27.3c0.2,4.1,5.8,4.2,9.4,3.4c3.6-0.8,5.6-5.8,6.6-14
						c-0.2,4,0,8.7,0.4,12.2c0.7,5.6-14.3,4.9-19,5.1C158.6,251.4,161.6,247.1,160.9,242.3z"/>
				</g>
				<g>
					<g>
						<path class="st0" d="M179.6,154.9c0,0-18.1-6.9-25.3-6.9c-7.2,0-26.7,6.9-26.7,6.9s-9.4,48.9-6.6,55.8
							c5.3,13.2,32.6,11.2,32.6,11.2s27.3,2,32.6-11.2C189,203.8,179.6,154.9,179.6,154.9z"/>
						<path class="st8" d="M153.6,221.9c0,0,27.3,2,32.6-11.2c2.8-6.9-6.6-55.8-6.6-55.8s-18.1-6.9-25.3-6.9
							c-7.2,0-18.2,4.1-18.2,4.1s15.8,12.1,39.4,3.6c0,0,12.7,33.3,1.9,51.2c-10.8,17.9-41.3,15-54.5,7l0,0
							C131,223.6,153.6,221.9,153.6,221.9z"/>
					</g>
					<path class="st9" d="M128.4,167.1c0,0-6.7,39.9,0.3,46.7c0,0-7.1-2.4-6-13.8C123.7,188.6,128.4,167.1,128.4,167.1z"/>
				</g>
				<g>
					<g>
						<path class="st10" d="M158.3,171.1c-0.1,1.6-1.4,2.8-3,2.7c-1.6-0.1-2.8-1.4-2.7-3c0.1-1.6,1.4-2.8,3-2.7
							C157.2,168.1,158.4,169.5,158.3,171.1z"/>
						<path class="st11" d="M156.8,168.4c0.5,0.5,0.7,1.2,0.7,2c-0.1,1.6-1.4,2.8-3,2.7c-0.4,0-0.8-0.2-1.2-0.4c0.5,0.6,1.2,1,2,1
							c1.6,0.1,2.9-1.1,3-2.7C158.4,169.9,157.8,168.9,156.8,168.4z"/>
					</g>
					<g>
						<path class="st10" d="M157.7,182.8c-0.1,1.6-1.4,2.8-3,2.7c-1.6-0.1-2.8-1.4-2.7-3c0.1-1.6,1.4-2.8,3-2.7
							C156.6,179.9,157.8,181.2,157.7,182.8z"/>
						<path class="st11" d="M156.2,180.1c0.5,0.5,0.7,1.2,0.7,2c-0.1,1.6-1.4,2.8-3,2.7c-0.4,0-0.8-0.2-1.2-0.4c0.5,0.6,1.2,1,2,1
							c1.6,0.1,2.9-1.1,3-2.7C157.8,181.7,157.2,180.7,156.2,180.1z"/>
					</g>
					<g>
						<path class="st10" d="M157.3,195.4c-0.1,1.6-1.4,2.8-3,2.7c-1.6-0.1-2.8-1.4-2.7-3c0.1-1.6,1.4-2.8,3-2.7
							C156.2,192.5,157.4,193.8,157.3,195.4z"/>
						<path class="st11" d="M155.9,192.7c0.5,0.5,0.7,1.2,0.7,2c-0.1,1.6-1.4,2.8-3,2.7c-0.4,0-0.8-0.2-1.2-0.4c0.5,0.6,1.2,1,2,1
							c1.6,0.1,2.9-1.1,3-2.7C157.4,194.3,156.8,193.3,155.9,192.7z"/>
					</g>
				</g>
				<g>
					<g>
						<path class="st0" d="M156,151.5c0,0,11-0.7,15.1-3.1l1.3,3.9c0,0-5.3,4.8-16.3,6V151.5z"/>
						<path class="st0" d="M156,151.5c0,0-10.6-0.9-15.1-3.1l-1.3,3.9c0,0,5.3,4.8,16.3,6V151.5z"/>
					</g>
					<path class="st12" d="M159,154.3c0,0.4-0.4,0.8-0.8,0.8c-0.4,0-0.8-0.4-0.8-0.8c0-0.4,0.4-0.8,0.8-0.8
						C158.7,153.5,159,153.9,159,154.3z"/>
					<path class="st12" d="M154.7,154.1c0,0.4-0.4,0.8-0.8,0.8c-0.4,0-0.8-0.4-0.8-0.8c0-0.4,0.4-0.8,0.8-0.8
						C154.4,153.3,154.7,153.6,154.7,154.1z"/>
					<path class="st13" d="M156,151.5c0,0-0.4,0-1.1-0.1c0,0,1.1,1.9-1.2,3.9c-2.3,2-8-1-9.8-1.7c-1.8-0.7-3.1-2-2.7-2.9
						c0.3-0.8,1.3-1.5,1.5-1.6c-0.6-0.2-1.2-0.4-1.7-0.7l-1.3,3.9c0,0,5.3,4.8,16.3,6V151.5z"/>
				</g>
				<g>
					<path class="st14" d="M141,148.4c0,0,16.6,5.8,30.1,0l0.5,1.4c0,0-13.6,10.4-31-0.2L141,148.4z"/>
					<g>
						<g>
							<g>
								<path class="st14" d="M155.8,156c0,0,4.6,9.2,5.7,15c0,0,4.7-1.7,7.2-1.5c0,0-3.2-12-10.7-14.8L155.8,156z"/>
								<path class="st15" d="M161.5,171c0,0,4.7-1.7,7.2-1.5c0,0-3.2-12-10.7-14.8l-2.2,1.3c0,0,1.2,2.4,2.5,5.5h0
									c0,0-1-3.6-0.3-3.7c0.7-0.1,2.8,4.2,2.8,4.2s-1.2-3.9-1.8-4.7c0,0,0.4-0.7,1.6-0.2c1.2,0.6,5.3,8.2,5.9,10
									C167.1,169.1,162.2,170.5,161.5,171z"/>
							</g>
							<g>
								<path class="st14" d="M155.5,156c0,0-4.6,9.2-5.7,15c0,0-4.7-1.7-7.2-1.5c0,0,3.2-12,10.7-14.8L155.5,156z"/>
								<path class="st15" d="M149.8,171c0,0-4.7-1.7-7.2-1.5c0,0,3.2-12,10.7-14.8l2.2,1.3c0,0-1.2,2.4-2.5,5.5h0
									c0,0,1-3.6,0.3-3.7c-0.7-0.1-2.8,4.2-2.8,4.2s1.2-3.9,1.8-4.7c0,0-0.4-0.7-1.6-0.2c-1.2,0.6-5.3,8.2-5.9,10
									C144.3,169.1,149.2,170.5,149.8,171z"/>
							</g>
						</g>
						<g>
							<path class="st16" d="M159.9,154.2c0,1.9-2,3.5-4.4,3.5c-2.5,0-4.4-1.6-4.4-3.5c0-1.9,2-3.5,4.4-3.5
								C157.9,150.7,159.9,152.2,159.9,154.2z"/>
							<path class="st17" d="M157.7,151.2c0.4,0.5,0.6,1,0.6,1.6c0,1.6-1.7,3-3.8,3c-1.5,0-2.9-0.7-3.5-1.7c0,0.1,0,0.1,0,0.2
								c0,1.9,2,3.5,4.4,3.5c2.4,0,4.4-1.6,4.4-3.5C159.9,152.9,159,151.8,157.7,151.2z"/>
						</g>
					</g>
				</g>
				<g>
					<g>
						<path class="st18" d="M180.9,125.2c-0.2,14.3-5.4,25.8-25.3,26.6c-19.9,0.8-28-11.5-28.4-27.3c-0.4-16.3,12.6-28.8,28.1-27.7
							C170,97.7,181.1,110.6,180.9,125.2z"/>
						<path class="st19" d="M141.5,149.4c3.8,1.7,8.5,2.5,14.1,2.3c19.9-0.8,25.1-12.3,25.3-26.6c0.1-9.8-7.9-20.3-15.6-25.5
							c-1.8,1.3-4,21,8.9,25.6c0,0,6.8,1.8,1.3,13.9C166.4,155.1,149.5,151.5,141.5,149.4z"/>
					</g>
					<path class="st20" d="M160.5,100.3c-5.3-1.3-21.3,0.6-21.3,0.6s-0.3,0.1-0.7,0.2c-3.9,2.7-6.9,6.5-8.9,11
						c2.3-3.7,10.9-11.3,21.5-9.7c11.1,1.7,14.9,5.1,15,9.5c0.1,4.3,3,12.2,8,13.3c0,0,3.7-3.5,6.7-1.9c-0.2-5-1.8-9.7-4.4-13.8
						C171.9,105.8,164.3,101.2,160.5,100.3z"/>
					<g>
						<path class="st0" d="M184.9,79.7c-0.8-8.4-7.5-13.9-15.1-12.2c-2.1,0.5-4,1.5-5.6,2.8c-2.8-6.1-8.8-9.5-15.1-8
							c-5.6,1.4-9.9,6.2-11.5,12.2c-2.4-1.3-5.1-1.7-7.8-1c-7,1.7-11.6,9.5-10.2,17.5c1.3,7.8,7.8,12.8,14.6,11.4
							c1.5-0.3,2.9-0.9,4.1-1.7c21-12.3,31.6,7,33.7,4.1c2.7,4.7,7.9,7.3,13.5,6.2c7.8-1.5,13.6-9.6,13-18.2
							C197.8,84.9,192,79.4,184.9,79.7z"/>
						<path class="st8" d="M184.9,79.7c-0.8-8.4-7.5-13.9-15.1-12.2c-2,0.5-3.8,1.4-5.4,2.7c-0.6,1.4-1,2.8-1.1,4.2
							c0,0,18.1-6.1,20.6,11.1c0,0,11-1.7,9.1,12.1c-1.1,8.5-10.7,7.9-10.7,7.9s-14.6-28.4-52-7.2c0,0-9.6-1.3-5.7-17.1
							c0-0.8-5.6,2.1-5.2,9.5c0,0.1,0,0.2,0,0.3c1.3,7.8,7.8,12.8,14.6,11.4c1.5-0.3,2.9-0.9,4.1-1.7c21-12.3,31.6,7,33.7,4.1
							c2.7,4.7,7.9,7.3,13.5,6.2c7.8-1.5,13.6-9.6,13-18.2C197.8,84.9,192,79.4,184.9,79.7z"/>
						<path class="st21" d="M184.9,79.7c-0.8-8.4-7.5-13.9-15.1-12.2c-2.1,0.5-4,1.5-5.6,2.8c-2.8-6.1-8.8-9.5-15.1-8
							c-5.6,1.4-9.9,6.2-11.5,12.2c-2.4-1.3-5.1-1.7-7.8-1c-7,1.7-11.6,9.5-10.2,17.5c1.1,6.6,5.9,11.2,11.4,11.6
							c-4.1-1.6-9.5-5.7-9-12.2c1.3-11.6,6.7-15.7,16.8-13.9c0,0,2-12.1,13.2-11.6c11.3,0.4,11.4,9.6,11.4,9.6s7.7-6.2,14-2.3
							c6.2,3.9,6.8,9.7,6.7,13.4c0,0,1-2.4,0.9-4.1c0,0,15.4,1.3,9.1,17.8c-4,10.5-14.6,8.4-14.6,8.4l-0.2,3.1
							c1.9,0.5,3.9,0.7,6,0.2c7.8-1.5,13.6-9.6,13-18.2C197.8,84.9,192,79.4,184.9,79.7z"/>
						<path class="st0" d="M131.5,107.5c0,0,30.1-11.9,48.3,9.1l1.5-10.3c0,0-12.7-23.7-50.3-7L131.5,107.5z"/>
						<path class="st21" d="M172.1,97.7c0.2,0.1,0.3,0.2,0.5,0.3c6.1,3.6,7.3,8.4,6.1,10.9c-0.8,1.7-3.1,0.8-14.3-4.1
							c-11.1-4.9-24.8-1.3-28.7,0.2c-4.3,1.7-4.4-1.7-4.6-2.3l0.3,4.8c0,0,30.1-11.9,48.3,9.1l1.5-10.3
							C181.3,106.3,178.7,101.5,172.1,97.7z"/>
						<path class="st22" d="M132.6,101.6c0,0-0.5-1.6,0.5-1.9c1-0.4,12.1-4.8,20.4-4.6C153.6,95.1,138.2,97.8,132.6,101.6z"/>
					</g>
					<g>
						<g>
							<path class="st18" d="M184.4,131.7c-2.4,3.5-6.5,4.7-9,2.7c-2.5-2-1.7-8.5,0.8-12.1c2.4-3.5,5.6-2.7,8.1-0.7
								C186.8,123.7,186.9,128.2,184.4,131.7z"/>
							<path class="st23" d="M184.6,124.3c0,0-1.5-0.7-2.4,0.8c-0.9,1.4-2.8,6.8-2,7.1c0.8,0.3,2.2,0,2.7-1.6
								c0.5-1.6,0.3-2.9-0.4-2.7C181.8,128,182.9,124.2,184.6,124.3z"/>
						</g>
					</g>
					<g>
						<path class="st24" d="M158.1,120.5c0.3,1.6-0.6,3.1-2.1,3.4c-1.4,0.2-2.8-0.9-3.1-2.5c-0.3-1.6,0.6-3.1,2.1-3.4
							C156.5,117.7,157.8,118.8,158.1,120.5z"/>
						<path class="st0" d="M156.3,119.4c0.1,0.4-0.2,0.7-0.5,0.7c-0.4,0.1-0.7-0.2-0.7-0.5c-0.1-0.4,0.2-0.7,0.5-0.7
							C155.9,118.8,156.2,119,156.3,119.4z"/>
						<path class="st0" d="M157.6,120.4c0,0.2-0.1,0.4-0.3,0.5c-0.2,0-0.4-0.1-0.5-0.3c0-0.2,0.1-0.4,0.3-0.5
							C157.3,120,157.5,120.2,157.6,120.4z"/>
					</g>
					<g>
						<path class="st24" d="M142.8,121c0.3,1.6-0.6,3.1-2.1,3.4c-1.4,0.2-2.8-0.9-3.1-2.5c-0.3-1.6,0.6-3.1,2.1-3.4
							C141.2,118.3,142.5,119.4,142.8,121z"/>
						<path class="st0" d="M141,119.9c0.1,0.3-0.2,0.7-0.5,0.7c-0.4,0.1-0.7-0.2-0.7-0.5c-0.1-0.4,0.2-0.7,0.5-0.7
							C140.6,119.3,140.9,119.6,141,119.9z"/>
						<path class="st0" d="M142.3,120.9c0,0.2-0.1,0.4-0.3,0.5c-0.2,0-0.4-0.1-0.5-0.3c0-0.2,0.1-0.4,0.3-0.4
							C142,120.5,142.2,120.7,142.3,120.9z"/>
					</g>
					<path class="st20" d="M159.5,111.3c-0.3-0.5-1.6-0.8-3.2-1c-2.9-0.4-4,0.7-3,1.8c1,1.2,2.3,1.1,3.9,2c1.6,0.9,4,2.4,4,0.4
						C161.3,112.5,159.5,111.3,159.5,111.3z"/>
					<path class="st20" d="M135.3,112.2c0.3-0.5,1.6-0.8,3.2-1.1c2.9-0.5,4,0.6,3,1.7c-1,1.2-2.3,1.1-3.8,2.1c-1.6,1-3.9,2.5-4,0.5
						C133.5,113.5,135.3,112.2,135.3,112.2z"/>
					<g>
						<g>
							<path class="st25" d="M141.6,138.8c0.5-0.2,6.8,3.2,11.8-2.6c0,0,0.8,6.2-4.5,7C143.7,143.9,141.6,138.8,141.6,138.8z"/>
							<path class="st16" d="M144.9,142.5L144.9,142.5c1.1,0.6,2.4,0.9,4,0.7c1.9-0.3,3-1.3,3.7-2.4v0
								C147.4,138.6,144.9,142.5,144.9,142.5z"/>
						</g>
						<path class="st26" d="M147.1,144.9c0,0-0.4-0.6,1.9-0.5c1.8,0.1,3.1-1.8,2.9-1.1C151.7,143.9,151.5,146.8,147.1,144.9z"/>
					</g>
					<g>
						<g>
							<g>
								<path class="st4" d="M146.6,130.2c0,0,0.5-5,7.8-5.1c7.3-0.1,10.2,4.9,12.7,7.7c2.5,2.8,8.6,3.6,10.1-1.1
									c0,0-2.1,10.9-15.3,8.9C148.5,138.7,146.7,137.4,146.6,130.2z"/>
								<path class="st5" d="M167.1,132.8c-2.5-2.8-5.3-7.8-12.7-7.7c-1.9,0-3.3,0.4-4.4,0.9c0,0,9.7-1.2,13.8,4.7
									c4.1,6,5.3,7.6,1.6,8c-3.7,0.4-12.2,0.8-15.5-0.9c0,0,0,0,0,0c2.2,1.2,5.9,1.9,11.9,2.8c13.2,1.9,15.3-8.9,15.3-8.9
									C175.8,136.4,169.6,135.6,167.1,132.8z"/>
							</g>
							<g>
								<path class="st4" d="M148.1,131.7c0,0,0.3-4.6-6.2-5.7c-6.5-1.2-9.8,2.8-12.5,4.9c-2.6,2.1-8.2,1.9-8.8-2.5
									c0,0,0.2,10,12.3,10.3C145.2,139,147,138.1,148.1,131.7z"/>
								<path class="st5" d="M129.4,130.9c2.6-2.1,5.9-6.1,12.5-4.9c1.7,0.3,2.9,0.8,3.8,1.5c0,0-8.5-2.6-13,2.1
									c-4.6,4.7-5.9,6-2.7,6.9c3.2,0.9,10.7,2.6,13.9,1.6c0,0,0,0,0,0c-2.2,0.7-5.6,0.8-11,0.7c-12.1-0.3-12.3-10.3-12.3-10.3
									C121.2,132.8,126.8,133,129.4,130.9z"/>
							</g>
						</g>
						<g>
							<path class="st18" d="M153.3,126c0,1.6-2.4,2.9-5.3,3c-3,0-5.4-1.2-5.4-2.8c0-1.6,2.4-2.9,5.3-3
								C150.8,123.2,153.3,124.4,153.3,126z"/>
							<path class="st26" d="M148.4,127.6c-2.8,0-4.6-0.4-4.7-1.9c0-0.6,0-1.3,0.6-1.8c-1.1,0.5-1.9,1.3-1.9,2.2
								c0,1.6,2.5,2.8,5.4,2.8c3-0.1,5.4-1.4,5.3-3c0-0.1,0-0.1,0-0.2C153,127.1,150.9,127.5,148.4,127.6z"/>
						</g>
					</g>
				</g>
				<g>
					<g>
						<path class="st27" d="M84.2,156.4c0,0-3.8-4.5-7.1-4.9c-3.4-0.4-3.6,1.3-2,2.3c1.6,1,2.3,2.7,1.7,2.7c-0.6,0-3.3-0.7-4.9-3
							c-1.7-2.3-3.8-1.7-4.2,0.7c-0.4,2.4-0.6,6.3,3.6,9.7c4.1,3.4,8.5,3.6,10.4,2.9C81.7,166.9,86.7,159.4,84.2,156.4z"/>
						<path class="st28" d="M77.3,157c1.1-1-0.1-2-1.8-3.5c-1.7-1.4,0.6-2,0.8-2.1c-2.5,0-2.5,1.5-1,2.4c1.6,1,2.3,2.7,1.7,2.7
							c-0.6,0-3.3-0.7-4.9-3c-0.5-0.7-1.1-1.2-1.7-1.4c1,0.8,1.7,1.4,2.4,3C73.5,156.9,76.2,157.9,77.3,157z"/>
						<path class="st28" d="M81.7,166.9c0,0,5-7.4,2.6-10.4c0,0-0.8-0.9-1.9-2c-0.3,0.3-5.7,8.3-4.1,11.9c0,0-7.6-1.2-10.4-7.5
							c0.4,1.7,1.4,3.4,3.4,5.1C75.5,167.3,79.8,167.5,81.7,166.9z"/>
					</g>
					<g>
						<path class="st0" d="M131,152.4c0,0-22.7,6.8-35.2,3.4c-12.4-3.4-11-3.1-12.6-0.2c-1.6,2.9-6.3,14.3,2.9,16.3
							c9.2,2,36,3.4,49.5-6.7C149.1,155.2,136.6,150,131,152.4z"/>
						<path class="st8" d="M135.6,165.3c-13.5,10-40.3,8.6-49.5,6.7c-9.2-2-4.5-13.4-2.9-16.3c0.7-1.3,0.9-2.1,1.9-2.3
							c-2,4-2.5,7.7,0.7,12.9c3.2,5.2,12.4,7.6,32.7,3.9L135.6,165.3z"/>
					</g>
				</g>
				<g>
					<g>
						<path class="st27" d="M229.4,156.4c0,0,3.8-4.5,7.1-4.9c3.4-0.4,3.6,1.3,2,2.3c-1.6,1-2.3,2.7-1.7,2.7c0.6,0,3.3-0.7,4.9-3
							c1.7-2.3,3.8-1.7,4.2,0.7c0.4,2.4,0.6,6.3-3.6,9.7c-4.1,3.4-8.5,3.6-10.4,2.9C231.9,166.9,227,159.4,229.4,156.4z"/>
						<path class="st28" d="M236.3,157c-1.1-1,0.1-2,1.8-3.5c1.7-1.4-0.6-2-0.8-2.1c2.5,0,2.5,1.5,1,2.4c-1.6,1-2.3,2.7-1.7,2.7
							c0.6,0,3.3-0.7,4.9-3c0.5-0.7,1.1-1.2,1.7-1.4c-1,0.8-1.7,1.4-2.4,3C240.1,156.9,237.4,157.9,236.3,157z"/>
						<path class="st28" d="M231.9,166.9c0,0-5-7.4-2.6-10.4c0,0,0.8-0.9,1.9-2c0.3,0.3,5.7,8.3,4.1,11.9c0,0,7.6-1.2,10.4-7.5
							c-0.4,1.7-1.4,3.4-3.4,5.1C238.2,167.3,233.8,167.5,231.9,166.9z"/>
					</g>
					<g>
						<path class="st0" d="M182.6,152.4c0,0,22.7,6.8,35.2,3.4c12.4-3.4,11-3.1,12.6-0.2c1.6,2.9,6.3,14.3-2.9,16.3
							c-9.2,2-36,3.4-49.5-6.7C164.5,155.2,177.1,150,182.6,152.4z"/>
						<path class="st8" d="M178,165.3c13.5,10,40.3,8.6,49.5,6.7c9.2-2,4.5-13.4,2.9-16.3c-0.7-1.3-0.9-2.1-1.9-2.3
							c2,4,2.5,7.7-0.7,12.9c-3.2,5.2-12.4,7.6-32.7,3.9L178,165.3z"/>
					</g>
				</g>
			</g>
			<g>
				<g>
					
						<linearGradient id="SVGID_2_" gradientUnits="userSpaceOnUse" x1="-379.9089" y1="-345.0058" x2="-379.9089" y2="-314.0339" gradientTransform="matrix(0.9587 0.2843 -0.2843 0.9587 377.39 493.9787)">
						<stop  offset="0" style="stop-color:#D9E0E5"/>
						<stop  offset="0.9273" style="stop-color:#AEB9BF"/>
						<stop  offset="1" style="stop-color:#AAB6BC"/>
					</linearGradient>
					<path class="st29" d="M123.1,58.2l-23.3-6.9c-0.9-0.3-1.9,0.3-2.1,1.2l-5.2,27.2c-0.2,1,0.4,2,1.4,2.3l17.5,5.2
						c0.9,0.3,2-0.2,2.4-1.2l10.4-25.7C124.5,59.5,124,58.5,123.1,58.2z M98.4,77.6l-0.6-0.2c-0.4-0.1-0.6-0.5-0.5-0.9l3.8-20.2
						c0.1-0.4,0.4-0.6,0.8-0.5l1.1,0.3c0.4,0.1,0.6,0.5,0.5,0.9l-4.4,20C99.1,77.5,98.7,77.7,98.4,77.6z M102.4,78.8l-0.6-0.2
						c-0.4-0.1-0.6-0.5-0.5-0.9l5-19.8c0.1-0.4,0.5-0.6,0.8-0.5l1.1,0.3c0.4,0.1,0.6,0.5,0.5,0.9l-5.5,19.7
						C103.1,78.7,102.8,78.9,102.4,78.8z M107.3,79.5c-0.1,0.4-0.5,0.6-0.9,0.5l-0.6-0.2c-0.4-0.1-0.6-0.5-0.5-0.9l6.1-19.5
						c0.1-0.4,0.5-0.6,0.9-0.5l1.1,0.3c0.4,0.1,0.6,0.5,0.4,0.8L107.3,79.5z M111.3,80.7c-0.1,0.4-0.6,0.5-0.9,0.4l-0.6-0.2
						c-0.4-0.1-0.6-0.5-0.4-0.8l7.3-19.2c0.1-0.4,0.5-0.6,0.9-0.4l1.1,0.3c0.4,0.1,0.5,0.5,0.4,0.8L111.3,80.7z"/>
					
						<linearGradient id="SVGID_3_" gradientUnits="userSpaceOnUse" x1="-378.6373" y1="-345.0058" x2="-378.6373" y2="-314.0339" gradientTransform="matrix(0.9587 0.2843 -0.2843 0.9587 377.39 493.9787)">
						<stop  offset="0" style="stop-color:#E5E5E6"/>
						<stop  offset="1" style="stop-color:#BABCBE"/>
					</linearGradient>
					<path class="st30" d="M113,84.5c0,0-1.6,1.4-2.9,1c-1.4-0.4-15.8-4.3-15.8-4.3s-1.9-1.4-1.6-3l-0.3,1.6c-0.2,1,0.4,2,1.4,2.3
						l17.5,5.2c0.9,0.3,2-0.2,2.4-1.2l10.4-25.7c0.4-0.9-0.1-1.9-1-2.2c0,0,0.3,1.4-0.6,3.9C121.5,64.6,113,84.5,113,84.5z"/>
					
						<linearGradient id="SVGID_4_" gradientUnits="userSpaceOnUse" x1="-382.1689" y1="-344.5552" x2="-382.1689" y2="-320.3595" gradientTransform="matrix(0.9587 0.2843 -0.2843 0.9587 377.39 493.9787)">
						<stop  offset="0" style="stop-color:#FFFFFF"/>
						<stop  offset="0.646" style="stop-color:#D4D5D6"/>
						<stop  offset="1" style="stop-color:#BABCBE"/>
					</linearGradient>
					<path class="st31" d="M98.6,53.2l-4.3,22.4c0,0,4.4-19.4,4.9-20.8c0.4-1.4,1-1.6,1.8-1.7c0.8-0.1,18.2,4.4,18.2,4.4l-18.6-5.5
						C99.6,51.8,98.8,52.4,98.6,53.2z"/>
					<g>
						
							<linearGradient id="SVGID_5_" gradientUnits="userSpaceOnUse" x1="-389.4748" y1="-330.6588" x2="-384.879" y2="-330.6588" gradientTransform="matrix(0.9587 0.2843 -0.2843 0.9587 377.39 493.9787)">
							<stop  offset="0" style="stop-color:#E5E5E6"/>
							<stop  offset="1" style="stop-color:#919395"/>
						</linearGradient>
						<path class="st32" d="M103.7,57.1c0.1-0.4-0.2-0.8-0.6-0.9l-1.3-0.4c-0.4-0.1-0.8,0.1-0.9,0.5l-2.2,12.3l2.3-12.2
							c0.1-0.4,0.4-0.6,0.8-0.5l1.1,0.3c0.4,0.1,0.6,0.5,0.5,0.9l-4.4,20c-0.1,0.4-0.4,0.6-0.8,0.5l-0.6-0.2
							c-0.2-0.1-0.4-0.3-0.5-0.5c0,0.4,0.2,0.7,0.6,0.9l0.6,0.2c0.4,0.1,0.8-0.1,0.9-0.5L103.7,57.1z"/>
						
							<linearGradient id="SVGID_6_" gradientUnits="userSpaceOnUse" x1="-383.9087" y1="-330.7361" x2="-380.6478" y2="-330.7361" gradientTransform="matrix(0.9587 0.2843 -0.2843 0.9587 377.39 493.9787)">
							<stop  offset="0" style="stop-color:#E5E5E6"/>
							<stop  offset="1" style="stop-color:#919395"/>
						</linearGradient>
						<path class="st33" d="M109.1,58.6c0.1-0.4-0.1-0.8-0.6-0.9l-1.3-0.4c-0.4-0.1-0.8,0.1-0.9,0.5l0,0.2c0.1-0.4,0.5-0.6,0.8-0.5
							l1.1,0.3c0.4,0.1,0.6,0.5,0.5,0.9l-5.5,19.7c-0.1,0.4-0.5,0.6-0.8,0.5l-0.6-0.2c-0.2-0.1-0.4-0.3-0.5-0.5
							c0,0.4,0.2,0.7,0.6,0.8l0.6,0.2c0.4,0.1,0.8-0.1,0.9-0.5L109.1,58.6z"/>
						
							<linearGradient id="SVGID_7_" gradientUnits="userSpaceOnUse" x1="-378.801" y1="-330.6975" x2="-375.5389" y2="-330.6975" gradientTransform="matrix(0.9587 0.2843 -0.2843 0.9587 377.39 493.9787)">
							<stop  offset="0" style="stop-color:#E5E5E6"/>
							<stop  offset="1" style="stop-color:#919395"/>
						</linearGradient>
						<path class="st34" d="M113.8,59.3l-1.3-0.4c-0.4-0.1-0.7,0-0.9,0.3c0.2-0.2,0.5-0.3,0.7-0.2l1.1,0.3c0.4,0.1,0.6,0.5,0.4,0.8
							l-6.7,19.3c-0.1,0.4-0.5,0.6-0.9,0.5l-0.6-0.2c-0.4-0.1-0.6-0.5-0.5-0.9l1.2-3.9l-1.3,4.2c-0.1,0.4,0.1,0.8,0.5,0.9l0.6,0.2
							c0.4,0.1,0.9-0.1,1-0.4l6.9-19.7C114.5,59.8,114.2,59.4,113.8,59.3z"/>
						
							<linearGradient id="SVGID_8_" gradientUnits="userSpaceOnUse" x1="-374.683" y1="-330.6599" x2="-370.1085" y2="-330.6599" gradientTransform="matrix(0.9587 0.2843 -0.2843 0.9587 377.39 493.9787)">
							<stop  offset="0" style="stop-color:#E5E5E6"/>
							<stop  offset="1" style="stop-color:#919395"/>
						</linearGradient>
						<path class="st35" d="M119.1,60.9l-1.3-0.4c-0.1,0-0.3,0-0.4,0c0.1,0,0.2,0,0.2,0l1.1,0.3c0.4,0.1,0.5,0.5,0.4,0.8l-7.8,19
							c-0.1,0.4-0.6,0.5-0.9,0.4l-0.6-0.2c-0.4-0.1-0.6-0.5-0.4-0.8l4.6-12.3l-4.8,12.5c-0.1,0.4,0.1,0.7,0.5,0.9l0.6,0.2
							c0.4,0.1,0.9-0.1,1-0.4l8.1-19.3C119.7,61.4,119.5,61,119.1,60.9z"/>
					</g>
				</g>
				<g>
					
						<linearGradient id="SVGID_9_" gradientUnits="userSpaceOnUse" x1="-381.1389" y1="943.4009" x2="-381.1389" y2="970.978" gradientTransform="matrix(0.9587 0.2843 0.2843 -0.9587 192.1833 1122.6729)">
						<stop  offset="0" style="stop-color:#D9E0E5"/>
						<stop  offset="0.9273" style="stop-color:#AEB9BF"/>
						<stop  offset="1" style="stop-color:#AAB6BC"/>
					</linearGradient>
					<polygon class="st36" points="96.1,110.1 93.8,109.4 101.7,83.1 104,83.8 					"/>
					<polygon class="st37" points="96.1,110.1 95.1,109.8 103,83.5 104,83.8 					"/>
				</g>
				<g>
					<path class="st38" d="M97.2,111.5c-0.3,0.9-1.3,1.5-2.2,1.2l-1.7-0.5c-0.9-0.3-1.5-1.3-1.2-2.2l0.3-0.9
						c0.3-0.9,1.3-1.5,2.2-1.2l1.7,0.5c0.9,0.3,1.5,1.3,1.2,2.2L97.2,111.5z"/>
					<path class="st39" d="M91.1,134.4c-0.3,0.9-1.3,1.5-2.2,1.2l-2.9-0.9c-0.9-0.3-1.5-1.3-1.2-2.2l6.5-22c0.3-0.9,1.3-1.5,2.2-1.2
						l2.9,0.9c0.9,0.3,1.5,1.3,1.2,2.2L91.1,134.4z"/>
					<path class="st40" d="M95.1,109.8c0,0,0.4,1.1-0.1,2.9l-6.7,22.7l0.6,0.2c0.9,0.3,1.9-0.3,2.2-1.2l6.5-22
						c0.2-0.5,0-1.1-0.2-1.5l0.1-0.3c0.3-0.9-0.3-1.9-1.2-2.2l-0.7-0.2C95.6,108.2,95.3,109,95.1,109.8z"/>
					<g>
						<path class="st41" d="M86.2,133.7c-0.1,0.2-0.2,0.2-0.4,0.1l-0.4-0.4c-0.2-0.1-0.2-0.4-0.2-0.6l6.5-21.8
							c0.1-0.2,0.3-0.4,0.5-0.4l0.5,0c0.2,0,0.3,0.2,0.3,0.3L86.2,133.7z"/>
					</g>
				</g>
			</g>
			<g>
				<g>
					<g>
						
							<linearGradient id="SVGID_10_" gradientUnits="userSpaceOnUse" x1="48.004" y1="529.7191" x2="48.004" y2="570.5805" gradientTransform="matrix(0.9386 -0.3448 0.3448 0.9386 -23.7475 -419.4443)">
							<stop  offset="0" style="stop-color:#D9E0E5"/>
							<stop  offset="0.9273" style="stop-color:#AEB9BF"/>
							<stop  offset="1" style="stop-color:#AAB6BC"/>
						</linearGradient>
						<path class="st42" d="M222.3,91.9L206,60.6c0,0,11.6,28.4,12.5,30.5c0.9,2.2-0.5,2.9-0.5,2.9l-1.6,0.6l-0.3,0.1l-1.6,0.6
							c0,0-1.5,0.4-2.2-1.9c-0.7-2.3-10.2-31.4-10.2-31.4l7.9,34.4c0,0,1.5,5,8,3.1l0,0c0.1,0,0.1,0,0.2-0.1c0.1,0,0.1,0,0.2,0l0,0
							C224.4,96.7,222.3,91.9,222.3,91.9z"/>
						<g>
							
								<linearGradient id="SVGID_11_" gradientUnits="userSpaceOnUse" x1="41.4971" y1="565.6338" x2="41.4971" y2="566.0901" gradientTransform="matrix(0.9386 -0.3448 0.3448 0.9386 -23.7475 -419.4443)">
								<stop  offset="0" style="stop-color:#D9E0E5"/>
								<stop  offset="0.9273" style="stop-color:#AEB9BF"/>
								<stop  offset="1" style="stop-color:#AAB6BC"/>
							</linearGradient>
							<path class="st43" d="M210.4,97.6C210.4,97.6,210.4,97.6,210.4,97.6c-0.1-0.3-0.2-0.4-0.2-0.4
								C210.3,97.3,210.3,97.4,210.4,97.6z"/>
							
								<linearGradient id="SVGID_12_" gradientUnits="userSpaceOnUse" x1="48.1803" y1="529.7196" x2="48.1803" y2="570.5805" gradientTransform="matrix(0.9386 -0.3448 0.3448 0.9386 -23.7475 -419.4443)">
								<stop  offset="0" style="stop-color:#E5E5E6"/>
								<stop  offset="1" style="stop-color:#BABCBE"/>
							</linearGradient>
							<path class="st44" d="M218.4,97.9c-1.9,1.2-6,1.5-7.5,0.3c1.1,1.2,3.1,2.5,7,1.4l0,0c0.1,0,0.1,0,0.2-0.1c0.1,0,0.1,0,0.2,0
								l0,0c6.2-2.7,4.1-7.5,4.1-7.5L206,60.6c0,0,13.7,29,14.3,30.7C220.9,92.9,220.6,96.5,218.4,97.9z"/>
						</g>
					</g>
					<g>
						
							<linearGradient id="SVGID_13_" gradientUnits="userSpaceOnUse" x1="48.6529" y1="60.8256" x2="48.6529" y2="86.952" gradientTransform="matrix(0.9386 -0.3448 -0.3448 -0.9386 202.0024 196.5002)">
							<stop  offset="0" style="stop-color:#D9E0E5"/>
							<stop  offset="0.9273" style="stop-color:#AEB9BF"/>
							<stop  offset="1" style="stop-color:#AAB6BC"/>
						</linearGradient>
						<polygon class="st45" points="227.7,122.2 225.8,122.8 216.7,98.5 218.5,97.8 						"/>
						<polygon class="st37" points="227.7,122.2 226.8,122.5 217.7,98.1 218.5,97.8 						"/>
					</g>
					
						<linearGradient id="SVGID_14_" gradientUnits="userSpaceOnUse" x1="44.7956" y1="559.1829" x2="44.7956" y2="591.2863" gradientTransform="matrix(0.9388 -0.3448 0.3101 0.8443 -11.6112 -387.4431)">
						<stop  offset="0" style="stop-color:#FFFFFF"/>
						<stop  offset="0.646" style="stop-color:#D4D5D6"/>
						<stop  offset="1" style="stop-color:#BABCBE"/>
					</linearGradient>
					<path class="st46" d="M211.2,94.9c0.1,0.4,1,1.5,2,1.5c1,0,2.3-1,2.3-1l-1.5,0.5c0,0-1.4,0.4-1.9-1.4
						c-0.5-1.8-8.1-25.2-8.1-25.2S211.1,94.5,211.2,94.9z"/>
				</g>
				<g>
					<path class="st38" d="M229.2,122.6c0.3,0.8-0.1,1.6-0.9,1.9l-1.4,0.5c-0.8,0.3-1.6-0.1-1.9-0.9l-0.3-0.7
						c-0.3-0.8,0.1-1.6,0.9-1.9l1.4-0.5c0.8-0.3,1.6,0.1,1.9,0.9L229.2,122.6z"/>
					<path class="st39" d="M236.5,141c0.3,0.8-0.1,1.6-0.9,1.9l-2.4,0.9c-0.8,0.3-1.6-0.1-1.9-0.9l-6.6-18.1
						c-0.3-0.8,0.1-1.6,0.9-1.9l2.4-0.9c0.8-0.3,1.6,0.1,1.9,0.9L236.5,141z"/>
					<path class="st40" d="M226.8,122.5c0,0,0.8,0.6,1.4,2l6.9,18.7l0.5-0.2c0.8-0.3,1.2-1.2,0.9-1.9l-6.6-18.1
						c-0.2-0.4-0.5-0.7-0.9-0.9l-0.1-0.2c-0.3-0.8-1.2-1.2-1.9-0.9l-0.6,0.2C226.4,121.2,226.6,121.8,226.8,122.5z"/>
					<g>
						<path class="st41" d="M232.9,143c0.1,0.2,0,0.3-0.2,0.3l-0.4,0c-0.2,0-0.4-0.2-0.4-0.3l-6.6-17.9c-0.1-0.2,0-0.4,0.1-0.5
							l0.3-0.2c0.1-0.1,0.3-0.1,0.4,0.1L232.9,143z"/>
					</g>
				</g>
			</g>
		</g>
	</g>
</g>
</svg>
