<?xml version="1.0" encoding="utf-8"?>
<!-- Generator: Adobe Illustrator 23.0.0, SVG Export Plug-In . SVG Version: 6.00 Build 0)  -->
<svg version="1.1" id="Capa_1" xmlns="http://www.w3.org/2000/svg" xmlns:xlink="http://www.w3.org/1999/xlink" x="0px" y="0px"
	 viewBox="0 0 300 300" style="enable-background:new 0 0 300 300;" xml:space="preserve">
<style type="text/css">
	.st0{fill:url(#SVGID_1_);}
	.st1{fill:url(#SVGID_2_);}
	.st2{fill:#FFFFFF;}
</style>
<g>
	<linearGradient id="SVGID_1_" gradientUnits="userSpaceOnUse" x1="138.62" y1="91.1409" x2="138.62" y2="206.8384">
		<stop  offset="0" style="stop-color:#3887FE"/>
		<stop  offset="1" style="stop-color:#2E3192"/>
	</linearGradient>
	<path class="st0" d="M246.6,89.6H91.1c-16.7,0-31.8,6.8-42.7,17.7c-10.5,10.5-17.2,24.9-17.7,40.8c-0.1,0.6-0.1,1.3-0.1,1.9
		c0,33.4,27.1,60.4,60.4,60.4h155.5V89.6z"/>
	<linearGradient id="SVGID_2_" gradientUnits="userSpaceOnUse" x1="29.6056" y1="150" x2="247.6344" y2="150">
		<stop  offset="0" style="stop-color:#3887FE"/>
		<stop  offset="1" style="stop-color:#2E3192"/>
	</linearGradient>
	<path class="st1" d="M246.6,89.6v120.8H91.1c-33.4,0-60.4-27-60.4-60.4c0-0.6,0-1.3,0.1-1.9c0.5-15.9,7.1-30.3,17.7-40.8
		c10.9-10.9,26-17.7,42.7-17.7H246.6 M247.6,88.5h-1.1H91.1c-16.4,0-31.8,6.4-43.5,18c-11.1,11.1-17.5,25.9-18,41.5
		c-0.1,0.7-0.1,1.3-0.1,2c0,33.9,27.6,61.5,61.5,61.5h155.5h1.1v-1.1V89.6V88.5L247.6,88.5z"/>
</g>
<path class="st2" d="M148.7,123.8c0.1-1.8,1.2-2.8,2.9-2.9c2.5-0.1,5-0.1,7.5-0.1c0.4,0,0.9,0,1.4,0c0-4.3,0-8.4,0-12.5
	c0-0.8-0.6-0.6-1-0.6c-3.5,0-7-0.1-10.5-0.1c-3.6,0-7.1,0.6-10.1,2.7c-4,2.8-5.7,6.9-6.1,11.6c-0.2,3-0.1,6-0.2,9c0,0.5,0,1,0,1.6
	h-7.5V146h7.4v38.2h15.9V146c3.4,0,6.6,0,9.8,0c0.7,0,1-0.2,1.1-0.9c0.2-2.2,0.5-4.4,0.7-6.7c0.2-1.9,0.4-3.9,0.6-6h-12.1
	C148.7,129.4,148.6,126.6,148.7,123.8z"/>
</svg>
