<?xml version="1.0" encoding="utf-8"?>
<!-- Generator: Adobe Illustrator 23.0.0, SVG Export Plug-In . SVG Version: 6.00 Build 0)  -->
<svg version="1.1" id="Capa_1" xmlns="http://www.w3.org/2000/svg" xmlns:xlink="http://www.w3.org/1999/xlink" x="0px" y="0px"
	 viewBox="0 0 300 300" style="enable-background:new 0 0 300 300;" xml:space="preserve">
<style type="text/css">
	.st0{fill:#BD220E;}
</style>
<g>
	<path class="st0" d="M109.1,141.1c0,0,0.9-1.6,2.3-4.3c6.7-12.2,25.3-46.7,26.3-50.6c1.3-4.8,1.6-38.3,1.6-38.3
		s23.3-14.7,32.2,24.5c8.9,39.3-2.7,44.2-2.7,44.2l8-0.1l56.2-5.4c6.8-0.7,13,4.8,13.8,12.1c0.8,7.4-4.1,13.8-10.9,14.5l-16.8,1.6
		l0.1,0.6l21.2-2c7.8-0.7,14.8,4.6,15.6,11.9c0.8,7.4-4.9,13.9-12.7,14.7l-1.8,0.2c5.7,0.9,10.5,5.5,11.2,11.8
		c0.8,7.3-4.2,13.8-11.1,14.5l-4.4,0.4c4.4,1.5,7.9,6,8.5,11.7c0.8,7.4-3.5,13.8-9.6,14.4l-35,3.4c-13.4,2.1-29.2,4-42,4
		c-19.1,0-31.1-3.2-40.6-6c-5.1-1.5-9.5-2.9-13.8-3.5c-1.7,0-2.3-1.4-2.3-2.3v-69.3C102.3,140.3,109.1,142.1,109.1,141.1z"/>
	<path class="st0" d="M90.5,220.2c4.1,0,7.4-3.1,7.4-7l0-73.5c0-3.9-3.3-7-7.4-7H60.8c-4.1,0-7.4,3.1-7.4,7l0,73.5
		c0,3.9,3.3,7,7.4,7H90.5z"/>
</g>
</svg>
