<?xml version="1.0" encoding="utf-8"?>
<!-- Generator: Adobe Illustrator 25.0.0, SVG Export Plug-In . SVG Version: 6.00 Build 0)  -->
<svg version="1.1" id="Capa_1" xmlns="http://www.w3.org/2000/svg" xmlns:xlink="http://www.w3.org/1999/xlink" x="0px" y="0px"
	 viewBox="0 0 300 300" style="enable-background:new 0 0 300 300;" xml:space="preserve">
<style type="text/css">
	.st0{fill:#FCFCFC;}
	.st1{fill:#8C8C8C;}
	.st2{fill:#AA200A;}
</style>
<path class="st0" d="M93.4,218.2c-33.9,0-61.4-27.5-61.4-61.4c0-0.7,0-1.3,0.1-2c0.5-15.6,6.8-30.3,18-41.4c11.6-11.6,27-18,43.4-18
	h157.2v122.8L93.4,218.2L93.4,218.2z"/>
<path class="st1" d="M250.1,95.9v121.7H93.4c-33.6,0-60.9-27.2-60.9-60.9c0-0.6,0-1.3,0.1-1.9c0.5-16,7.2-30.5,17.8-41.1
	c11-11,26.2-17.8,43-17.8L250.1,95.9 M251.1,94.8h-1H93.4c-16.5,0-32.1,6.4-43.8,18.1C38.4,124.1,32,139,31.5,154.7
	c-0.1,0.7-0.1,1.3-0.1,2c0,34.1,27.8,61.9,61.9,61.9h156.8h1.1v-1.1V95.9v-1.1H251.1z"/>
<path id="profile_x5F_plus_15_" class="st2" d="M158.9,190.9h9.8v9.8h-9.8v9.8h-9.8v-9.8h-9.8v-9.8h9.8v-9.8h9.8V190.9z
	 M202.8,200.6c-8.5,0-15.9,0-24.4,0v-9.8H192c-4-18.5-19.5-29.3-38-29.3s-34,10.8-38,29.3h13.6v9.8c-8.5,0-15.9,0-24.4,0
	c0-22.2,12.6-38.8,30.5-45.5c-6.7-5.4-10.9-13.6-10.9-22.8c0-16.2,13.1-29.3,29.3-29.3s29.3,13.1,29.3,29.3
	c0,9.2-4.3,17.5-10.9,22.8C190.2,161.8,202.8,178.4,202.8,200.6z M173.5,132.3c0-10.8-8.8-19.5-19.5-19.5
	c-10.8,0-19.5,8.8-19.5,19.5s8.8,19.5,19.5,19.5S173.5,143.1,173.5,132.3z"/>
</svg>
