<?xml version="1.0" encoding="utf-8"?>
<!-- Generator: Adobe Illustrator 23.0.0, SVG Export Plug-In . SVG Version: 6.00 Build 0)  -->
<svg version="1.1" id="Capa_1" xmlns="http://www.w3.org/2000/svg" xmlns:xlink="http://www.w3.org/1999/xlink" x="0px" y="0px"
	 viewBox="0 0 300 300" style="enable-background:new 0 0 300 300;" xml:space="preserve">
<style type="text/css">
	.st0{fill:#FFFFFF;}
</style>
<g>
	<circle class="st0" cx="158.1" cy="92.3" r="28.4"/>
	<path class="st0" d="M184,179.5l31.4-54.9c17.4-30.5,7.7-68.9-22.8-88c-21-13.1-48.1-13.1-69.8,0.5c-29.8,18.6-39.4,57-22,87.5
		l31.4,54.9c-30.3,5-49.7,18.6-49.7,35.7c0,24.8,38,37.8,75.6,37.8s75.6-13,75.6-37.8C233.7,198.1,214.2,184.5,184,179.5z
		 M133.6,52.6c7.3-4.6,15.7-6.9,24.3-6.9c8.7,0,17.6,2.4,25.5,7.4c21.1,13.2,28,40.5,15.6,62.1l-40.9,71.5l-40.9-71.5
		C104.9,93.6,111.7,66.3,133.6,52.6z M158.1,234.1c-35.2,0-56.7-12.2-56.7-18.9c0-5.1,13.7-15,40.9-18l7.6,13.3
		c1.7,2.9,4.8,4.8,8.2,4.8c3.4,0,6.5-1.8,8.2-4.8l7.6-13.3c27.2,3,40.9,12.9,40.9,18C214.8,221.9,193.3,234.1,158.1,234.1z"/>
</g>
</svg>
