<?xml version="1.0" encoding="utf-8"?>
<!-- Generator: Adobe Illustrator 23.0.0, SVG Export Plug-In . SVG Version: 6.00 Build 0)  -->
<svg version="1.1" id="Capa_1" xmlns="http://www.w3.org/2000/svg" xmlns:xlink="http://www.w3.org/1999/xlink" x="0px" y="0px"
	 viewBox="0 0 300 300" style="enable-background:new 0 0 300 300;" xml:space="preserve">
<g>
	<g>
		<g>
			<path d="M176.3,99.9c0.5-2.6,2.3-4.7,4.7-5.3l5.5-1.2v4.2L176.3,99.9z"/>
			<path d="M205.1,99.4h6.3v4c0,4.2-2.6,7.6-6,8.3c1.4-3.4,1.4-7.4,0.1-11.1L205.1,99.4z"/>
			<path d="M173.2,181.5l4.2,2l-1.1,4.1c-3.8-1-7.5-2.6-10.7-4.6C167.6,180.9,170.5,180.2,173.2,181.5z"/>
			<path d="M68.8,168.9L68.8,168.9l0-18.7c2.4,5,5.2,9.5,8.5,13.6C75.4,166.9,72.3,168.9,68.8,168.9z"/>
			<path d="M84.3,184.7c8.3,0,15.8,4.4,20.8,11.4c0.3,0.4,0.6,0.9,0.9,1.3c0.3,0.4,0.6,0.9,0.8,1.4l8.1-10.7c3.6,1.1,7.3,2,10.9,2.7
				c1.4,0.3,2.4,1.7,2.4,3.4v13.8h-9.4c-2.2,0-4.1,2.1-4.1,4.8h56.8c0-2.6-1.8-4.8-4.1-4.8h-33.3v-14.6c0-3.1-1.9-5.7-4.5-6.2
				c-4.4-0.8-11.8-2.6-20.7-5.8h0l-0.8-0.3h-4.8h-4.3H71.3c-3.9,0-7.1-3.7-7.1-8.3H86h2.5h2.6c-4.6-3.3-8.8-7.3-12.4-12
				c-3.7-4.8-6.8-10.2-9.3-16.1c-1.2-3-2.3-6.2-3.1-9.4h14c0,0,25.5,26.3,62.1,26.3c0,0-15.8-3.1-31.4-12.3c-4.1-2.4-7.5-6.3-9.8-11
				l-1.5-3c0,0,2.2-0.5,5.8-0.5c4.4,0,11,0.8,18.3,4.2c8.2,3.8,13.2,4.7,16.9,4.7c2.3,0,4-0.3,5.7-0.4l9.1,10.6
				c3.3,3.9,3.2,10.3-0.3,13.9l-6.1,6.4c0,0,6,6.6,14.7,11.8c3.5,2.1,7.5,3.9,11.6,5c1.9,0.5,3.8,0.8,5.7,1v13.8
				c0,0,0.3,0.1,0.7,0.1c2,0,7.7-1.6,7.7-19.3v-17.6h4.2c4,0,6.7-4.9,5-9.1l-20.9-50.9l-3.9,0.8v4.7c0,3.2-2.2,5.8-5,5.8v-15.3
				l20.2-4.5v-0.7v-6.9V72.9c0-1.1,0.7-1.7,1.5-1.7c0.5,0,1,0.3,1.3,1l10,27.1l0.9,2.5c1.2,3.3,0.9,7-0.8,9.9
				c-0.1,0.2-0.3,0.5-0.5,0.7c-1.4,1.9-3.6,3.4-7.1,3.4v2.8c0,0,0.6-0.1,1.6-0.1c5.3,0,23.2,2,36.8,27c0,0-1.4,0.3-3.6,0.3
				c-4.7,0-13.1-1.2-19.6-8.9c-5.8-6.9-10.9-8.3-14.1-8.3c-2,0-3.1,0.5-3.1,0.5s7.9,1.3,13.3,11.7c5,9.5,16.9,14.8,28.8,14.8
				c1.1,0,2.2,0,3.3-0.1v0.1c0,5.8-3.1,11-7.6,13.2c-2.7,1.3-5.4,3.5-7.1,7c0.5-0.2,0.9-0.3,1.4-0.5c0.2-0.1,0.4-0.1,0.6-0.2
				c0.8-0.2,1.5-0.4,2.3-0.6c8.5-1.8,17.2,0,24.8,5.2c-1.6,3.2-5,4.6-8,3.3c-5.8-2.5-12.1-2.9-18.1-1c-0.4,0.1-0.8,0.3-1.2,0.4
				l1.3,3.2c2.4-0.8,4.9-1.2,7.5-1.2c1.7,0,3.4,0.2,5,0.5c15.2,3.2,25.2,20.3,22.5,38.1c-2.4,15.6-14,26.9-27.5,26.9c0,0,0,0,0,0
				c-1.7,0-3.4-0.2-5-0.5c-15.2-3.2-25.2-20.3-22.5-38.1c0.6-3.7,1.7-7.2,3.2-10.4c0.3-0.6,0.6-1.1,0.9-1.7c1.9-3.4,4.3-6.4,7.2-8.8
				l-1.3-3.1c-2.3,1.9-4.4,4.2-6.2,6.8c-0.5,0.7-0.9,1.4-1.3,2.1c-0.4,0.8-0.9,1.5-1.3,2.3c0,0-10.7,7.9-10.7,23.5h-85.6
				c-0.1,0.6-0.2,1.1-0.3,1.6c-0.1,0.6-0.2,1.1-0.3,1.6c-3.1,13.8-13.8,24.1-26.5,24.1c-15.1,0-27.4-14.6-27.4-32.5
				S69.2,184.7,84.3,184.7z M215.6,213.5c-0.6,3.6-0.3,7.2,0.6,10.5l10.8-6.1l-11.3-4.6C215.7,213.3,215.7,213.4,215.6,213.5z
				 M252.3,221.3c0.6-3.6,0.3-7.2-0.6-10.5l-10.8,6.1l11.3,4.6C252.2,221.5,252.2,221.4,252.3,221.3z M237.3,195.9
				c-1.1-0.2-2.2-0.4-3.4-0.4c-1.2,0-2.3,0.1-3.4,0.4l4.1,9.9l2.9-9.9C237.4,196,237.4,195.9,237.3,195.9z M242.6,198l-4,13.3
				l10.8-6.1C247.7,202.2,245.3,199.7,242.6,198z M250.4,227.5l-11.3-4.7l5.2,12.8C246.8,233.6,249,230.8,250.4,227.5z M230.6,238.9
				c1.1,0.2,2.2,0.4,3.4,0.4h0c1.9,0,3.7-0.4,5.5-1l-5.1-12.7l-3.9,13.2C230.5,238.9,230.5,238.9,230.6,238.9z M225.3,236.8l4-13.3
				l-10.8,6.1C220.2,232.6,222.6,235.1,225.3,236.8z M217.5,207.3l8.4,3.5l-4.1-10C220.1,202.6,218.6,204.8,217.5,207.3z M99.4,205
				l-8.5,9.9h11.5C102.1,211.3,101.1,207.9,99.4,205z M69.9,203.9c-2,3.1-3.4,6.9-3.7,11h13.1L69.9,203.9z M82.7,211v-15.4
				c-3.5,0.4-6.8,1.9-9.4,4.4L82.7,211z M87.5,195.8V211l8.7-10.2C93.8,198.3,90.8,196.5,87.5,195.8z M90.9,220.6l8,9.4
				c1.7-2.7,2.9-5.9,3.3-9.4H90.9z M87.5,224.6v13.8c3-0.6,5.8-2.2,8.1-4.3L87.5,224.6z M82.7,238.7v-14.1l-8.8,10.3
				C76.5,237,79.5,238.4,82.7,238.7z M70.4,231.1l8.9-10.5h-13C66.9,224.6,68.3,228.2,70.4,231.1z"/>
		</g>
	</g>
	<rect x="38.1" y="71.2" width="63.9" height="63.9"/>
</g>
</svg>
