<?xml version="1.0" encoding="utf-8"?>
<!-- Generator: Adobe Illustrator 23.0.0, SVG Export Plug-In . SVG Version: 6.00 Build 0)  -->
<svg version="1.1" id="Capa_1" xmlns="http://www.w3.org/2000/svg" xmlns:xlink="http://www.w3.org/1999/xlink" x="0px" y="0px"
	 viewBox="0 0 300 300" style="enable-background:new 0 0 300 300;" xml:space="preserve">
<style type="text/css">
	.st0{fill:#FFFFFF;}
</style>
<g>
	<g>
		<g>
			<g>
				<path class="st0" d="M116.8,226.2c-10.6,0-19.2,8.6-19.2,19.2s8.6,19.2,19.2,19.2c10.6,0,19.2-8.6,19.2-19.2
					S127.4,226.2,116.8,226.2z M116.8,256.3c-6,0-10.9-4.9-10.9-10.9s4.9-10.9,10.9-10.9c6,0,10.9,4.9,10.9,10.9
					S122.9,256.3,116.8,256.3z"/>
			</g>
		</g>
		<g>
			<g>
				<path class="st0" d="M207.6,226.2c-10.6,0-19.2,8.6-19.2,19.2s8.6,19.2,19.2,19.2s19.2-8.6,19.2-19.2S218.1,226.2,207.6,226.2z
					 M207.6,256.3c-6,0-10.9-4.9-10.9-10.9s4.9-10.9,10.9-10.9s10.9,4.9,10.9,10.9S213.6,256.3,207.6,256.3z"/>
			</g>
		</g>
		<g>
			<g>
				<path class="st0" d="M228.7,183.1c0,0,4.6,0.3,7.4-8.3c2.8-8.6,25.5-75.4,25.5-75.4s0.6-7.7-8-7.4c-8.6,0.3-163.9,0.9-163.9,0.9
					L77.7,40l-34.5-4.6c0,0-8.3,1.2-3.1,10.2l28,4.9L97,184.3l-20.9,26.5c0,0-2.8,7.4,3.4,9.8h156c0,0,4.6,1.2,4.6-4.6
					c0-5.8-5.2-6.5-5.2-6.5l-142.7,0.3l16-18.8L228.7,183.1z M238.6,104.7l9.1-0.3l-5.7,15.9h-3.4V104.7z M238,125.5h2.6l-2.6,4
					C238,129.5,238,126.9,238,125.5z M138,177l-17.9,0.9v-12H138V177z M138,160.5h-17.9v-13.4H138V160.5z M161.8,160.5H144v-13.4
					h17.8V160.5z M184.8,174l-17.1,0.7v-8.3l17.1-0.5V174z M214.9,104.3h17.7v15.1h-17.7V104.3z M214.7,125.5h18v14.9l-18,0.6V125.5
					z M215.1,146.7h17.6l-5,13.8h-13L215.1,146.7z M214.7,166.5l11.4-0.5l-1.9,5.6l-9.4,0.4V166.5z M191.7,104.3h17.7v15.1h-17.7
					V104.3z M191.2,126h17.7V141h-17.7V126z M191.2,146.7h17.7v13.8h-17.7V146.7z M191.2,166.5h17.7v5.8l-17.7,1.4
					C191.2,173.7,191.2,166.9,191.2,166.5z M167.6,104.3h17.7v15.1h-17.7V104.3z M167.6,126l17.8-0.2v15.7l-17.8-0.4V126z
					 M167.1,146.7h17.7l0.6,13.8h-18.4V146.7z M143.8,105h17.7v15.1h-17.7V105z M161.3,126l0.5,15.1l-17.8,0.4l-0.4-15.5H161.3z
					 M143.6,165.9h17.7l0.5,9.3l-18.3,0.8V165.9z M120,104.3h17.7v15.1H120V104.3z M119.4,125.8h19.1v15.7h-19.1V125.8z M91.9,104.5
					l21.9,0.5v15.1H95.3L91.9,104.5z M96.7,126.3l17.1-0.5V141l-13.3,0.4L96.7,126.3z M101.6,147.1h12.9v13.2h-10.2L101.6,147.1z
					 M113.8,165.9l0.7,12.9h-5.2l-3.3-12.4L113.8,165.9z"/>
			</g>
		</g>
	</g>
</g>
</svg>
