<?xml version="1.0" encoding="utf-8"?>
<!-- Generator: Adobe Illustrator 23.0.0, SVG Export Plug-In . SVG Version: 6.00 Build 0)  -->
<svg version="1.1" id="Capa_1" xmlns="http://www.w3.org/2000/svg" xmlns:xlink="http://www.w3.org/1999/xlink" x="0px" y="0px"
	 viewBox="0 0 300 300" style="enable-background:new 0 0 300 300;" xml:space="preserve">
<style type="text/css">
	.st0{fill:#BD220E;}
</style>
<g>
	<g>
		<g>
			<path class="st0" d="M184.2,94.1c0.6-2.8,2.5-5.1,5-5.6l5.8-1.3v4.5L184.2,94.1z"/>
			<path class="st0" d="M215,93.6h6.7v4.2c0,4.5-2.8,8.1-6.4,8.9c1.5-3.6,1.5-8,0.1-11.8L215,93.6z"/>
			<path class="st0" d="M180.9,181.4l4.5,2.2l-1.1,4.4c-4.1-1-8-2.8-11.5-4.9C174.9,180.8,178,180,180.9,181.4z"/>
			<path class="st0" d="M69.2,167.9L69.2,167.9l0-20c2.5,5.3,5.6,10.2,9.1,14.6C76.3,165.8,72.9,167.9,69.2,167.9z"/>
			<path class="st0" d="M85.8,184.8c8.9,0,16.9,4.7,22.3,12.2c0.3,0.5,0.6,0.9,1,1.4c0.3,0.5,0.6,1,0.9,1.5l8.6-11.5
				c3.9,1.2,7.8,2.2,11.7,2.9c1.5,0.3,2.6,1.8,2.6,3.6v14.7h-10.1c-2.4,0-4.4,2.3-4.4,5.1h60.8c0-2.8-2-5.1-4.4-5.1h-35.6V194
				c0-3.3-2-6.1-4.8-6.6c-4.7-0.9-12.6-2.7-22.1-6.2h0l-0.9-0.3h-5.1h-4.6H71.9c-4.2,0-7.5-4-7.5-8.9h23.3h2.7h2.8
				c-4.9-3.5-9.4-7.8-13.3-12.8c-4-5.1-7.3-10.9-9.9-17.3c-1.3-3.2-2.4-6.6-3.3-10.1h14.9c0,0,27.3,28.1,66.5,28.1
				c0,0-16.9-3.3-33.6-13.2c-4.4-2.6-8-6.7-10.5-11.7l-1.6-3.2c0,0,2.3-0.6,6.2-0.6c4.7,0,11.8,0.8,19.5,4.5c8.8,4.1,14.2,5,18.1,5
				c2.4,0,4.3-0.3,6.1-0.5l9.7,11.4c3.5,4.2,3.4,11-0.4,14.9l-6.5,6.8c0,0,6.4,7.1,15.7,12.6c3.8,2.2,8,4.2,12.4,5.4
				c2,0.5,4.1,0.9,6.1,1v14.8c0,0,0.3,0.1,0.8,0.1c2.2,0,8.2-1.7,8.2-20.6v-18.8h4.5c4.3,0,7.1-5.2,5.3-9.8l-22.4-54.4l-4.2,0.9v5
				c0,3.5-2.4,6.3-5.3,6.3V99.5l21.6-4.8v-0.7v-7.3V65.3c0-1.1,0.8-1.8,1.6-1.8c0.6,0,1.1,0.3,1.4,1.1l10.7,29l1,2.7
				c1.3,3.5,1,7.5-0.9,10.6c-0.2,0.3-0.3,0.5-0.5,0.7c-1.5,2-3.9,3.6-7.6,3.6v3c0,0,0.6-0.1,1.7-0.1c5.7,0,24.8,2.1,39.4,28.9
				c0,0-1.5,0.3-3.8,0.3c-5,0-14-1.3-20.9-9.6c-6.2-7.4-11.7-8.8-15-8.8c-2.1,0-3.3,0.6-3.3,0.6s8.4,1.4,14.3,12.5
				c5.3,10.2,18,15.8,30.8,15.8c1.2,0,2.4,0,3.5-0.1v0.1c0,6.2-3.3,11.8-8.2,14.1c-2.9,1.4-5.8,3.7-7.5,7.5c0.5-0.2,1-0.3,1.5-0.5
				c0.2-0.1,0.4-0.1,0.6-0.2c0.8-0.2,1.6-0.4,2.4-0.6c9.1-1.9,18.4,0,26.5,5.6c-1.7,3.5-5.3,5-8.6,3.6c-6.2-2.7-12.9-3.1-19.4-1.1
				c-0.4,0.1-0.8,0.3-1.3,0.4l1.4,3.4c2.6-0.8,5.3-1.3,8.1-1.3c1.8,0,3.6,0.2,5.4,0.6c16.2,3.5,27,21.8,24.1,40.8
				c-2.6,16.7-14.9,28.8-29.4,28.8c0,0,0,0,0,0c-1.8,0-3.6-0.2-5.4-0.6c-16.2-3.5-27-21.8-24.1-40.8c0.6-4,1.8-7.7,3.4-11.1
				c0.3-0.6,0.6-1.2,0.9-1.8c2-3.7,4.7-6.9,7.7-9.4l-1.4-3.3c-2.5,2-4.7,4.5-6.6,7.2c-0.5,0.7-0.9,1.4-1.4,2.2
				c-0.5,0.8-0.9,1.6-1.4,2.5c0,0-11.5,8.5-11.5,25.1h-91.5c-0.1,0.6-0.2,1.2-0.3,1.8c-0.1,0.6-0.2,1.2-0.4,1.8
				c-3.4,14.8-14.8,25.7-28.3,25.7c-16.2,0-29.3-15.6-29.3-34.7S69.7,184.8,85.8,184.8z M226.3,215.7c-0.6,3.9-0.3,7.7,0.6,11.2
				l11.5-6.5l-12.1-5C226.3,215.5,226.3,215.6,226.3,215.7z M265.5,224c0.6-3.9,0.3-7.7-0.6-11.2l-11.5,6.5l12.1,5
				C265.4,224.2,265.5,224.1,265.5,224z M249.4,196.9c-1.2-0.3-2.4-0.4-3.6-0.4c-1.2,0-2.5,0.1-3.6,0.4l4.3,10.6l3.2-10.6
				C249.6,196.9,249.5,196.9,249.4,196.9z M255.1,199.1l-4.2,14.2l11.5-6.5C260.6,203.6,258.1,201,255.1,199.1z M263.5,230.7
				l-12.1-5l5.5,13.6C259.7,237.1,262,234.2,263.5,230.7z M242.3,242.9c1.2,0.3,2.4,0.4,3.6,0.4h0c2,0,4-0.4,5.8-1.1l-5.5-13.5
				l-4.2,14.1C242.2,242.8,242.2,242.8,242.3,242.9z M236.7,240.6l4.2-14.2l-11.5,6.5C231.2,236.1,233.7,238.8,236.7,240.6z
				 M228.2,209.1l9,3.7l-4.4-10.7C231,204,229.4,206.4,228.2,209.1z M102,206.6l-9.1,10.6h12.3C104.9,213.3,103.7,209.7,102,206.6z
				 M70.4,205.4c-2.2,3.3-3.6,7.4-4,11.8h14L70.4,205.4z M84.1,213v-16.5c-3.8,0.4-7.2,2.1-10.1,4.7L84.1,213z M89.3,196.8V213
				l9.3-10.9C96,199.4,92.8,197.5,89.3,196.8z M92.9,223.3l8.6,10.1c1.8-2.9,3.1-6.3,3.6-10.1H92.9z M89.3,227.6v14.8
				c3.2-0.7,6.2-2.3,8.6-4.6L89.3,227.6z M84.1,242.6v-15.1l-9.4,11C77.4,240.8,80.6,242.3,84.1,242.6z M70.9,234.5l9.5-11.2H66.6
				C67.2,227.5,68.7,231.4,70.9,234.5z"/>
		</g>
	</g>
	<rect x="36.4" y="63.4" class="st0" width="68.4" height="68.4"/>
</g>
</svg>
