<?xml version="1.0" encoding="utf-8"?>
<!-- Generator: Adobe Illustrator 23.0.0, SVG Export Plug-In . SVG Version: 6.00 Build 0)  -->
<svg version="1.1" id="Capa_1" xmlns="http://www.w3.org/2000/svg" xmlns:xlink="http://www.w3.org/1999/xlink" x="0px" y="0px"
	 viewBox="0 0 300 300" style="enable-background:new 0 0 300 300;" xml:space="preserve">
<g>
	<circle cx="143.3" cy="96.7" r="26"/>
	<path d="M167.1,176.6l28.8-50.4c16-27.9,7.1-63.2-20.9-80.7c-19.2-12-44.1-12-64,0.4C83.7,63,74.8,98.3,90.8,126.2l28.8,50.4
		C91.8,181.2,74,193.7,74,209.3c0,22.8,34.9,34.7,69.3,34.7s69.3-11.9,69.3-34.7C212.7,193.7,194.8,181.2,167.1,176.6z M120.9,60.3
		c6.7-4.2,14.4-6.3,22.2-6.3c8,0,16.1,2.2,23.4,6.8c19.4,12.1,25.7,37.1,14.3,56.9l-37.5,65.6l-37.5-65.6
		C94.5,97.8,100.8,72.8,120.9,60.3z M143.3,226.7c-32.3,0-52-11.2-52-17.3c0-4.7,12.5-13.8,37.5-16.5l6.9,12.2
		c1.5,2.7,4.4,4.4,7.5,4.4c3.1,0,6-1.7,7.5-4.4l6.9-12.2c25,2.8,37.5,11.8,37.5,16.5C195.3,215.5,175.6,226.7,143.3,226.7z"/>
</g>
</svg>
