<?xml version="1.0" encoding="utf-8"?>
<!-- Generator: Adobe Illustrator 23.0.0, SVG Export Plug-In . SVG Version: 6.00 Build 0)  -->
<svg version="1.1" id="Capa_1" xmlns="http://www.w3.org/2000/svg" xmlns:xlink="http://www.w3.org/1999/xlink" x="0px" y="0px"
	 viewBox="0 0 300 300" style="enable-background:new 0 0 300 300;" xml:space="preserve">
<style type="text/css">
	.st0{fill:#FFFFFF;}
	.st1{fill:url(#SVGID_1_);}
	.st2{fill:none;stroke:#BD220E;stroke-width:8;stroke-miterlimit:10;}
	.st3{fill:#752118;}
	.st4{fill:#4F1610;}
	.st5{fill:#3B100C;}
	.st6{fill:#AF995B;}
	.st7{fill:#BE1622;}
	.st8{fill:#DEC273;}
	.st9{fill:#73312A;}
	.st10{opacity:0.3;fill:#FFFFFF;}
	.st11{opacity:0.25;fill:#1D1D1B;}
	.st12{fill:#DADADA;}
	.st13{fill:#C6C6C6;}
	.st14{fill:#B2B2B2;}
	.st15{fill:#3C3C3B;}
	.st16{fill:#006633;}
	.st17{fill:#F6F6F6;}
	.st18{opacity:0.5;fill:#F6F6F6;}
	.st19{opacity:0.6;fill:#F6F6F6;}
	.st20{opacity:0.6;}
	.st21{opacity:0.4;fill:#FFFFFF;}
	.st22{opacity:0.1;fill:#1D1D1B;}
	.st23{fill:#C5E3E2;}
	.st24{fill:#DCFAF9;}
	.st25{fill:url(#SVGID_2_);}
	.st26{opacity:0.5;}
	.st27{opacity:0.6;fill:#FFFFFF;}
	.st28{opacity:5.000000e-02;fill:#1D1D1B;}
	.st29{fill:url(#SVGID_3_);}
	.st30{fill:#EDEDED;}
	.st31{fill:#EEEEEE;}
	.st32{fill:#EFEFEF;}
	.st33{fill:#F0F0F0;}
	.st34{fill:#F1F1F1;}
	.st35{fill:#F2F2F2;}
	.st36{fill:#F3F3F3;}
	.st37{fill:#F4F4F4;}
	.st38{fill:#F5F5F5;}
	.st39{fill:#F7F7F7;}
	.st40{fill:#F8F8F8;}
	.st41{fill:#F9F9F9;}
	.st42{fill:#FAFAFA;}
	.st43{fill:#FBFBFB;}
	.st44{fill:#FCFCFC;}
	.st45{fill:#FDFDFD;}
	.st46{fill:#FEFEFE;}
	.st47{opacity:0.5;fill:#FFFFFF;}
	.st48{opacity:0.3;fill:#DADADA;}
	.st49{opacity:0.5;fill:#C5E3E2;}
</style>
<circle class="st0" cx="150" cy="153.3" r="128.4"/>
<g>
	<radialGradient id="SVGID_1_" cx="149.8961" cy="153.7859" r="93.96" gradientUnits="userSpaceOnUse">
		<stop  offset="0" style="stop-color:#A9A6A4"/>
		<stop  offset="0.3093" style="stop-color:#ABA9A7"/>
		<stop  offset="0.4999" style="stop-color:#B3B1AF"/>
		<stop  offset="0.6584" style="stop-color:#C1BFBE"/>
		<stop  offset="0.7992" style="stop-color:#D5D3D2"/>
		<stop  offset="0.9271" style="stop-color:#EDEDEC"/>
		<stop  offset="1" style="stop-color:#FFFFFF"/>
	</radialGradient>
	<path class="st1" d="M243.9,153.8c0,51.8-42.3,94-94,93.9c-51.8-0.1-94-42.3-93.9-94.1c0.1-51.8,42.2-93.8,93.9-93.9
		C201.6,59.8,243.9,102,243.9,153.8"/>
	<path class="st2" d="M276.8,153.8c0,69.9-57.1,126.9-126.9,126.8c-69.9-0.1-126.9-57.2-126.8-127C23.2,83.8,80,27,149.9,26.9
		C219.8,26.9,276.8,83.9,276.8,153.8z"/>
	<g>
		<g>
			<g>
				<path class="st3" d="M65.7,219.5c-2.1,0-3.8-1.6-4.1-3.7L57,169.3c-0.8-8,2.2-15.8,8.2-21.2l6.9-6.2c3.3-3,5.3-7.3,5.3-11.8v-23
					c0-0.7,0.5-1.2,1.2-1.2h18.5c0.7,0,1.2,0.5,1.2,1.2v23c0,4.5,1.9,8.8,5.3,11.8l6.9,6.2c5.9,5.4,9,13.3,8.2,21.2l-4.7,46.6
					c-0.2,2.1-2,3.7-4.1,3.7H65.7z"/>
				<path class="st4" d="M78.2,134.2c-0.8,3.3-2.6,6.4-5.2,8.7l-6.9,6.2c-5.6,5.1-8.5,12.5-7.7,20l4.7,46.6c0.1,1.3,1.3,2.4,2.6,2.4
					c7.4-2.4,14.7-3.9,22.1-4c7.4,0.1,14.7,1.6,22.1,4c1.4,0,2.5-1,2.6-2.4l4.7-46.6c0.7-7.5-2.1-15-7.7-20l-6.9-6.2
					c-2.6-2.3-4.4-5.4-5.2-8.7H78.2z"/>
				<rect x="78.8" y="92.6" class="st5" width="18" height="13.3"/>
				<path class="st4" d="M78.9,104.3c-0.9,0-1.6-0.7-1.6-1.6v-6c0-0.8,0.6-1.4,1.4-1.4h18.2c0.8,0,1.4,0.6,1.4,1.4v6
					c0,0.9-0.7,1.6-1.6,1.6H78.9z"/>
				<path class="st5" d="M78.8,93.9c-0.8,0-1.5-0.7-1.5-1.5v-4.3c0-0.4,0.3-0.9,0.7-1c3.3-1.6,6.5-2.4,9.8-2.4
					c3.3,0,6.6,0.8,9.8,2.4c0.4,0.2,0.7,0.6,0.7,1v4.3c0,0.8-0.7,1.5-1.5,1.5H78.8z"/>
				<path class="st5" d="M77.3,127.4V107c0-0.7,0.5-1.2,1.2-1.2h18.5c0.7,0,1.2,0.5,1.2,1.2v20.4H77.3z"/>
				<rect x="77.3" y="122.6" class="st6" width="20.9" height="2.4"/>
				<rect x="77.3" y="108.5" class="st6" width="20.9" height="2.4"/>
				<path class="st5" d="M87.8,211.2c-15.9-10.1-22.3-26.7-21.2-48.3c7.1-2.2,14.1-3.6,21.2-3.7c7.1,0.1,14.1,1.4,21.2,3.7
					C110,184.4,103.7,201,87.8,211.2z"/>
				<path class="st6" d="M87.8,207.7c-12.9-9-18.9-23-18.4-42.7c6.5-1.9,12.5-2.9,18.4-3c5.9,0.1,11.9,1.1,18.4,3
					C106.7,184.7,100.7,198.7,87.8,207.7z"/>
				<path class="st5" d="M87.8,205.2c-11-8.5-16.4-21.3-16.4-38.9c5.7-1.5,11.1-2.3,16.4-2.4c5.3,0.1,10.6,0.9,16.4,2.4
					C104.2,183.9,98.8,196.6,87.8,205.2z"/>
				<path class="st7" d="M87.8,193.7c-7.4,0-14.7,0.8-21.9,2.4c0.9-2.2,2-4.4,3.1-6.5c-1.8-1.6-3.7-3.2-5.6-4.8
					c8.1-1.8,16.3-2.7,24.5-2.7c8.2,0,16.4,0.9,24.5,2.7c-1.9,1.6-3.8,3.2-5.6,4.8c1.1,2.2,2.1,4.3,3.1,6.5
					C102.5,194.5,95.1,193.7,87.8,193.7z"/>
				<path class="st8" d="M87.8,192.2c-6.5,0-13.1,0.6-19.5,1.9c0.6-1.3,1.2-2.6,1.9-3.9l0.5-1l-0.8-0.7c-1.1-1-2.2-2-3.3-2.9
					c7-1.4,14.1-2.1,21.2-2.1c7.1,0,14.2,0.7,21.2,2.1c-1.1,1-2.2,1.9-3.3,2.9l-0.8,0.7l0.5,1c0.7,1.3,1.3,2.6,1.9,3.9
					C100.8,192.9,94.3,192.2,87.8,192.2z"/>
				<path class="st7" d="M85,119.9c-1.8,0-3.3-1.5-3.3-3.3l0,0c0-1.8,1.5-3.3,3.3-3.3h5.7c1.8,0,3.3,1.5,3.3,3.3l0,0
					c0,1.8-1.5,3.3-3.3,3.3H85z"/>
				<path class="st9" d="M81.3,173.3c0,0-0.2,0.2-0.6,0.2c-0.4,0-1.2-0.2-1.5-1c-0.3-0.8,0.1-2.1,1.4-2.4c1.2-0.4,2.8,0.5,3.1,2
					c0.2,0.7,0.2,1.6-0.2,2.4c-0.4,0.8-1.3,1.3-2.1,1.5c-0.8,0.2-1.6,0.6-2.7,0.4c-0.5-0.2-1-0.5-1.2-1c-0.3-0.5-0.4-0.9-0.5-1.4
					c-0.1-0.9-0.3-1.9-0.4-2.8c-0.1-0.5-0.2-1-0.1-1.5c0-0.5,0.2-1.2,0.8-1.6c1.1-0.6,2.1-0.5,3.2-0.6c1-0.1,2.1-0.3,3.3,0.1
					c0.3,0.2,0.6,0.3,0.8,0.5l0.3,0.4l0.2,0.4c0.3,0.5,0.4,1.1,0.5,1.6c0.1,1,0.2,2.1,0.3,3.1c0,1,0,2,0,3c0,0.5,0,1-0.3,1.5
					c-0.2,0.5-0.7,1-1.2,1.1c-1,0.3-1.9,0.2-2.8,0.3c-0.9,0-1.7,0.1-2.6,0.1c-0.8,0-1.7,0-2.5-0.4c-0.8-0.3-1.3-1.2-1.5-1.9
					c-0.4-2.8-0.6-5-0.7-6.6c-0.1-1.5-0.2-2.4-0.1-2.4c0.1,0,0.2,0.8,0.5,2.4c0.3,1.5,0.5,3.8,1,6.5c0.2,0.6,0.5,1.2,1.1,1.4
					c0.6,0.3,1.4,0.3,2.2,0.3c0.8-0.1,1.6-0.1,2.5-0.2c0.8-0.1,1.8-0.1,2.5-0.3c0.8-0.2,1-1,1-2c0-1,0-1.9,0-2.9c-0.1-1-0.2-2-0.3-3
					c-0.1-1-0.5-1.9-1.3-2.3c-0.8-0.3-1.9-0.2-2.9-0.1c-1,0.1-2.1,0.1-2.8,0.5c-0.6,0.4-0.5,1.4-0.4,2.3c0.1,0.9,0.3,1.9,0.4,2.8
					c0.1,0.9,0.4,1.6,1.1,1.8c0.7,0.2,1.5-0.1,2.3-0.3c0.8-0.2,1.4-0.6,1.7-1.1c0.3-0.6,0.3-1.3,0.2-1.9c-0.2-1.3-1.5-2-2.4-1.7
					c-1,0.2-1.4,1.2-1.2,1.9c0.2,0.7,0.8,0.9,1.2,1C81.1,173.3,81.3,173.2,81.3,173.3z"/>
				<path class="st9" d="M94.2,173.3c0,0,0.2,0.2,0.6,0.2c0.4,0,1.2-0.2,1.5-1c0.3-0.8-0.1-2.1-1.4-2.4c-1.2-0.4-2.8,0.5-3.1,2
					c-0.2,0.7-0.2,1.6,0.2,2.4c0.4,0.8,1.3,1.3,2.1,1.5c0.8,0.2,1.6,0.6,2.7,0.4c0.5-0.2,1-0.5,1.2-1c0.3-0.5,0.4-0.9,0.5-1.4
					c0.1-0.9,0.3-1.9,0.4-2.8c0.1-0.5,0.2-1,0.1-1.5c0-0.5-0.2-1.2-0.8-1.6c-1.1-0.6-2.1-0.5-3.2-0.6c-1-0.1-2.1-0.3-3.3,0.1
					c-0.3,0.2-0.6,0.3-0.8,0.5l-0.3,0.4l-0.2,0.4c-0.3,0.5-0.4,1.1-0.5,1.6c-0.1,1-0.2,2.1-0.3,3.1c0,1,0,2,0,3c0,0.5,0,1,0.3,1.5
					c0.2,0.5,0.7,1,1.2,1.1c1,0.3,1.9,0.2,2.8,0.3c0.9,0,1.7,0.1,2.6,0.1c0.8,0,1.7,0,2.5-0.4c0.8-0.3,1.3-1.2,1.5-1.9
					c0.4-2.8,0.6-5,0.7-6.6c0.1-1.5,0.2-2.4,0.1-2.4c-0.1,0-0.2,0.8-0.5,2.4c-0.3,1.5-0.5,3.8-1,6.5c-0.2,0.6-0.5,1.2-1.1,1.4
					c-0.6,0.3-1.4,0.3-2.2,0.3c-0.8-0.1-1.6-0.1-2.5-0.2c-0.8-0.1-1.8-0.1-2.5-0.3c-0.8-0.2-1-1-1-2c0-1,0-1.9,0-2.9
					c0.1-1,0.2-2,0.3-3c0.1-1,0.5-1.9,1.3-2.3c0.8-0.3,1.9-0.2,2.9-0.1c1,0.1,2.1,0.1,2.8,0.5c0.6,0.4,0.5,1.4,0.4,2.3
					c-0.1,0.9-0.3,1.9-0.4,2.8c-0.1,0.9-0.4,1.6-1.1,1.8c-0.7,0.2-1.5-0.1-2.3-0.3c-0.8-0.2-1.4-0.6-1.7-1.1
					c-0.3-0.6-0.3-1.3-0.2-1.9c0.2-1.3,1.5-2,2.4-1.7c1,0.2,1.4,1.2,1.2,1.9c-0.2,0.7-0.8,0.9-1.2,1
					C94.5,173.3,94.3,173.2,94.2,173.3z"/>
				<path class="st9" d="M87.8,195.8c-2.7-0.1-4.8,0.3-4.8,0c-0.1-0.2,2.1-1,4.8-0.8c2.8-0.1,4.9,0.7,4.8,0.8
					C92.6,196.1,90.5,195.7,87.8,195.8z"/>
				<path class="st9" d="M87.8,198.8c-1.2-0.1-2.2-0.2-2.2-0.5c0-0.2,0.9-0.4,2.2-0.4c1.2,0,2.2,0.2,2.2,0.4
					C90,198.6,89,198.8,87.8,198.8z"/>
				<path class="st9" d="M87.8,201.3c-0.9,0-1.4-0.3-1.4-0.5c0-0.2,0.7-0.4,1.4-0.4c0.7,0,1.5,0.1,1.4,0.4
					C89.2,201.1,88.7,201.3,87.8,201.3z"/>
				<path class="st4" d="M85.6,118.9c-1.4,0-2.5-1-2.5-2.2l0,0c0-1.2,1.1-2.2,2.5-2.2H90c1.4,0,2.5,1,2.5,2.2l0,0
					c0,1.2-1.1,2.2-2.5,2.2H85.6z"/>
				<path class="st10" d="M82.2,110.2c0.5,0,0.9,6.3,1.2,16.4c0,1.3,0.1,2.6,0.1,4c0,1.5-0.2,3-0.5,4.6c-0.7,3.1-2.2,6.3-4.5,9.1
					c-0.6,0.7-1.2,1.3-1.9,2c-0.6,0.6-1.3,1.2-1.9,1.8c-1.3,1.2-2.6,2.4-4,3.6l-1,0.9l-0.9,0.9c-0.6,0.6-1.1,1.3-1.6,2
					c-0.6,0.7-0.9,1.5-1.4,2.2c-0.4,0.8-0.8,1.6-1.1,2.4c-0.6,1.7-1,3.4-1.1,5.1c0,0.4-0.1,0.9-0.1,1.3l0,1.3c0,0.8,0.1,1.8,0.2,2.7
					c0.3,3.6,0.6,7.1,0.9,10.5c0.6,6.7,1.1,12.7,1.4,17.8c0.7,10.1,0.9,16.4,0.4,16.5c-0.5,0-1.5-6.2-2.8-16.2
					c-0.7-5-1.4-11-2.1-17.7c-0.4-3.3-0.7-6.8-1.1-10.5c-0.1-0.9-0.2-1.8-0.2-2.8l-0.1-1.5c0-0.5,0.1-1,0.1-1.5c0.1-2,0.6-4.1,1.3-6
					c0.4-1,0.8-1.9,1.3-2.8c0.6-0.9,1-1.8,1.7-2.6c0.6-0.8,1.2-1.6,2-2.3l1.1-1.1l1-0.9c1.4-1.2,2.7-2.4,4-3.6
					c0.7-0.6,1.3-1.2,2-1.7c0.6-0.6,1.2-1.1,1.7-1.7c2-2.3,3.4-5,4.1-7.7c0.4-1.3,0.6-2.7,0.6-4c0.1-1.3,0.1-2.7,0.1-3.9
					C81.3,116.4,81.7,110.2,82.2,110.2z"/>
			</g>
			<path class="st11" d="M110.4,148l-6.9-6.2c-3.3-3-5.3-7.3-5.3-11.8v-2.6V125v-2.4v-11.7v-2.4V107c0-0.7-0.5-1.2-1.2-1.2h-0.3l0,0
				v-1.6c0.8,0,1.5-0.7,1.5-1.5v-6c0-0.8-0.6-1.4-1.4-1.4h-0.1v-1.4h0c0.8,0,1.5-0.7,1.5-1.5v-4.3c0-0.4-0.3-0.9-0.7-1.1
				c-3.3-1.6-6.5-2.4-9.8-2.4v134.8h22.1c2.1,0,3.8-1.6,4.1-3.7l4.7-46.6C119.4,161.3,116.4,153.4,110.4,148z"/>
		</g>
		<g>
			<g>
				<path class="st12" d="M151.1,220.2c-1.7,0-3.1-1.4-3.1-3.2v-12.8c0-1.5,1-2.7,2.4-3l2-58.8c-1.2-0.5-2-1.8-1.8-3.2l1.2-12.8
					c0.2-1.6,1.5-2.9,3.1-2.9h2.1c3.4,0,6.3-2.2,7.2-5.2c0.2-0.7,0.4-1.4,0.4-2.2l0.6-22.2l0.1-4.7h14.7l0.1,4.7l0.6,22.2
					c0,0.8,0.1,1.5,0.4,2.2c1,3,3.9,5.2,7.3,5.2h2.1c1.6,0,3,1.2,3.1,2.9l1.2,12.8c0.1,1.4-0.7,2.6-1.8,3.2l2,58.8
					c1.4,0.3,2.4,1.6,2.4,3v12.8c0,1.7-1.4,3.2-3.1,3.2H151.1z"/>
				<path class="st13" d="M153.1,126.8l-1.2,12.7c-0.1,0.7,0.3,1.4,1,1.7l0.9,0.4l-2,60.8l-1.1,0.3c-0.8,0.2-1.3,0.9-1.3,1.6v12.8
					c0,0.9,0.8,1.7,1.7,1.7c7.3-3.3,14.4-4.9,21.5-4.9c7.1,0,14.2,1.6,21.5,4.9c0.9,0,1.7-0.8,1.7-1.7v-12.8c0-0.8-0.5-1.4-1.3-1.6
					l-1.1-0.3l-2-60.8l0.9-0.4c0.7-0.3,1.1-1,1-1.7l-1.2-12.7H153.1z"/>
				<path class="st14" d="M165,94.1c-0.7,0-1.3-0.6-1.3-1.3l0,0c0-0.7,0.6-1.3,1.3-1.3h15.1c0.7,0,1.3,0.6,1.3,1.3l0,0
					c0,0.7-0.6,1.3-1.3,1.3H165z"/>
				<path class="st15" d="M166.3,82c-1.2,0-2.1,1.1-2.1,2.5v6.1h16.6v-6.1c0-1.4-0.9-2.5-2.1-2.5H166.3z"/>
				<path class="st16" d="M164.1,118.5c0.2-0.6,0.3-1.2,0.4-1.8c0-0.2,0-0.3,0-0.4l0-1.5l0.2-8.5l0.2-9.4l0-1.9l0-1H180l0,1l0,1.9
					l0.2,9.4l0.2,8.5l0,1.5c0,0.1,0,0.3,0,0.4c0,0.6,0.2,1.2,0.4,1.8H164.1z"/>
				<polygon class="st17" points="165,96.9 165,95.1 180,95.1 180.1,96.9 				"/>
				<path class="st17" d="M164.5,116.8c0-0.2,0-0.3,0-0.4l0-1.5h16l0,1.5c0,0.1,0,0.3,0,0.4H164.5z"/>
				<polygon class="st15" points="164.7,106.3 165,96.9 180.1,96.9 180.3,106.3 				"/>
				<path class="st15" d="M158.4,200.9c-1.9,0-3.4-1.5-3.4-3.4l0.7-31l0.2-10l0.2-10.5c0-1.8,1.5-3.3,3.4-3.3h25.9
					c1.8,0,3.3,1.5,3.4,3.3l0.2,10.5l0.2,10l0.7,31c0,1.9-1.5,3.4-3.4,3.4H158.4z"/>
				<path class="st18" d="M158.4,198.8c-0.3,0-0.6-0.1-0.9-0.4s-0.4-0.5-0.3-0.9l1.1-51.6c0-0.7,0.6-1.2,1.2-1.2h25.9
					c0.7,0,1.2,0.5,1.2,1.2l1.1,51.6c0,0.3-0.1,0.6-0.3,0.9s-0.5,0.4-0.9,0.4H158.4z"/>
				<polygon class="st15" points="158.7,197.3 159.8,146.2 185.3,146.2 186.4,197.3 				"/>
				<polygon class="st16" points="155.7,166.5 155.7,165.5 155.8,164.9 155.9,157.9 155.9,157.3 155.9,156.4 189.1,156.4 
					189.1,157.3 189.1,157.9 189.3,164.9 189.3,165.5 189.3,166.5 				"/>
				<polygon class="st17" points="155.9,157.9 155.9,157.3 189.1,157.3 189.1,157.9 				"/>
				<polygon class="st17" points="155.7,165.5 155.8,164.9 189.3,164.9 189.3,165.5 				"/>
				<g>
					<path class="st18" d="M171.2,176c0.3,0.1,0.6-0.1,0.8-0.3c0.2-0.5-0.1-0.7-0.1-0.7c-0.1,0,0,0.3-0.2,0.5
						c-0.2,0.2-0.6,0.1-1.1-0.2c-0.6-0.2-1-0.4-1.5-0.4c-0.2,0-0.4,0.2-0.4,0.3c0,0.1,0,0.2,0.1,0.2c0.1,0,0.1-0.2,0.4-0.2
						c0.3,0,0.8,0.3,1.3,0.5C170.6,175.8,170.9,176,171.2,176z"/>
					<path class="st18" d="M173.8,176c-0.3,0.1-0.6-0.1-0.8-0.3c-0.2-0.5,0.1-0.7,0.1-0.7c0.1,0,0,0.3,0.2,0.5
						c0.2,0.2,0.6,0.1,1.1-0.2c0.6-0.2,1-0.4,1.5-0.4c0.2,0,0.4,0.2,0.4,0.3c0,0.1,0,0.2-0.1,0.2c-0.1,0-0.1-0.2-0.4-0.2
						c-0.3,0-0.8,0.3-1.3,0.5C174.4,175.8,174.2,176,173.8,176z"/>
					<path class="st18" d="M172.5,173.9c-0.4-0.1-1-0.1-1.3,0c-0.4,0.1-0.6,0.2-0.5,0.2c0,0.1,0.2,0.1,0.6,0.1
						c0.3,0,0.7,0.1,1.3,0.2c0.6-0.1,1-0.2,1.3-0.2c0.3,0,0.5,0,0.6-0.1c0-0.1-0.2-0.2-0.5-0.2C173.5,173.8,173,173.9,172.5,173.9z"
						/>
					<path class="st18" d="M172.5,172.9c-0.9,0.1-1.7,0.2-1.6,0.4c0,0.1,0.8,0.2,1.6,0.1c0.9,0.1,1.6,0,1.6-0.1
						C174.2,173.1,173.5,172.9,172.5,172.9z"/>
					<path class="st18" d="M172.5,171.9c-0.5,0-0.9,0.1-0.9,0.3c0,0.1,0.4,0.2,0.9,0.2c0.5,0,0.9-0.1,0.9-0.2
						C173.5,172,173.1,171.9,172.5,171.9z"/>
					<path class="st18" d="M172.5,179.1c-0.2,0-0.7-0.6-1.2-0.6c-0.2,0-0.3,0.1-0.4,0.2c0-0.1,0-0.2,0-0.4c0-0.2,0.2-0.3,0.2-0.4
						c0,0.2,0.1,0.3,0.2,0.3c0.2,0,0.2-0.4,0.3-0.9c0.1-0.5,0.3-0.9,0.2-1c-0.1-0.1-0.5,0.2-0.7,0.8c-0.1,0.2-0.1,0.5,0,0.6
						c-0.1-0.1-0.5-0.1-0.7,0.4c-0.1,0.5,0.2,0.7,0.4,0.7c0,0,0,0.1,0,0.1c0.1,0,0.2-0.2,0.4-0.1c0.1,0,0.2,0.1,0.4,0.3
						c0.2,0.2,0.3,0.4,0.8,0.5c0.5-0.1,0.6-0.3,0.8-0.5c0.2-0.1,0.3-0.2,0.4-0.3c0.2,0,0.3,0.1,0.4,0.1c0,0,0,0,0-0.1
						c0.2,0,0.5-0.2,0.4-0.7c-0.2-0.5-0.6-0.5-0.7-0.4c0-0.2,0-0.4,0-0.6c-0.2-0.6-0.6-0.9-0.7-0.8c-0.1,0.1,0,0.5,0.2,1
						c0.1,0.5,0.2,0.9,0.3,0.9c0.1,0,0.1-0.1,0.2-0.3c0.1,0.1,0.2,0.3,0.2,0.4c0,0.1,0,0.2,0,0.4c-0.1-0.1-0.2-0.2-0.4-0.2
						C173.2,178.5,172.7,179.1,172.5,179.1z"/>
					<path class="st18" d="M170.8,176.3c-0.1-0.1-0.4-0.1-0.7-0.3c-0.3-0.2-0.4-0.5-0.5-0.5c-0.1-0.1-0.3,0.6,0.2,1
						C170.4,176.8,170.9,176.4,170.8,176.3z"/>
					<path class="st18" d="M174.2,176.3c0.1-0.1,0.4-0.1,0.7-0.3c0.3-0.2,0.4-0.5,0.5-0.5c0.1-0.1,0.3,0.6-0.2,1
						C174.6,176.8,174.1,176.4,174.2,176.3z"/>
					<path class="st18" d="M171.4,182.9c-0.5-0.4-1.2-0.9-1.7-1.7c-0.5-0.8-0.5-1.7-0.6-2.3c0-0.3,0-0.5-0.1-0.7
						c0.4,0.2,0.7,0.2,0.7,0.2c0.1-0.2-0.7-0.5-1-1.2c-0.3-0.8-0.3-1.6-0.4-1.6c-0.1,0-0.4,0.8,0,1.8c0.2,0.3,0.4,0.6,0.6,0.7
						c0,0.2-0.1,0.5-0.1,0.8c0,0.3,0,0.7,0.1,1.2c0,0,0,0.1,0,0.1c-0.1,0.1-0.3,0.4-0.4,0.7c-0.3,0.6-0.3,1.8,0.4,2.7
						c0.7,0.9,1.4,1.4,1.5,2c0.2,0.6-0.2,0.9-0.1,1c0,0.1,0.5-0.3,0.4-1c0-0.8-0.9-1.5-1.4-2.3c-0.7-0.7-0.7-1.7-0.5-2.3
						c0-0.2,0.1-0.3,0.2-0.4c0,0.1,0,0.1,0,0.2c0.1,0.2,0.2,0.5,0.3,0.7c0.5,0.9,1.3,1.4,1.9,1.7c0.6,0.3,1,0.4,1,0.3
						C172.2,183.5,171.9,183.2,171.4,182.9z"/>
					<path class="st18" d="M173.7,182.9c0.5-0.4,1.2-0.9,1.7-1.7c0.5-0.8,0.5-1.7,0.6-2.3c0-0.3,0-0.5,0.1-0.7
						c-0.4,0.2-0.7,0.2-0.7,0.2c-0.1-0.2,0.7-0.5,1-1.2c0.3-0.8,0.3-1.6,0.4-1.6c0.1,0,0.4,0.8,0,1.8c-0.2,0.3-0.4,0.6-0.6,0.7
						c0,0.2,0.1,0.5,0.1,0.8c0,0.3,0,0.7-0.1,1.2c0,0,0,0.1,0,0.1c0.1,0.1,0.3,0.4,0.4,0.7c0.3,0.6,0.3,1.8-0.4,2.7
						c-0.7,0.9-1.4,1.4-1.5,2c-0.2,0.6,0.2,0.9,0.1,1c0,0.1-0.5-0.3-0.4-1c0-0.8,0.9-1.5,1.4-2.3c0.7-0.7,0.7-1.7,0.5-2.3
						c0-0.2-0.1-0.3-0.2-0.4c0,0.1,0,0.1,0,0.2c-0.1,0.2-0.2,0.5-0.3,0.7c-0.5,0.9-1.3,1.4-1.9,1.7c-0.6,0.3-1,0.4-1,0.3
						C172.8,183.5,173.2,183.2,173.7,182.9z"/>
					<path class="st18" d="M172.5,180.4c-1.1,0-1.9,0.1-1.9,0.3c0,0.1,0.9,0.2,1.9,0.2c1.1,0,1.9-0.1,1.9-0.2
						C174.4,180.6,173.6,180.5,172.5,180.4z"/>
					<path class="st18" d="M172.5,181.3c-0.3,0-0.6,0.2-0.6,0.3c0,0.1,0.2,0.2,0.6,0.2c0.3,0,0.6-0.1,0.6-0.2
						C173.1,181.4,172.9,181.3,172.5,181.3z"/>
					<path class="st18" d="M169.1,171.8c-0.4,0.4-0.6,0.9-0.6,1.3c-0.1,0.4-0.1,0.8-0.1,1.1c0,0.6,0.1,1,0.1,1c0.1,0,0.2-0.4,0.2-1
						c0.2-0.5,0.2-1.5,0.8-2c0.6-0.6,1.5-0.4,2.1-0.4c0.6,0.1,1,0.2,1,0.1c0-0.1-0.3-0.2-0.9-0.4C171,171.3,169.9,171,169.1,171.8z"
						/>
					<path class="st18" d="M176,171.8c0.4,0.4,0.6,0.9,0.6,1.3c0.1,0.4,0.1,0.8,0.1,1.1c0,0.6-0.1,1-0.1,1c-0.1,0-0.2-0.4-0.2-1
						c-0.2-0.5-0.2-1.5-0.8-2c-0.6-0.6-1.5-0.4-2.1-0.4c-0.6,0.1-1,0.2-1,0.1c0-0.1,0.3-0.2,0.9-0.4
						C174.1,171.3,175.1,171,176,171.8z"/>
					<path class="st18" d="M166.7,181.1c-0.1-1,0.4-1.8,0.6-2.4c0.1-0.3,0.2-0.5,0.3-0.7c0,0.1,0.1,0.1,0.1,0.2
						c0.3,0.4,0.6,0.5,0.7,0.4c0-0.1-0.2-0.2-0.3-0.6c-0.2-0.3-0.2-0.9-0.2-1.6c0-0.7-0.2-1.3,0.1-1.4c0.1-0.1,0.2,0,0.3,0
						c0.1,0.1,0.1,0.1,0.1,0.1c0,0,0.1-0.1,0.1-0.2c0-0.1-0.2-0.3-0.5-0.3c0-0.2,0-0.6,0-1.1c0-0.8,0-1.9,0.6-2.8
						c0.6-0.9,1.6-1.3,2.4-1.4c0.7-0.1,1.2,0.1,1.2,0c0,0-0.4-0.4-1.2-0.4c-0.8-0.1-2.1,0.3-2.8,1.4c-0.2,0.3-0.3,0.7-0.4,1
						c-0.2,0.2-0.4,0.4-0.7,0.9c-0.4,0.7-0.9,1.8-0.9,3c0,1.2,0.1,2.3,0.1,3.1c0,0.8-0.3,1.2-0.2,1.3c0,0,0.4-0.4,0.5-1.2
						c0.2-0.8,0.1-1.9,0.1-3.1c0-1.2,0.4-2.2,0.7-2.9c0.1-0.2,0.2-0.3,0.2-0.5c-0.1,0.6,0,1.1,0,1.5c0.1,0.6,0.2,0.9,0.2,1.1
						c-0.3,0.1-0.5,0.5-0.5,0.8c0,0.3,0,0.6,0,1c0,0.5,0.1,1,0.2,1.4c-0.1,0.1-0.3,0.4-0.5,0.7c-0.3,0.6-0.8,1.5-0.7,2.6
						c0,0.6,0.2,1.1,0.5,1.5c0.3,0.4,0.5,0.7,0.7,0.9c0.1,0.3,0.1,0.5,0.1,0.7c-0.1,0.1-0.1,0.3-0.1,0.3c0,0,0.1,0,0.3-0.2
						c0.1-0.2,0.2-0.5,0-0.9C167.4,182.7,166.7,182.1,166.7,181.1z"/>
					<path class="st18" d="M178.4,181.1c0.1-1-0.4-1.8-0.6-2.4c-0.1-0.3-0.2-0.5-0.3-0.7c0,0.1-0.1,0.1-0.1,0.2
						c-0.3,0.4-0.6,0.5-0.7,0.4c0-0.1,0.2-0.2,0.3-0.6c0.2-0.3,0.2-0.9,0.2-1.6c0-0.7,0.2-1.3-0.1-1.4c-0.1-0.1-0.2,0-0.3,0
						c-0.1,0.1-0.1,0.1-0.1,0.1c0,0-0.1-0.1-0.1-0.2c0-0.1,0.2-0.3,0.5-0.3c0-0.2,0-0.6,0-1.1c0-0.8,0-1.9-0.6-2.8
						c-0.6-0.9-1.6-1.3-2.4-1.4c-0.7-0.1-1.2,0.1-1.2,0c0,0,0.4-0.4,1.2-0.4c0.8-0.1,2.1,0.3,2.8,1.4c0.2,0.3,0.3,0.7,0.4,1
						c0.2,0.2,0.4,0.4,0.7,0.9c0.4,0.7,0.9,1.8,0.9,3c0,1.2-0.1,2.3-0.1,3.1c0,0.8,0.3,1.2,0.2,1.3c0,0-0.4-0.4-0.5-1.2
						c-0.2-0.8-0.1-1.9-0.1-3.1c0-1.2-0.4-2.2-0.7-2.9c-0.1-0.2-0.2-0.3-0.2-0.5c0.1,0.6,0,1.1,0,1.5c-0.1,0.6-0.2,0.9-0.2,1.1
						c0.3,0.1,0.5,0.5,0.5,0.8c0,0.3,0,0.6,0,1c0,0.5-0.1,1-0.2,1.4c0.1,0.1,0.3,0.4,0.5,0.7c0.3,0.6,0.8,1.5,0.7,2.6
						c0,0.6-0.2,1.1-0.5,1.5c-0.3,0.4-0.5,0.7-0.7,0.9c-0.1,0.3-0.1,0.5-0.1,0.7c0.1,0.1,0.1,0.3,0.1,0.3c0,0-0.1,0-0.3-0.2
						c-0.1-0.2-0.2-0.5,0-0.9C177.7,182.7,178.4,182.1,178.4,181.1z"/>
					<path class="st18" d="M167.7,180.3c0.2-0.5,0.3-0.9,0.2-0.9c0,0-0.3,0.3-0.6,0.8c-0.2,0.6-0.4,1.6,0.1,2.5
						c0.4,0.9,1.1,1.5,1.2,2c0.1,0.5-0.1,0.9,0,0.9c0,0.1,0.4-0.3,0.3-1c0-0.7-0.7-1.4-1.1-2.2C167.5,181.7,167.6,180.9,167.7,180.3
						z"/>
					<path class="st18" d="M177.3,180.3c-0.2-0.5-0.3-0.9-0.2-0.9c0,0,0.3,0.3,0.6,0.8c0.2,0.6,0.4,1.6-0.1,2.5
						c-0.4,0.9-1.1,1.5-1.2,2c-0.1,0.5,0.1,0.9,0,0.9c0,0.1-0.4-0.3-0.3-1c0-0.7,0.7-1.4,1.1-2.2
						C177.5,181.7,177.4,180.9,177.3,180.3z"/>
				</g>
				<path class="st18" d="M172.5,188c-5.3,0.1-9.6,0.9-9.6,0.6c0-0.1,1-0.4,2.8-0.7c1.7-0.4,4.2-0.6,6.9-0.7
					c2.7,0.2,5.1,0.3,6.9,0.7c1.7,0.4,2.8,0.6,2.8,0.7C182.1,188.9,177.8,188.1,172.5,188z"/>
				<path class="st18" d="M172.5,190.9c-4.2,0-7.5,0.4-7.5,0.1c0-0.2,3.3-0.9,7.5-1c4.3,0.1,7.6,0.8,7.5,1
					C180,191.2,176.8,190.9,172.5,190.9z"/>
				<path class="st18" d="M172.5,193.6c-3.1,0.1-5.4,0.3-5.4,0.1c0-0.2,2.3-0.7,5.4-0.9c3.1,0.2,5.4,0.8,5.4,0.9
					C177.9,194,175.6,193.8,172.5,193.6z"/>
				<path class="st19" d="M172.5,153.9c-1.6,0-3,0.5-3.7,1.3c-0.8,0.7-0.9,1.4-1,1.4c-0.1,0-0.2-0.8,0.6-1.8c0.7-1,2.4-1.8,4.2-1.7
					c1.8-0.1,3.5,0.7,4.2,1.7c0.8,1,0.7,1.8,0.6,1.8c-0.1,0-0.3-0.7-1-1.4C175.5,154.4,174.2,153.9,172.5,153.9z"/>
				<path class="st19" d="M171,149.6c0.2-0.1,0.6,0.5,0.8,1.4c0.1,0.9,0,1.6-0.2,1.6c-0.2,0-0.5-0.6-0.6-1.4
					C170.7,150.3,170.7,149.6,171,149.6z"/>
				<path class="st19" d="M174.1,149.6c-0.2-0.1-0.6,0.5-0.8,1.4c-0.1,0.9,0,1.6,0.2,1.6c0.2,0,0.5-0.6,0.6-1.4
					C174.4,150.3,174.3,149.6,174.1,149.6z"/>
				<path class="st19" d="M168.5,150.4c0.2-0.2,0.7,0.3,1.3,1c0.4,0.8,0.5,1.5,0.3,1.6c-0.2,0.1-0.7-0.5-1-1.2
					C168.6,151.2,168.4,150.5,168.5,150.4z"/>
				<path class="st19" d="M176.5,150.4c-0.2-0.2-0.7,0.3-1.3,1c-0.4,0.8-0.5,1.5-0.3,1.6c0.2,0.1,0.7-0.5,1-1.2
					C176.5,151.2,176.7,150.5,176.5,150.4z"/>
				<path class="st19" d="M166.3,151.5c0.1-0.2,0.8,0.2,1.5,0.8c0.6,0.7,0.9,1.4,0.7,1.6s-0.8-0.3-1.3-1
					C166.6,152.3,166.2,151.7,166.3,151.5z"/>
				<path class="st19" d="M178.7,151.5c-0.1-0.2-0.8,0.2-1.5,0.8c-0.6,0.7-0.9,1.4-0.7,1.6c0.2,0.1,0.8-0.3,1.3-1
					C178.5,152.3,178.9,151.7,178.7,151.5z"/>
				<path class="st19" d="M164.6,153.4c0.1-0.2,0.8,0,1.6,0.4c0.7,0.5,1.2,1,1,1.2c-0.1,0.2-0.8,0-1.5-0.5
					C165,154.1,164.5,153.6,164.6,153.4z"/>
				<path class="st19" d="M180.5,153.4c-0.1-0.2-0.8,0-1.6,0.4c-0.7,0.5-1.2,1-1,1.2c0.1,0.2,0.8,0,1.5-0.5
					C180.1,154.1,180.6,153.6,180.5,153.4z"/>
				<path class="st19" d="M164,156c0-0.2,0.8-0.4,1.6-0.3c0.9,0.1,1.6,0.3,1.6,0.6c0,0.2-0.8,0.4-1.6,0.3
					C164.6,156.5,163.9,156.2,164,156z"/>
				<path class="st19" d="M181.1,156c0-0.2-0.8-0.4-1.6-0.3c-0.9,0.1-1.6,0.3-1.6,0.6s0.8,0.4,1.6,0.3
					C180.4,156.5,181.1,156.2,181.1,156z"/>
				<g class="st20">
					<path class="st17" d="M172.5,111l-1-0.3c-0.3-0.1-0.5-0.2-0.7-0.4c-0.5-0.2-0.8-0.6-1.2-0.9c-0.7-0.7-1.2-1.6-1.4-2.4
						c-0.3-0.9-0.2-1.8-0.1-2.6c0.2-0.8,0.5-1.5,0.9-2c0.8-1.1,1.7-1.6,2.4-1.9c0.7-0.2,1.1-0.2,1.1-0.1c0-0.1,0.4-0.1,1.1,0.1
						c0.7,0.2,1.6,0.8,2.4,1.9c0.4,0.5,0.7,1.2,0.9,2c0.1,0.8,0.2,1.7-0.1,2.6c-0.3,0.9-0.7,1.7-1.4,2.4c-0.3,0.3-0.7,0.7-1.2,0.9
						c-0.2,0.1-0.4,0.3-0.7,0.4L172.5,111z M172.5,100.5c-0.1,0.3-1.5,0.7-2.5,2.5c-0.3,0.5-0.4,1-0.5,1.6c0,0.6,0,1.2,0.2,1.8
						c0.2,0.6,0.6,1.2,1.1,1.7c0.3,0.2,0.5,0.5,0.9,0.7c0.2,0.1,0.3,0.2,0.5,0.2l0.3,0.1c0.1,0,0,0,0.1,0c0,0,0,0,0.1,0l0.3-0.1
						c0.2,0,0.3-0.2,0.5-0.2c0.3-0.2,0.6-0.4,0.9-0.7c0.5-0.5,0.9-1.1,1.1-1.7c0.3-0.6,0.2-1.2,0.2-1.8c-0.1-0.6-0.3-1.1-0.5-1.6
						C174.1,101.2,172.6,100.7,172.5,100.5z M172.5,100.5C172.5,100.4,172.5,100.4,172.5,100.5C172.5,100.4,172.5,100.4,172.5,100.5
						z"/>
				</g>
				<g class="st20">
					<path class="st17" d="M172.5,106.7c-0.3-0.2-0.6-0.8-0.7-1.5c-0.1-0.9,0.2-1.7,0.7-1.8c0,0,0,0,0.1,0c0,0,0,0,0.1,0
						c0.5,0,0.8,0.8,0.7,1.8C173.2,105.9,172.9,106.5,172.5,106.7z"/>
				</g>
				<path class="st21" d="M169.2,100.1c0.2,0,0.4,1.7,0.5,4.7c0.1,1.5,0.1,3.4,0.1,5.5c0,1.1,0,2.2,0,3.5c0,1.2,0.1,2.5-0.1,4
					c-0.2,1.5-0.5,3-1.3,4.5c-0.8,1.5-2.1,2.8-3.5,3.8c-1.4,1-3.1,1.8-4.8,2.4c-0.4,0.1-0.9,0.3-1.3,0.4l-0.7,0.2l-0.3,0.1
					c0,0-0.1,0.1-0.1,0.1c-0.3,0.1-0.6,0.4-0.6,0.8c0,0,0,0.1,0,0.2l0,0.3l-0.1,0.7c0,0.5-0.1,0.9-0.1,1.4c-0.1,0.9-0.2,1.8-0.2,2.8
					c-0.1,0.8-0.1,1.6-0.2,2.4c0,0,0,0,0,0l-0.1-0.1c0,0,0.1,0,0.1,0.1l0.3,0.2c0.2,0.1,0.4,0.3,0.5,0.5c0.3,0.3,0.5,0.8,0.7,1.2
					c0.1,0.2,0.1,0.5,0.1,0.7c0,0.2,0,0.5,0,0.6l0,0.7l0,1.5c0,1-0.1,2-0.1,3c-0.1,2-0.1,4.1-0.2,6.1c-0.6,16.6-1.2,31.6-1.9,42.5
					c-0.2,2.7-0.3,5.2-0.5,7.3c0,0.3,0,0.5-0.1,0.8c0,0.3,0,0.5-0.1,0.9c-0.1,0.4-0.3,0.7-0.6,1c-0.2,0.2-0.3,0.3-0.5,0.4
					c-0.2,0.1-0.2,0.1-0.4,0.2l-0.4,0.1c-0.1,0-0.1,0-0.2,0c-0.1,0.1-0.2,0.1-0.2,0.2c0,0-0.1,0-0.2,0.3l0,0.1l0,0.1l0,0l0,0l0,0
					c0-0.2,0-0.1,0-0.1l0,0.3c-0.2,3-0.4,4.7-0.7,4.7c-0.2,0-0.5-1.7-0.7-4.7l0-0.3l0-0.4c0-0.1,0.1-0.5,0.3-0.8
					c0.2-0.3,0.4-0.5,0.7-0.7c0.2-0.1,0.5-0.2,0.7-0.4c0.1-0.1,0.3-0.1,0.3-0.2c0,0,0-0.1,0-0.1c0-0.1,0.1-0.2,0.1-0.3
					c0,0,0-0.3,0-0.6c0-0.3,0-0.5,0-0.8c0-2.2,0-4.6,0-7.3c0.1-10.9,0.4-25.9,0.9-42.5c0.1-4,0.3-7.8,0.4-11.5c0,0,0,0,0,0
					c0,0,0,0,0,0l0,0c0,0,0,0,0,0l-0.3-0.1c-0.2-0.1-0.4-0.3-0.5-0.4c-0.2-0.1-0.3-0.3-0.4-0.5c-0.2-0.4-0.4-0.8-0.4-1.3
					c0-0.2,0-0.5,0-0.7l0-0.4l0.1-0.7c0-0.5,0.1-0.9,0.1-1.4c0.1-0.9,0.2-1.9,0.3-2.8c0-0.5,0.1-0.9,0.1-1.4l0.1-0.7l0-0.3
					c0-0.1,0-0.2,0.1-0.4c0.2-1.5,1.3-2.7,2.6-3.1l0.5-0.2l0.3-0.1l0.6-0.1c0.4-0.1,0.8-0.2,1.2-0.3c1.5-0.5,2.9-1.1,4.1-1.9
					c1.2-0.8,2.2-1.8,2.8-2.8c0.7-1.1,1-2.3,1.2-3.5c0.2-1.1,0.2-2.5,0.3-3.7c0.1-1.2,0.2-2.4,0.2-3.5c0.1-2.2,0.3-4,0.4-5.5
					C168.7,101.7,169,100.1,169.2,100.1z"/>
			</g>
			<path class="st22" d="M194.8,201.3l-2-58.8c1.2-0.5,2-1.8,1.8-3.2l-1.2-12.8c-0.2-1.6-1.5-2.9-3.1-2.9h-2.1
				c-3.4,0-6.3-2.2-7.3-5.2c-0.1-0.3-0.2-0.6-0.3-1c0-0.1,0-0.3-0.1-0.4c0-0.3-0.1-0.5-0.1-0.8l-0.3-9.8l0-0.2l0-0.6l-0.2-9.4l0-1.3
				l0-1h0.1c0.7,0,1.3-0.6,1.3-1.3s-0.6-1.3-1.3-1.3h-0.1l0-1h0.9v-6.1c0-1.4-0.9-2.5-2.1-2.5h-6.2v138.2H194c1.7,0,3.1-1.4,3.1-3.2
				v-12.8C197.1,202.9,196.1,201.6,194.8,201.3z"/>
		</g>
		<g>
			<g>
				<g>
					<g>
						<g>
							<path class="st23" d="M131.6,159.5c-4.8,0-9.5-3-9.6-3c-9.8-6-16.2-20-16.2-35.7c0-5.1,0.7-10,2-14.7h-1.5
								c-1.2,4.6-2,9.5-2,14.7c0,16.7,7,30.9,16.9,36.9c5,3,8,8.4,8,14.3v36.2c0,3-2.2,5.5-5.1,5.9l-13.5,1.9
								c-0.5,0.1-0.9,0.6-0.9,1.1c0,0.5,0.5,1,1,1h41.6c0.5,0,1-0.4,1-1s-0.3-1-0.9-1.1L139,214c-2.9-0.4-5.1-2.9-5.1-5.9v-36.2
								c0-5.8,3.1-11.2,8-14.3c9.9-6,16.9-20.3,16.9-36.9c0-5.2-0.7-10.1-2-14.7h-1.5c1.3,4.7,2,9.6,2,14.7
								c0,15.7-6.3,29.7-16.2,35.7C141.1,156.5,136.4,159.5,131.6,159.5z"/>
							<path class="st23" d="M107.8,106.1c-1.3,4.7-2,9.6-2,14.7c0,15.7,6.3,29.7,16.2,35.7c0.1,0,4.8,3,9.6,3c4.8,0,9.5-3,9.6-3
								c9.8-6,16.2-20,16.2-35.7c0-5.1-0.7-10-2-14.7H107.8z"/>
						</g>
						<g>
							<path class="st23" d="M131.6,159.5c-4.8,0-9.5-3-9.6-3c-9.8-6-16.2-20-16.2-35.7c0-5.1,0.7-10,2-14.7h-1.5
								c-1.2,4.6-2,9.5-2,14.7c0,16.7,7,30.9,16.9,36.9c5,3,8,8.4,8,14.3v36.2c0,3-2.2,5.5-5.1,5.9l-13.5,1.9
								c-0.5,0.1-0.9,0.6-0.9,1.1c0,0.5,0.5,1,1,1h41.6c0.5,0,1-0.4,1-1s-0.3-1-0.9-1.1L139,214c-2.9-0.4-5.1-2.9-5.1-5.9v-36.2
								c0-5.8,3.1-11.2,8-14.3c9.9-6,16.9-20.3,16.9-36.9c0-5.2-0.7-10.1-2-14.7h-1.5c1.3,4.7,2,9.6,2,14.7
								c0,15.7-6.3,29.7-16.2,35.7C141.1,156.5,136.4,159.5,131.6,159.5z"/>
							<path class="st24" d="M107.8,106.1c-1.3,4.7-2,9.6-2,14.7c0,15.7,6.3,29.7,16.2,35.7c0.1,0,4.8,3,9.6,3c4.8,0,9.5-3,9.6-3
								c9.8-6,16.2-20,16.2-35.7c0-5.1-0.7-10-2-14.7H107.8z"/>
						</g>
					</g>
					<linearGradient id="SVGID_2_" gradientUnits="userSpaceOnUse" x1="131.6003" y1="159.4666" x2="131.6003" y2="119.6944">
						<stop  offset="0" style="stop-color:#6A1622"/>
						<stop  offset="0.1866" style="stop-color:#711622"/>
						<stop  offset="0.45" style="stop-color:#831622"/>
						<stop  offset="0.7576" style="stop-color:#A11622"/>
						<stop  offset="1" style="stop-color:#BE1622"/>
					</linearGradient>
					<path class="st25" d="M105.9,119.7c0,0.4,0,0.7,0,1.1c0,15.7,6.3,29.7,16.2,35.7c0.1,0,4.8,3,9.6,3c4.8,0,9.5-3,9.6-3
						c9.8-6,16.2-20,16.2-35.7c0-0.4,0-0.7,0-1.1H105.9z"/>
					<g class="st26">
						<path class="st0" d="M115.3,120.4c0-4.5,0.4-9,1.3-13.2h-6c-1.3,4.5-2,9.2-2,14.1c0,15.1,6.3,28.5,16.2,34.2
							c0,0,1,0.6,2.6,1.3C120,148.9,115.3,135.4,115.3,120.4z"/>
					</g>
				</g>
				<path class="st27" d="M123.9,215.7c0-0.2,0.9,0,2.2-0.6c0.7-0.3,1.4-0.8,2.1-1.6c0.7-0.8,1.3-1.7,1.6-3c0.8-2.5,0.5-5.7,0.4-9.4
					c-0.1-3.6-0.1-7.6-0.2-11.8c0-4.2-0.1-8.2-0.1-11.8c0-3.6,0.1-6.9-0.2-9.5c-0.2-2.7-1.2-4.6-2-5.8c-0.9-1.2-1.6-1.7-1.5-1.8
					c0-0.1,0.9,0.2,2,1.4c1.1,1.2,2.3,3.3,2.7,6.1c0.4,2.8,0.4,6.1,0.5,9.7c0.1,3.6,0.1,7.6,0.2,11.8c0,4.2,0.1,8.2,0.1,11.8
					c0,3.6,0.1,7-0.9,9.8c-0.4,1.4-1.2,2.5-2,3.3c-0.8,0.8-1.7,1.3-2.5,1.5C124.7,216.1,123.8,215.7,123.9,215.7z"/>
			</g>
			<path class="st28" d="M152.5,215.9L139,214c-2.9-0.4-5.1-2.9-5.1-5.9v-36.2c0-5.8,3.1-11.2,8-14.3c9.9-6,16.9-20.3,16.9-36.9
				c0-5.2-0.7-10.1-2-14.7h-1.5h-23.8V218h20.8c0.5,0,1-0.4,1-1S153.1,216,152.5,215.9z"/>
		</g>
		<g>
			<g>
				<path class="st23" d="M186.4,105.4c-6.1,56.5,9.2,65.9,7.4,111.3c0,0.8,0.6,1.4,1.4,1.4h34.1c0.8,0,1.4-0.7,1.4-1.4
					c-1.8-45.4,13.5-54.7,7.4-111.3H186.4z"/>
				<path class="st12" d="M187.8,105.4c-3.4,31.6-0.1,48.5,3.1,64.9c2.3,11.9,7.6,21.3,8.4,33.8c0.1,1.4,1.4,2.2,2.7,1.9
					c3-0.9,7.5-1.2,10.2-1.3c2.7,0.1,7.2,0.4,10.2,1.3c1.3,0.4,2.6-0.5,2.7-1.9c0.8-12.5,6.1-21.9,8.4-33.8
					c3.2-16.4,6.5-33.4,3.1-64.9H187.8z"/>
				<linearGradient id="SVGID_3_" gradientUnits="userSpaceOnUse" x1="187.4084" y1="162.798" x2="239.1551" y2="160.991">
					<stop  offset="0" style="stop-color:#F39200"/>
					<stop  offset="6.614238e-02" style="stop-color:#F5A804"/>
					<stop  offset="0.1883" style="stop-color:#F9CC0B"/>
					<stop  offset="0.2879" style="stop-color:#FBE20F"/>
					<stop  offset="0.352" style="stop-color:#FCEA10"/>
					<stop  offset="0.5223" style="stop-color:#FAD70D"/>
					<stop  offset="0.8651" style="stop-color:#F5A704"/>
					<stop  offset="1" style="stop-color:#F39200"/>
				</linearGradient>
				<path class="st29" d="M186.7,118.3c-1.4,23.6,1.4,38.1,4.1,52.1c2.3,11.9,7.6,21.3,8.4,33.8c0.1,1.4,1.4,2.2,2.7,1.9
					c3-0.9,7.5-1.2,10.2-1.3c2.7,0.1,7.2,0.4,10.2,1.3c1.3,0.4,2.6-0.5,2.7-1.9c0.8-12.5,6.1-21.9,8.4-33.8
					c2.7-14,5.5-28.5,4.1-52.1H186.7z"/>
				<g>
					<path class="st0" d="M226.1,158.4c0.6,0.3,1,0.9,1,1.6c0,1-0.8,1.8-1.8,1.8c-0.5,0-0.9-0.2-1.2-0.5c0.3,0.6,1,1.1,1.7,1.1
						c1.1,0,2-0.9,2-2C227.9,159.4,227.1,158.6,226.1,158.4z"/>
				</g>
				<g>
					<path class="st0" d="M210.7,175.8c0.3,0.1,0.5,0.5,0.5,0.8c0,0.5-0.4,0.9-0.9,0.9c-0.2,0-0.5-0.1-0.6-0.3
						c0.2,0.3,0.5,0.5,0.9,0.5c0.6,0,1-0.5,1-1C211.6,176.3,211.2,175.9,210.7,175.8z"/>
				</g>
				<g>
					<path class="st0" d="M209.1,163.8c0.7,0.3,1.2,1,1.2,1.8c0,1.1-0.9,2-2,2c-0.5,0-1-0.2-1.4-0.6c0.4,0.7,1.1,1.2,2,1.2
						c1.2,0,2.2-1,2.2-2.2C211,164.8,210.2,163.9,209.1,163.8z"/>
				</g>
				<g>
					<path class="st0" d="M218.7,156.7c0.5,0.2,0.8,0.7,0.8,1.3c0,0.8-0.6,1.4-1.4,1.4c-0.4,0-0.7-0.2-1-0.4
						c0.3,0.5,0.8,0.8,1.4,0.8c0.9,0,1.6-0.7,1.6-1.6C220.1,157.5,219.5,156.8,218.7,156.7z"/>
				</g>
				<g>
					<path class="st0" d="M204.2,135.2c0.4,0.2,0.7,0.6,0.7,1.1c0,0.7-0.5,1.2-1.2,1.2c-0.3,0-0.6-0.1-0.8-0.3
						c0.2,0.4,0.7,0.7,1.2,0.7c0.7,0,1.4-0.6,1.4-1.4C205.4,135.9,204.9,135.3,204.2,135.2z"/>
				</g>
				<g>
					<path class="st0" d="M206.8,150.3c0.3,0.1,0.5,0.4,0.5,0.8c0,0.5-0.4,0.9-0.9,0.9c-0.2,0-0.5-0.1-0.6-0.3
						c0.2,0.3,0.5,0.5,0.9,0.5c0.5,0,1-0.4,1-1C207.7,150.8,207.3,150.4,206.8,150.3z"/>
				</g>
				<g>
					<path class="st0" d="M198.9,143.2c0.5,0.2,0.8,0.7,0.8,1.3c0,0.8-0.7,1.5-1.5,1.5c-0.4,0-0.7-0.2-1-0.4
						c0.3,0.5,0.8,0.9,1.4,0.9c0.9,0,1.6-0.7,1.6-1.6C200.3,143.9,199.7,143.3,198.9,143.2z"/>
				</g>
				<g>
					<path class="st30" d="M232.6,118.8c1.5-0.4,3-0.2,4.5,0.1c0.6-1.9,0.4-3.9,0.1-5.9c-0.3-2.4-0.5-4.9-0.8-7.3
						c0.9,0.3,1.9-0.5,1.9-1.4c0.1-0.9-0.6-1.8-1.4-2.2c0.6-1.9-1.2-4.2-3.2-4c0.4-1.2-0.1-2.7-1.1-3.5c-1-0.8-2.6-0.9-3.7-0.2
						c-0.8-1.2-2.1-2.1-3.6-2.1c-1.5-0.1-2.9,0.6-3.8,1.8c-0.5-2.9-6.9-3.5-7.7-0.4c-1.5-3.4-6.8-2.5-6.6,1.3
						c-1.3-5.3-9.1-3.1-9.3,0.7c-2-2.2-5.6-1-7.5,1.2c-3.3-1.7-6.2,3.1-4,5.1c-3.3,1-1.1,4.3-0.4,4c0.7-0.3,1.5-1,1.9-0.4
						c-0.4,3.8-0.9,7.5-1.3,11.3c0,0.3-0.1,0.7,0.1,1c0.3,0.5,0.9,0.6,1.5,0.6c2.1,0.1,4.2,0.2,6.3-0.1c0.6-0.1,1.3-0.2,1.9-0.1
						c0.7,0.1,1.4,0.4,2.2,0.4c1.4,0.1,2.9-0.6,4.3-0.3c1.4,0.2,2.7,1.2,4,0.9c0.6-0.1,1.1-0.5,1.7-0.7c1.2-0.3,2.4,0.3,3.5,0.5
						c2.5,0.4,5.1-1.2,7.5-0.6c0.5,0.1,0.9,0.3,1.4,0.4c1.3,0.2,2.7-0.6,4-0.2c0.7,0.2,1.3,0.7,2,0.6c0.8-0.2,1.2-1.1,2-1.2
						c0.9-0.1,1.6,0.9,2.5,1C231.8,119,232.2,118.9,232.6,118.8z"/>
					<path class="st31" d="M191,97.3c-3.2-1.6-5.9,3-3.8,4.9c-3.1,1-1,4.1-0.4,3.8c0.6-0.2,1.5-0.9,1.8-0.4
						c-0.4,3.6-0.8,7.2-1.2,10.8c0,0.3-0.1,0.7,0.1,0.9c0.3,0.5,0.9,0.6,1.4,0.6c1.7,0.1,3.4,0.2,5.1,0.1c0.3,0,0.7,0,1-0.1
						c0.6-0.1,1.2-0.2,1.8-0.1c0.7,0.1,1.4,0.3,2.1,0.4c1.4,0.1,2.8-0.5,4.2-0.3c1.3,0.2,2.6,1.2,3.9,0.8c0.6-0.1,1.1-0.5,1.6-0.7
						c1.1-0.3,2.3,0.3,3.4,0.4c0.5,0.1,1,0.1,1.5,0c1.9-0.2,3.8-1,5.7-0.6c0.4,0.1,0.9,0.3,1.3,0.3c1.3,0.2,2.6-0.6,3.8-0.2
						c0.7,0.2,1.3,0.7,1.9,0.6c0.7-0.2,1.2-1,1.9-1.1c0.9-0.1,1.5,0.9,2.4,0.9c0.4,0,0.7-0.1,1.1-0.2c0.2,0,0.3-0.1,0.5-0.1
						c1.3-0.2,2.6,0,3.9,0.2c0.3-0.8,0.4-1.6,0.4-2.5c0-1.1-0.1-2.1-0.2-3.2c-0.2-2.4-0.5-4.7-0.8-7.1c0.8,0.3,1.8-0.5,1.8-1.4
						c0.1-0.9-0.6-1.7-1.4-2.1c0.6-1.8-1.2-4-3.1-3.8c0.3-1.2-0.1-2.6-1.1-3.3c-1-0.8-2.5-0.9-3.5-0.2c-0.7-1.2-2.1-2-3.5-2
						c-1.4-0.1-2.8,0.6-3.6,1.7c-0.4-2.5-5.3-3.2-6.9-1.3c-0.2,0.2-0.4,0.5-0.5,0.9c-1.5-3.2-6.5-2.4-6.4,1.3
						c-0.6-2.4-2.7-3.2-4.7-2.9c-2.2,0.3-4.3,1.8-4.5,3.7c-0.4-0.4-0.8-0.6-1.2-0.8c-0.9-0.4-2-0.3-3.1,0
						C192.9,95.6,191.8,96.4,191,97.3z"/>
					<path class="st32" d="M191.7,97.6c-3-1.5-5.6,2.8-3.6,4.7c-3,0.9-1,3.9-0.4,3.6c0.6-0.2,1.4-0.9,1.7-0.3
						c-0.4,3.5-0.8,6.9-1.1,10.4c0,0.3-0.1,0.6,0.1,0.9c0.3,0.5,0.9,0.6,1.4,0.6c1.6,0.1,3.3,0.2,5,0.1c0.3,0,0.7,0,1-0.1
						c0.6-0.1,1.2-0.1,1.8-0.1c0.7,0.1,1.4,0.3,2.1,0.4c1.4,0.1,2.8-0.5,4.1-0.3c1.3,0.2,2.6,1.1,3.9,0.8c0.6-0.1,1-0.5,1.6-0.6
						c1.1-0.3,2.2,0.3,3.3,0.4c0.5,0.1,1,0.1,1.5,0c1.8-0.2,3.7-0.9,5.5-0.5c0.4,0.1,0.8,0.3,1.3,0.3c1.2,0.2,2.5-0.5,3.7-0.2
						c0.6,0.2,1.2,0.7,1.9,0.5c0.7-0.1,1.1-1,1.8-1.1c0.8-0.1,1.5,0.8,2.3,0.9c0.4,0,0.7-0.1,1.1-0.2c0.1,0,0.3-0.1,0.4-0.1
						c1.2-0.2,2.5,0,3.8,0.1c0.3-0.8,0.4-1.6,0.4-2.4c0-1-0.1-2.1-0.2-3.1c-0.2-2.3-0.5-4.6-0.7-6.8c0.8,0.2,1.6-0.5,1.7-1.4
						c0-0.8-0.6-1.6-1.4-2c0.5-1.7-1.2-3.8-3-3.7c0.3-1.1-0.2-2.5-1.1-3.2c-1-0.7-2.4-0.8-3.4-0.2c-0.7-1.1-2-1.9-3.3-1.9
						c-1.3-0.1-2.7,0.6-3.5,1.6c-0.4-2.3-5-3-6.7-1.3c-0.2,0.2-0.4,0.5-0.5,0.8c-1.4-3-6.3-2.3-6.2,1.2c-0.6-2.3-2.7-3-4.6-2.8
						c-2.1,0.3-4.2,1.7-4.4,3.5c-0.3-0.3-0.7-0.6-1.2-0.8c-0.9-0.3-2-0.3-3,0.1C193.5,96,192.4,96.7,191.7,97.6z"/>
					<path class="st33" d="M192.3,98c-2.9-1.4-5.3,2.7-3.5,4.5c-2.8,0.9-0.9,3.7-0.4,3.5c0.6-0.2,1.3-0.8,1.6-0.3
						c-0.4,3.3-0.8,6.6-1.1,9.9c0,0.3,0,0.6,0.1,0.9c0.3,0.5,0.8,0.6,1.4,0.6c1.6,0.1,3.2,0.2,4.9,0.1c0.3,0,0.7,0,1-0.1
						c0.6-0.1,1.2-0.1,1.8-0.1c0.7,0.1,1.3,0.3,2,0.4c1.3,0.1,2.7-0.5,4-0.3c1.3,0.2,2.5,1,3.8,0.8c0.5-0.1,1-0.5,1.5-0.6
						c1-0.3,2.1,0.2,3.2,0.4c0.5,0.1,0.9,0.1,1.4,0c1.8-0.2,3.6-0.9,5.3-0.5c0.4,0.1,0.8,0.3,1.2,0.3c1.2,0.2,2.4-0.5,3.5-0.1
						c0.6,0.2,1.2,0.6,1.8,0.5c0.7-0.1,1.1-0.9,1.8-1c0.8-0.1,1.4,0.8,2.2,0.8c0.3,0,0.7-0.1,1-0.2c0.1,0,0.3-0.1,0.4-0.1
						c1.2-0.2,2.4-0.1,3.6,0.1c0.3-0.7,0.4-1.5,0.4-2.3c0-1,0-2-0.1-3c-0.2-2.2-0.4-4.4-0.7-6.6c0.7,0.2,1.5-0.5,1.6-1.3
						c0-0.8-0.6-1.6-1.3-1.9c0.5-1.7-1.2-3.6-2.9-3.5c0.3-1.1-0.2-2.3-1.1-3c-0.9-0.7-2.3-0.8-3.3-0.2c-0.7-1.1-1.9-1.8-3.2-1.8
						c-1.3-0.1-2.6,0.5-3.4,1.5c-0.5-2.2-4.8-2.8-6.4-1.2c-0.2,0.2-0.4,0.5-0.5,0.8c-1.4-2.8-6-2.1-6,1.1c-0.6-2.1-2.7-2.8-4.5-2.6
						c-2.1,0.3-4,1.6-4.3,3.3c-0.3-0.3-0.7-0.6-1.1-0.7c-0.9-0.3-1.9-0.2-2.9,0.1C194.1,96.5,193,97.1,192.3,98z"/>
					<path class="st34" d="M192.9,98.4c-2.7-1.3-5,2.6-3.3,4.3c-2.6,0.9-0.9,3.5-0.4,3.3c0.5-0.2,1.2-0.7,1.5-0.2
						c-0.4,3.2-0.7,6.3-1,9.5c0,0.3,0,0.6,0.1,0.8c0.2,0.4,0.8,0.5,1.3,0.6c1.5,0.2,3.2,0.2,4.7,0.2c0.3,0,0.6,0,1-0.1
						c0.6,0,1.1-0.1,1.7-0.1c0.7,0.1,1.3,0.3,2,0.4c1.3,0.1,2.6-0.4,3.9-0.3c1.3,0.2,2.4,1,3.7,0.7c0.5-0.1,0.9-0.4,1.5-0.6
						c1-0.3,2,0.2,3,0.4c0.5,0.1,0.9,0.1,1.4,0c1.7-0.2,3.4-0.8,5.1-0.4c0.4,0.1,0.8,0.2,1.2,0.3c1.1,0.2,2.3-0.4,3.4-0.1
						c0.6,0.2,1.1,0.6,1.7,0.5c0.7-0.1,1.1-0.9,1.7-0.9c0.8-0.1,1.4,0.7,2.1,0.8c0.3,0,0.7-0.1,1-0.2c0.1,0,0.3-0.1,0.4-0.1
						c1.1-0.2,2.3-0.1,3.5,0c0.3-0.7,0.4-1.5,0.4-2.2c0-0.9,0-1.9-0.1-2.8c-0.2-2.1-0.4-4.3-0.7-6.4c0.7,0.2,1.4-0.5,1.4-1.3
						c0-0.8-0.5-1.5-1.3-1.8c0.4-1.6-1.1-3.5-2.8-3.3c0.2-1-0.2-2.2-1.1-2.9c-0.9-0.7-2.2-0.8-3.1-0.2c-0.7-1-1.9-1.7-3.1-1.8
						c-1.2-0.1-2.5,0.5-3.2,1.4c-0.5-2.1-4.6-2.7-6.2-1.2c-0.2,0.2-0.4,0.4-0.5,0.7c-1.4-2.7-5.8-2-5.8,1.1c-0.6-2-2.6-2.6-4.4-2.4
						c-2,0.2-3.9,1.5-4.2,3.1c-0.3-0.3-0.7-0.5-1.1-0.6c-0.9-0.3-1.8-0.2-2.8,0.1C194.7,96.9,193.7,97.5,192.9,98.4z"/>
					<path class="st35" d="M193.6,98.7c-2.5-1.2-4.7,2.5-3.1,4c-2.5,0.8-0.8,3.3-0.4,3.1c0.5-0.1,1.1-0.6,1.4-0.2
						c-0.4,3-0.7,6-0.9,9c0,0.3,0,0.5,0.1,0.8c0.2,0.4,0.8,0.5,1.3,0.6c1.5,0.2,3.1,0.3,4.6,0.2c0.3,0,0.6,0,0.9-0.1
						c0.6,0,1.1-0.1,1.7-0.1c0.7,0.1,1.3,0.3,1.9,0.3c1.3,0.1,2.6-0.4,3.8-0.2c1.2,0.2,2.4,0.9,3.6,0.7c0.5-0.1,0.9-0.4,1.4-0.5
						c1-0.2,1.9,0.2,2.9,0.3c0.4,0.1,0.9,0.1,1.3,0c1.6-0.1,3.3-0.8,4.9-0.4c0.4,0.1,0.8,0.2,1.1,0.3c1.1,0.1,2.2-0.4,3.2-0.1
						c0.6,0.2,1.1,0.6,1.7,0.4c0.6-0.1,1-0.8,1.6-0.9c0.7-0.1,1.3,0.7,2,0.7c0.3,0,0.6-0.1,0.9-0.2c0.1,0,0.3-0.1,0.4-0.1
						c1.1-0.2,2.2-0.1,3.3,0c0.3-0.7,0.4-1.4,0.4-2.1c0.1-0.9,0-1.8-0.1-2.7c-0.1-2-0.3-4.1-0.6-6.1c0.6,0.1,1.3-0.5,1.3-1.3
						c0-0.7-0.5-1.4-1.2-1.7c0.4-1.5-1.1-3.3-2.7-3.2c0.2-1-0.3-2.1-1.1-2.7c-0.9-0.6-2.1-0.7-3-0.3c-0.7-1-1.8-1.6-2.9-1.7
						c-1.2-0.1-2.3,0.4-3.1,1.3c-0.5-1.9-4.4-2.5-5.9-1.1c-0.2,0.2-0.3,0.4-0.4,0.7c-1.3-2.5-5.5-1.9-5.6,1
						c-0.6-1.9-2.6-2.4-4.3-2.2c-2,0.2-3.8,1.4-4.1,2.9c-0.3-0.3-0.7-0.5-1.1-0.6c-0.8-0.3-1.8-0.2-2.7,0.2
						C195.2,97.3,194.3,97.9,193.6,98.7z"/>
					<path class="st36" d="M194.2,99.1c-2.4-1.1-4.4,2.3-2.9,3.8c-2.3,0.8-0.8,3.1-0.3,3c0.4-0.1,1-0.6,1.3-0.1
						c-0.3,2.9-0.6,5.7-0.8,8.6c0,0.2,0,0.5,0.1,0.7c0.2,0.4,0.8,0.5,1.2,0.6c1.5,0.2,3,0.3,4.5,0.2c0.3,0,0.6,0,0.9-0.1
						c0.5,0,1.1-0.1,1.6-0.1c0.6,0.1,1.3,0.3,1.9,0.3c1.3,0.1,2.5-0.4,3.7-0.2c1.2,0.1,2.3,0.9,3.5,0.6c0.5-0.1,0.9-0.4,1.3-0.5
						c0.9-0.2,1.8,0.2,2.8,0.3c0.4,0.1,0.8,0.1,1.3,0c1.6-0.1,3.1-0.7,4.7-0.4c0.4,0.1,0.7,0.2,1.1,0.3c1,0.1,2.1-0.4,3.1-0.1
						c0.5,0.1,1,0.5,1.6,0.4c0.6-0.1,1-0.7,1.6-0.8c0.7-0.1,1.3,0.6,2,0.7c0.3,0,0.6-0.1,0.9-0.2c0.1,0,0.2-0.1,0.4-0.1
						c1-0.2,2.1-0.1,3.1,0c0.3-0.6,0.4-1.3,0.4-2c0.1-0.9,0-1.7,0-2.6c-0.1-2-0.3-3.9-0.6-5.9c0.6,0.1,1.2-0.5,1.2-1.2
						c0-0.7-0.5-1.3-1.2-1.6c0.3-1.4-1.1-3.1-2.6-3c0.1-0.9-0.3-2-1.1-2.6c-0.8-0.6-2-0.7-2.8-0.3c-0.6-0.9-1.7-1.5-2.8-1.6
						c-1.1-0.1-2.2,0.4-2.9,1.2c-0.5-1.8-4.2-2.4-5.7-1c-0.2,0.2-0.3,0.4-0.4,0.6c-1.3-2.3-5.3-1.7-5.4,0.9c-0.6-1.7-2.6-2.2-4.2-2
						c-1.9,0.2-3.7,1.3-4.1,2.8c-0.3-0.3-0.7-0.4-1.1-0.5c-0.8-0.2-1.7-0.1-2.6,0.2C195.8,97.7,194.9,98.3,194.2,99.1z"/>
					<path class="st37" d="M194.8,99.4c-2.2-1-4.1,2.2-2.8,3.6c-2.1,0.7-0.7,2.9-0.3,2.8c0.4-0.1,1-0.5,1.2-0.1
						c-0.3,2.7-0.6,5.5-0.7,8.1c0,0.2,0,0.5,0.1,0.7c0.2,0.4,0.7,0.5,1.2,0.6c1.4,0.2,2.9,0.3,4.4,0.3c0.3,0,0.6,0,0.9,0
						c0.5,0,1.1-0.1,1.6,0c0.6,0.1,1.2,0.2,1.8,0.3c1.2,0.1,2.4-0.3,3.6-0.2c1.2,0.1,2.3,0.8,3.4,0.6c0.4-0.1,0.8-0.3,1.3-0.4
						c0.9-0.2,1.8,0.2,2.7,0.3c0.4,0.1,0.8,0,1.2,0c1.5-0.1,3-0.6,4.4-0.3c0.3,0.1,0.7,0.2,1,0.2c1,0.1,2-0.3,3-0.1
						c0.5,0.1,1,0.5,1.5,0.4c0.6-0.1,0.9-0.7,1.5-0.8c0.7-0.1,1.2,0.6,1.9,0.6c0.3,0,0.6-0.1,0.9-0.2c0.1,0,0.2-0.1,0.4-0.1
						c1-0.2,2-0.1,3-0.1c0.3-0.6,0.4-1.3,0.4-1.9c0.1-0.8,0-1.7,0-2.5c-0.1-1.9-0.3-3.8-0.5-5.6c0.5,0.1,1-0.5,1-1.2
						c0-0.6-0.5-1.3-1.1-1.6c0.3-1.3-1.1-2.9-2.5-2.9c0.1-0.9-0.3-1.9-1.1-2.4c-0.8-0.6-1.9-0.7-2.7-0.3c-0.6-0.8-1.6-1.4-2.7-1.5
						c-1.1-0.1-2.1,0.3-2.8,1.1c-0.5-1.7-4-2.2-5.4-1c-0.2,0.2-0.3,0.4-0.4,0.6c-1.2-2.1-5-1.6-5.2,0.8c-0.6-1.6-2.6-2-4.1-1.8
						c-1.8,0.2-3.5,1.2-4,2.6c-0.3-0.2-0.7-0.4-1-0.5c-0.8-0.2-1.7-0.1-2.5,0.2C196.4,98.1,195.5,98.7,194.8,99.4z"/>
					<path class="st38" d="M195.4,99.8c-2.1-0.9-3.8,2.1-2.6,3.4c-2,0.7-0.7,2.7-0.3,2.6c0.4-0.1,0.9-0.4,1.1,0
						c-0.3,2.6-0.6,5.2-0.6,7.7c0,0.2,0,0.5,0.1,0.7c0.2,0.4,0.7,0.5,1.2,0.6c1.4,0.3,2.8,0.3,4.3,0.3c0.3,0,0.6,0,0.9,0
						c0.5,0,1-0.1,1.5,0c0.6,0,1.2,0.2,1.8,0.3c1.2,0.1,2.4-0.3,3.6-0.2c1.1,0.1,2.2,0.7,3.3,0.5c0.4-0.1,0.8-0.3,1.2-0.4
						c0.8-0.2,1.7,0.2,2.5,0.3c0.4,0,0.8,0,1.1,0c1.4-0.1,2.8-0.6,4.2-0.3c0.3,0.1,0.7,0.2,1,0.2c0.9,0.1,1.9-0.3,2.8-0.1
						c0.5,0.1,1,0.4,1.4,0.3c0.5-0.1,0.9-0.6,1.5-0.7c0.6-0.1,1.1,0.5,1.8,0.5c0.3,0,0.6-0.1,0.8-0.1c0.1,0,0.2-0.1,0.3-0.1
						c0.9-0.2,1.9-0.1,2.8-0.1c0.3-0.6,0.4-1.2,0.4-1.8c0.1-0.8,0.1-1.6,0-2.4c-0.1-1.8-0.2-3.6-0.5-5.4c0.5,0,0.9-0.5,0.9-1.2
						c0-0.6-0.5-1.2-1.1-1.5c0.2-1.2-1.1-2.7-2.4-2.7c0.1-0.8-0.4-1.8-1.1-2.3c-0.8-0.5-1.8-0.6-2.6-0.3c-0.6-0.8-1.6-1.3-2.6-1.4
						c-1-0.1-2,0.3-2.7,1c-0.5-1.5-3.8-2-5.2-0.9c-0.2,0.1-0.3,0.3-0.4,0.5c-1.2-2-4.8-1.5-5,0.8c-0.6-1.5-2.6-1.8-4-1.7
						c-1.8,0.2-3.4,1.1-3.9,2.4c-0.3-0.2-0.6-0.3-1-0.4c-0.8-0.2-1.6,0-2.4,0.3C197,98.5,196.1,99.1,195.4,99.8z"/>
					<path class="st17" d="M196.1,100.2c-1.9-0.8-3.5,2-2.4,3.2c-1.8,0.7-0.6,2.5-0.3,2.5c0.3,0,0.8-0.4,1,0
						c-0.3,2.4-0.5,4.9-0.5,7.2c0,0.2,0,0.4,0.1,0.6c0.2,0.4,0.7,0.5,1.1,0.6c1.3,0.3,2.7,0.4,4.1,0.3c0.3,0,0.6,0,0.8,0
						c0.5,0,1-0.1,1.5,0c0.6,0,1.2,0.2,1.7,0.2c1.2,0.1,2.3-0.3,3.5-0.2c1.1,0.1,2.2,0.7,3.3,0.5c0.4-0.1,0.8-0.3,1.2-0.4
						c0.8-0.2,1.6,0.1,2.4,0.2c0.4,0,0.7,0,1.1,0c1.3-0.1,2.7-0.5,4-0.2c0.3,0.1,0.6,0.2,0.9,0.2c0.9,0.1,1.8-0.3,2.7-0.1
						c0.5,0.1,0.9,0.4,1.4,0.3c0.5-0.1,0.9-0.6,1.4-0.6c0.6-0.1,1.1,0.5,1.7,0.5c0.3,0,0.5-0.1,0.8-0.1c0.1,0,0.2-0.1,0.3-0.1
						c0.9-0.2,1.8-0.1,2.7-0.2c0.3-0.5,0.4-1.1,0.5-1.7c0.1-0.7,0.1-1.5,0.1-2.3c0-1.7-0.2-3.5-0.5-5.1c0.4,0,0.8-0.5,0.8-1.1
						c-0.1-0.6-0.5-1.1-1.1-1.4c0.1-1.2-1.1-2.5-2.3-2.6c0-0.8-0.4-1.6-1.1-2.1c-0.7-0.5-1.7-0.6-2.4-0.3c-0.6-0.7-1.5-1.2-2.4-1.3
						c-0.9-0.1-1.9,0.3-2.5,0.8c-0.5-1.4-3.6-1.9-4.9-0.9c-0.2,0.1-0.3,0.3-0.4,0.5c-1.2-1.8-4.5-1.4-4.7,0.7
						c-0.6-1.3-2.5-1.7-3.9-1.5c-1.7,0.2-3.3,1-3.8,2.2c-0.3-0.2-0.6-0.3-1-0.4c-0.7-0.1-1.5,0-2.3,0.3
						C197.6,99,196.7,99.5,196.1,100.2z"/>
					<path class="st17" d="M196.7,100.5c-1.7-0.6-3.2,1.8-2.2,3c-1.6,0.6-0.6,2.4-0.3,2.3c0.3-0.1,0.7-0.3,0.9,0.1
						c-0.3,2.3-0.5,4.6-0.4,6.8c0,0.2,0,0.4,0.1,0.6c0.2,0.4,0.7,0.5,1.1,0.6c1.3,0.3,2.7,0.4,4,0.4c0.3,0,0.5,0,0.8,0
						c0.5,0,1-0.1,1.5,0c0.6,0,1.1,0.2,1.7,0.2c1.1,0.1,2.2-0.2,3.4-0.1c1.1,0.1,2.1,0.6,3.2,0.4c0.4-0.1,0.7-0.3,1.1-0.3
						c0.7-0.2,1.5,0.1,2.3,0.2c0.3,0,0.7,0,1,0c1.3-0.1,2.5-0.5,3.8-0.2c0.3,0.1,0.6,0.2,0.9,0.2c0.8,0.1,1.7-0.2,2.5,0
						c0.4,0.1,0.9,0.4,1.3,0.3c0.5-0.1,0.8-0.5,1.3-0.6c0.6-0.1,1,0.4,1.6,0.4c0.2,0,0.5-0.1,0.7-0.1c0.1,0,0.2,0,0.3-0.1
						c0.8-0.2,1.7-0.1,2.5-0.2c0.2-0.5,0.4-1.1,0.5-1.6c0.1-0.7,0.1-1.4,0.1-2.2c0-1.6-0.1-3.3-0.4-4.9c0.3,0,0.7-0.5,0.6-1.1
						c-0.1-0.5-0.5-1-1-1.3c0.1-1.1-1.1-2.4-2.3-2.4c0-0.7-0.4-1.5-1-1.9c-0.7-0.5-1.6-0.6-2.3-0.3c-0.6-0.7-1.4-1.1-2.3-1.2
						c-0.9-0.1-1.8,0.2-2.4,0.7c-0.5-1.3-3.4-1.7-4.7-0.8c-0.2,0.1-0.3,0.3-0.4,0.4c-1.1-1.6-4.3-1.2-4.5,0.6
						c-0.6-1.2-2.5-1.5-3.8-1.3c-1.7,0.2-3.1,0.9-3.7,2c-0.3-0.2-0.6-0.3-0.9-0.3c-0.7-0.1-1.5,0.1-2.2,0.3
						C198.1,99.4,197.3,99.8,196.7,100.5z"/>
					<path class="st39" d="M197.3,100.9c-1.6-0.5-2.9,1.7-2,2.8c-1.4,0.6-0.5,2.2-0.3,2.1c0.3,0,0.6-0.2,0.8,0.1
						c-0.3,2.1-0.4,4.3-0.4,6.3c0,0.2,0,0.4,0.1,0.5c0.2,0.4,0.6,0.5,1,0.6c1.2,0.3,2.6,0.4,3.9,0.4c0.3,0,0.5,0,0.8,0
						c0.5,0,0.9-0.1,1.4,0c0.6,0,1.1,0.2,1.7,0.2c1.1,0.1,2.2-0.2,3.3-0.1c1,0.1,2.1,0.5,3.1,0.4c0.4-0.1,0.7-0.2,1-0.3
						c0.7-0.1,1.4,0.1,2.1,0.2c0.3,0,0.6,0,1,0c1.2-0.1,2.4-0.4,3.6-0.2c0.3,0.1,0.6,0.1,0.8,0.2c0.8,0.1,1.6-0.2,2.4,0
						c0.4,0.1,0.8,0.3,1.2,0.3c0.5-0.1,0.8-0.5,1.3-0.5c0.5-0.1,1,0.4,1.5,0.4c0.2,0,0.5-0.1,0.7-0.1c0.1,0,0.2,0,0.3-0.1
						c0.8-0.2,1.6-0.2,2.4-0.2c0.2-0.5,0.4-1,0.5-1.6c0.1-0.7,0.1-1.4,0.1-2.1c0-1.6-0.1-3.2-0.4-4.6c0.3-0.1,0.6-0.5,0.5-1.1
						c-0.1-0.5-0.5-0.9-1-1.2c0-1-1-2.2-2.2-2.2c-0.1-0.7-0.5-1.4-1-1.8c-0.6-0.4-1.5-0.5-2.1-0.3c-0.6-0.6-1.4-1-2.2-1.1
						c-0.8-0.1-1.7,0.2-2.3,0.6c-0.6-1.2-3.1-1.6-4.4-0.8c-0.2,0.1-0.3,0.2-0.4,0.4c-1.1-1.5-4-1.1-4.3,0.6c-0.6-1-2.5-1.3-3.7-1.1
						c-1.6,0.2-3,0.9-3.6,1.8c-0.3-0.1-0.6-0.2-0.9-0.2c-0.7-0.1-1.4,0.1-2.1,0.4C198.7,99.8,197.9,100.2,197.3,100.9z"/>
					<path class="st40" d="M198,101.2c-1.4-0.4-2.6,1.6-1.9,2.6c-1.3,0.5-0.5,1.9-0.3,2c0.2,0,0.5-0.1,0.7,0.2c-0.3,2-0.4,4-0.3,5.9
						c0,0.2,0,0.3,0.1,0.5c0.2,0.3,0.6,0.5,1,0.6c1.2,0.3,2.5,0.4,3.8,0.4c0.3,0,0.5,0,0.8,0c0.5,0,0.9,0,1.4,0
						c0.5,0,1.1,0.1,1.6,0.2c1.1,0.1,2.1-0.2,3.2-0.1c1,0.1,2,0.5,3,0.3c0.3,0,0.6-0.2,1-0.3c0.7-0.1,1.3,0.1,2,0.2
						c0.3,0,0.6,0,0.9,0c1.1-0.1,2.3-0.3,3.4-0.1c0.3,0,0.5,0.1,0.8,0.2c0.8,0.1,1.5-0.2,2.3,0c0.4,0.1,0.8,0.3,1.2,0.2
						c0.4-0.1,0.7-0.4,1.2-0.5c0.5-0.1,0.9,0.3,1.4,0.3c0.2,0,0.4-0.1,0.7-0.1c0.1,0,0.2,0,0.3-0.1c0.8-0.2,1.5-0.2,2.2-0.3
						c0.2-0.4,0.4-0.9,0.5-1.5c0.1-0.6,0.1-1.3,0.2-2c0-1.5-0.1-3-0.4-4.4c0.2-0.1,0.5-0.6,0.4-1c-0.1-0.4-0.5-0.9-0.9-1.1
						c0-0.9-1-2-2.1-2.1c-0.1-0.6-0.5-1.3-1-1.6c-0.6-0.4-1.4-0.5-2-0.3c-0.5-0.5-1.3-0.9-2-1c-0.8-0.1-1.6,0.1-2.1,0.5
						c-0.6-1-2.9-1.4-4.1-0.7c-0.1,0.1-0.3,0.2-0.4,0.3c-1-1.3-3.8-1-4.1,0.5c-0.6-0.9-2.5-1.1-3.6-0.9c-1.6,0.2-2.9,0.8-3.5,1.7
						c-0.3-0.1-0.6-0.2-0.9-0.2c-0.7,0-1.3,0.1-2,0.4C199.3,100.2,198.5,100.6,198,101.2z"/>
					<path class="st41" d="M198.6,101.6c-1.3-0.3-2.3,1.5-1.7,2.4c-1.1,0.5-0.5,1.7-0.3,1.8c0.2,0.1,0.4-0.1,0.5,0.2
						c-0.2,1.8-0.4,3.7-0.2,5.4c0,0.2,0,0.3,0.1,0.4c0.2,0.3,0.6,0.5,0.9,0.6c1.1,0.4,2.4,0.5,3.6,0.5c0.2,0,0.5,0,0.7,0
						c0.4,0,0.9,0,1.3,0c0.5,0,1,0.1,1.6,0.2c1,0.1,2.1-0.2,3.1-0.1c1,0.1,1.9,0.4,2.9,0.3c0.3,0,0.6-0.2,0.9-0.2
						c0.6-0.1,1.3,0.1,1.9,0.1c0.3,0,0.6,0,0.8,0c1.1,0,2.1-0.3,3.2-0.1c0.2,0,0.5,0.1,0.7,0.1c0.7,0.1,1.4-0.1,2.1,0
						c0.4,0.1,0.7,0.2,1.1,0.2c0.4-0.1,0.7-0.3,1.1-0.4c0.5-0.1,0.9,0.2,1.4,0.2c0.2,0,0.4-0.1,0.6-0.1c0.1,0,0.2,0,0.3-0.1
						c0.7-0.1,1.4-0.2,2.1-0.3c0.2-0.4,0.4-0.9,0.5-1.4c0.1-0.6,0.2-1.2,0.2-1.8c0.1-1.4,0-2.8-0.3-4.1c0.2-0.1,0.4-0.6,0.2-1
						c-0.1-0.4-0.4-0.8-0.9-1c-0.1-0.8-1-1.8-2-1.9c-0.1-0.6-0.5-1.2-1-1.5c-0.6-0.4-1.3-0.5-1.9-0.3c-0.5-0.5-1.2-0.8-1.9-0.9
						c-0.7-0.1-1.4,0.1-2,0.4c-0.6-0.9-2.7-1.2-3.9-0.7c-0.1,0.1-0.3,0.2-0.4,0.3c-1-1.1-3.5-0.8-3.9,0.4c-0.6-0.8-2.5-0.9-3.5-0.7
						c-1.5,0.2-2.7,0.7-3.5,1.5c-0.3-0.1-0.6-0.1-0.9-0.1c-0.6,0-1.3,0.2-1.9,0.4C199.9,100.6,199.1,101,198.6,101.6z"/>
					<path class="st42" d="M199.2,102c-1.1-0.2-2,1.3-1.5,2.2c-0.9,0.5-0.4,1.5-0.3,1.6c0.1,0.1,0.4,0,0.4,0.3
						c-0.2,1.7-0.3,3.4-0.1,5c0,0.1,0,0.3,0.1,0.4c0.2,0.3,0.6,0.5,0.9,0.6c1.1,0.4,2.3,0.5,3.5,0.5c0.2,0,0.5,0,0.7,0
						c0.4,0,0.9,0,1.3,0c0.5,0,1,0.1,1.5,0.1c1,0.1,2-0.1,3-0.1c1,0.1,1.9,0.3,2.8,0.2c0.3,0,0.6-0.1,0.9-0.2
						c0.6-0.1,1.2,0.1,1.8,0.1c0.3,0,0.5,0,0.8,0c1,0,2-0.2,2.9,0c0.2,0,0.5,0.1,0.7,0.1c0.7,0.1,1.3-0.1,2,0c0.3,0.1,0.7,0.2,1,0.2
						c0.4,0,0.7-0.3,1.1-0.3c0.4,0,0.8,0.2,1.3,0.2c0.2,0,0.4-0.1,0.6-0.1c0.1,0,0.2,0,0.2-0.1c0.7-0.1,1.3-0.2,1.9-0.3
						c0.2-0.4,0.4-0.8,0.5-1.3c0.1-0.6,0.2-1.1,0.2-1.7c0.1-1.3,0-2.7-0.3-3.9c0.1-0.2,0.2-0.6,0.1-1c-0.1-0.3-0.4-0.7-0.8-0.9
						c-0.1-0.7-1-1.6-1.9-1.8c-0.2-0.5-0.5-1-1-1.3c-0.5-0.3-1.2-0.4-1.7-0.3c-0.5-0.4-1.1-0.7-1.8-0.8c-0.7-0.1-1.3,0-1.8,0.3
						c-0.6-0.8-2.5-1.1-3.6-0.6c-0.1,0.1-0.2,0.1-0.3,0.2c-1-0.9-3.3-0.7-3.7,0.4c-0.6-0.6-2.4-0.7-3.4-0.6
						c-1.4,0.2-2.6,0.6-3.4,1.3c-0.3-0.1-0.5-0.1-0.8-0.1c-0.6,0-1.2,0.2-1.8,0.5C200.5,101,199.7,101.4,199.2,102z"/>
					<path class="st43" d="M199.9,102.3c-0.9-0.1-1.7,1.2-1.3,2c-0.8,0.4-0.3,1.3-0.2,1.5c0.1,0.1,0.3,0.1,0.3,0.3
						c-0.2,1.5-0.3,3.1,0,4.5c0,0.1,0.1,0.3,0.1,0.4c0.2,0.3,0.5,0.5,0.9,0.6c1,0.4,2.2,0.5,3.4,0.5c0.2,0,0.5,0,0.7,0
						c0.4,0,0.8,0,1.2,0c0.5,0,1,0.1,1.5,0.1c1,0,1.9-0.1,2.9,0c0.9,0,1.8,0.3,2.7,0.2c0.3,0,0.5-0.1,0.8-0.2
						c0.5-0.1,1.1,0.1,1.6,0.1c0.2,0,0.5,0,0.7,0c0.9,0,1.8-0.2,2.7,0c0.2,0,0.4,0.1,0.6,0.1c0.6,0.1,1.2-0.1,1.8,0
						c0.3,0.1,0.6,0.2,1,0.1c0.4,0,0.6-0.2,1-0.3c0.4,0,0.8,0.1,1.2,0.1c0.2,0,0.4-0.1,0.5-0.1c0.1,0,0.1,0,0.2-0.1
						c0.6-0.1,1.2-0.2,1.8-0.4c0.2-0.3,0.4-0.8,0.5-1.2c0.1-0.5,0.2-1.1,0.3-1.6c0.1-1.2,0.1-2.5-0.2-3.7c0.1-0.2,0.1-0.6,0-0.9
						c-0.1-0.3-0.4-0.6-0.8-0.9c-0.2-0.7-1-1.4-1.8-1.6c-0.2-0.5-0.6-0.9-1-1.2c-0.5-0.3-1.1-0.4-1.6-0.3c-0.5-0.4-1.1-0.6-1.7-0.7
						c-0.6-0.1-1.2,0-1.7,0.2c-0.6-0.6-2.3-0.9-3.4-0.6c-0.1,0-0.2,0.1-0.3,0.2c-0.9-0.8-3-0.6-3.5,0.3c-0.6-0.5-2.4-0.5-3.3-0.4
						c-1.4,0.2-2.5,0.5-3.3,1.1c-0.2,0-0.5,0-0.8,0c-0.6,0-1.2,0.3-1.7,0.5C201,101.5,200.4,101.8,199.9,102.3z"/>
					<path class="st44" d="M200.5,102.7c-0.8,0-1.4,1.1-1.2,1.8c-0.6,0.4-0.3,1.1-0.2,1.3c0.1,0.1,0.2,0.1,0.2,0.4
						c-0.2,1.4-0.3,2.8,0.1,4.1c0,0.1,0.1,0.2,0.1,0.3c0.2,0.3,0.5,0.5,0.8,0.6c1,0.4,2.2,0.5,3.3,0.5c0.2,0,0.5,0,0.7,0
						c0.4,0,0.8,0,1.2,0c0.5,0,0.9,0.1,1.4,0.1c0.9,0,1.9-0.1,2.8,0c0.9,0,1.8,0.2,2.7,0.1c0.3,0,0.5-0.1,0.8-0.1
						c0.5-0.1,1,0,1.5,0.1c0.2,0,0.5,0,0.7,0c0.8,0,1.7-0.1,2.5,0c0.2,0,0.4,0.1,0.6,0.1c0.6,0.1,1.1,0,1.7,0c0.3,0,0.6,0.1,0.9,0.1
						c0.3,0,0.6-0.2,0.9-0.2c0.4,0,0.7,0.1,1.1,0.1c0.2,0,0.3-0.1,0.5-0.1c0.1,0,0.1,0,0.2,0c0.6-0.1,1.1-0.2,1.6-0.4
						c0.2-0.3,0.4-0.7,0.5-1.1c0.1-0.5,0.2-1,0.3-1.5c0.1-1.2,0.1-2.4-0.2-3.4c0-0.2,0-0.6-0.2-0.9c-0.1-0.3-0.4-0.6-0.7-0.8
						c-0.2-0.6-1-1.3-1.7-1.5c-0.3-0.4-0.6-0.8-1-1c-0.5-0.3-1-0.4-1.4-0.3c-0.5-0.3-1-0.5-1.5-0.6c-0.6-0.1-1.1,0-1.6,0.1
						c-0.6-0.5-2-0.7-3.1-0.5c-0.1,0-0.2,0.1-0.3,0.1c-0.9-0.6-2.8-0.4-3.3,0.2c-0.6-0.4-2.4-0.3-3.2-0.2c-1.3,0.2-2.4,0.4-3.2,0.9
						c-0.2,0-0.5,0-0.8,0c-0.6,0.1-1.1,0.3-1.6,0.6C201.6,101.9,201,102.2,200.5,102.7z"/>
					<path class="st45" d="M201.1,103c-0.6,0.1-1.1,1-1,1.5c-0.4,0.3-0.3,0.9-0.2,1.1c0,0.1,0.1,0.2,0.1,0.4
						c-0.2,1.2-0.2,2.5,0.2,3.6c0,0.1,0.1,0.2,0.1,0.3c0.2,0.3,0.5,0.5,0.8,0.6c0.9,0.5,2.1,0.6,3.2,0.6c0.2,0,0.4,0,0.7,0
						c0.4,0,0.8,0,1.2,0c0.5,0,0.9,0.1,1.4,0.1c0.9,0,1.8,0,2.7,0c0.9,0,1.7,0.1,2.6,0.1c0.2,0,0.5-0.1,0.7-0.1c0.5,0,0.9,0,1.4,0.1
						c0.2,0,0.4,0,0.6,0c0.8,0,1.5,0,2.3,0.1c0.2,0,0.4,0.1,0.5,0.1c0.5,0.1,1,0,1.5,0.1c0.3,0,0.5,0.1,0.8,0.1
						c0.3,0,0.6-0.1,0.9-0.2c0.3,0,0.7,0,1,0c0.1,0,0.3-0.1,0.4-0.1c0.1,0,0.1,0,0.2,0c0.5-0.1,1-0.2,1.4-0.5c0.2-0.3,0.4-0.6,0.5-1
						c0.1-0.4,0.3-0.9,0.3-1.4c0.2-1.1,0.2-2.2-0.2-3.2c0-0.2-0.1-0.6-0.3-0.9c-0.1-0.2-0.4-0.5-0.7-0.7c-0.3-0.5-1-1.1-1.6-1.3
						c-0.3-0.3-0.6-0.7-1-0.8c-0.4-0.2-0.9-0.3-1.3-0.4c-0.4-0.3-0.9-0.4-1.4-0.5c-0.5-0.1-1-0.1-1.4,0c-0.6-0.4-1.8-0.6-2.9-0.4
						c-0.1,0-0.2,0-0.3,0.1c-0.8-0.4-2.5-0.3-3.1,0.2c-0.6-0.2-2.4-0.1-3.1,0c-1.3,0.2-2.2,0.3-3.1,0.8c-0.2,0-0.5,0-0.7,0.1
						c-0.5,0.1-1,0.3-1.5,0.6C202.2,102.3,201.6,102.6,201.1,103z"/>
					<path class="st46" d="M201.8,103.4c-0.5,0.2-0.8,0.8-0.8,1.3c-0.3,0.3-0.2,0.7-0.2,1c0,0.2,0,0.3,0,0.5
						c-0.2,1.1-0.2,2.2,0.3,3.2c0,0.1,0.1,0.2,0.1,0.2c0.2,0.3,0.5,0.5,0.7,0.6c0.9,0.5,2,0.6,3,0.6c0.2,0,0.4,0,0.6,0
						c0.4,0,0.7,0,1.1,0c0.4,0,0.9,0,1.3,0.1c0.9,0,1.7,0,2.6,0c0.8,0,1.7,0.1,2.5,0c0.2,0,0.4,0,0.6,0c0.4,0,0.8,0,1.3,0
						c0.2,0,0.4,0,0.6,0c0.7,0,1.4,0,2.1,0.1c0.2,0,0.3,0,0.5,0.1c0.5,0,0.9,0,1.4,0.1c0.2,0,0.5,0.1,0.7,0c0.3,0,0.5-0.1,0.8-0.1
						c0.3,0,0.6,0,0.9,0c0.1,0,0.3,0,0.4-0.1c0.1,0,0.1,0,0.2,0c0.5-0.1,0.9-0.2,1.3-0.5c0.2-0.2,0.4-0.6,0.5-0.9
						c0.2-0.4,0.3-0.8,0.4-1.3c0.2-1,0.2-2-0.1-2.9c-0.1-0.3-0.2-0.6-0.4-0.9c-0.1-0.2-0.4-0.4-0.7-0.6c-0.4-0.4-0.9-0.9-1.5-1.2
						c-0.3-0.3-0.7-0.6-1-0.7c-0.4-0.2-0.8-0.3-1.2-0.4c-0.4-0.2-0.9-0.3-1.3-0.4c-0.4-0.1-0.9-0.1-1.3-0.1
						c-0.6-0.2-1.6-0.4-2.6-0.4c-0.1,0-0.2,0-0.3,0c-0.8-0.2-2.3-0.2-2.9,0.1c-0.6-0.1-2.4,0.1-3,0.2c-1.2,0.2-2.1,0.2-3,0.6
						c-0.2,0-0.5,0.1-0.7,0.1c-0.5,0.1-1,0.4-1.4,0.6C202.8,102.7,202.2,103,201.8,103.4z"/>
					<path class="st0" d="M203.9,102.9c-0.5,0.3-1.1,0.5-1.5,0.9c-0.5,0.5-0.7,1.2-0.8,1.9c-0.2,1.2-0.3,2.5,0.4,3.4
						c0.8,1,2.3,1.2,3.6,1.3c2.6,0.1,5.2,0.2,7.9,0.1c0.7,0,1.5,0,2.2,0c2.1,0.1,4.3,0.6,6.3,0.1c0.4-0.1,0.8-0.3,1.1-0.5
						c0.2-0.2,0.4-0.5,0.5-0.8c0.6-1.4,0.9-3.6-0.3-4.7c-0.6-0.6-2.2-1.7-3-2.1c-2.3-0.9-3.2-0.9-5.7-1.3c-0.7-0.1-2.2-0.1-2.9,0
						c-0.6,0.1-2.3,0.3-2.9,0.4c-1.4,0.2-2.3,0.1-3.6,0.6C204.7,102.4,204.3,102.6,203.9,102.9z"/>
				</g>
				<g>
					<path class="st0" d="M198.6,125.8c0.3,0.2,0.6,0.5,0.6,0.9c0,0.6-0.5,1-1,1c-0.3,0-0.5-0.1-0.7-0.3c0.2,0.4,0.6,0.6,1,0.6
						c0.6,0,1.1-0.5,1.1-1.1C199.6,126.3,199.2,125.9,198.6,125.8z"/>
				</g>
				<g>
					<path class="st0" d="M210,122.1c0.4,0.2,0.8,0.7,0.8,1.2c0,0.7-0.6,1.3-1.3,1.3c-0.4,0-0.7-0.1-0.9-0.4
						c0.2,0.5,0.7,0.8,1.3,0.8c0.8,0,1.5-0.7,1.5-1.5C211.3,122.8,210.7,122.2,210,122.1z"/>
				</g>
				<g>
					<path class="st0" d="M212.6,135.4c0.4,0.2,0.7,0.6,0.7,1.1c0,0.7-0.6,1.3-1.3,1.3c-0.3,0-0.7-0.1-0.9-0.4
						c0.2,0.4,0.7,0.8,1.2,0.8c0.8,0,1.4-0.6,1.4-1.4C213.9,136.1,213.3,135.5,212.6,135.4z"/>
				</g>
				<g>
					<path class="st0" d="M213.6,143.2c0.3,0.1,0.5,0.4,0.5,0.7c0,0.4-0.4,0.8-0.8,0.8c-0.2,0-0.4-0.1-0.6-0.2
						c0.2,0.3,0.4,0.5,0.8,0.5c0.5,0,0.9-0.4,0.9-0.9C214.4,143.6,214,143.2,213.6,143.2z"/>
				</g>
				<g>
					<path class="st0" d="M213.8,155.2c0.4,0.2,0.7,0.6,0.7,1.1c0,0.7-0.6,1.2-1.2,1.2c-0.3,0-0.6-0.1-0.9-0.4
						c0.2,0.4,0.7,0.7,1.2,0.7c0.8,0,1.4-0.6,1.4-1.4C215.1,155.9,214.5,155.3,213.8,155.2z"/>
				</g>
				<g>
					<path class="st0" d="M223.1,122.9c0.6,0.3,1.1,0.9,1.1,1.7c0,1-0.8,1.9-1.9,1.9c-0.5,0-1-0.2-1.3-0.5c0.4,0.7,1,1.1,1.8,1.1
						c1.2,0,2.1-0.9,2.1-2.1C224.9,123.9,224.1,123,223.1,122.9z"/>
				</g>
				<g>
					<path class="st0" d="M223,138.7c0.4,0.2,0.6,0.6,0.6,1c0,0.6-0.5,1.1-1.1,1.1c-0.3,0-0.6-0.1-0.8-0.3c0.2,0.4,0.6,0.7,1.1,0.7
						c0.7,0,1.3-0.6,1.3-1.3C224.1,139.3,223.6,138.8,223,138.7z"/>
				</g>
				<g>
					<path class="st0" d="M223.2,147.7c0.4,0.2,0.6,0.5,0.6,1c0,0.6-0.5,1.1-1.1,1.1c-0.3,0-0.6-0.1-0.8-0.3
						c0.2,0.4,0.6,0.6,1.1,0.6c0.7,0,1.2-0.5,1.2-1.2C224.3,148.3,223.8,147.8,223.2,147.7z"/>
				</g>
				<g>
					<path class="st0" d="M225.2,133.1c0.5,0.2,0.8,0.7,0.8,1.2c0,0.8-0.6,1.4-1.4,1.4c-0.4,0-0.7-0.1-1-0.4
						c0.3,0.5,0.8,0.8,1.3,0.8c0.8,0,1.5-0.7,1.5-1.5C226.5,133.9,225.9,133.2,225.2,133.1z"/>
				</g>
				<g>
					<path class="st0" d="M207.3,183.8c0.3,0.1,0.5,0.5,0.5,0.8c0,0.5-0.4,0.9-0.9,0.9c-0.2,0-0.5-0.1-0.6-0.3
						c0.2,0.3,0.5,0.5,0.9,0.5c0.6,0,1-0.5,1-1C208.2,184.3,207.8,183.9,207.3,183.8z"/>
				</g>
				<g>
					<path class="st0" d="M211.5,195.1c0.6,0.3,1,0.9,1,1.6c0,1-0.8,1.8-1.8,1.8c-0.5,0-0.9-0.2-1.2-0.5c0.3,0.6,1,1.1,1.7,1.1
						c1.1,0,2-0.9,2-2C213.2,196.1,212.5,195.3,211.5,195.1z"/>
				</g>
				<g>
					<path class="st0" d="M218.2,178.1c0.5,0.2,0.8,0.7,0.8,1.3c0,0.8-0.7,1.5-1.5,1.5c-0.4,0-0.7-0.2-1-0.4
						c0.3,0.5,0.8,0.9,1.4,0.9c0.9,0,1.6-0.7,1.6-1.6C219.6,178.9,219,178.2,218.2,178.1z"/>
				</g>
				<g>
					<path class="st0" d="M224.2,171.5c0.4,0.2,0.6,0.6,0.6,1c0,0.6-0.5,1.1-1.1,1.1c-0.3,0-0.6-0.1-0.8-0.3
						c0.2,0.4,0.6,0.7,1.1,0.7c0.7,0,1.2-0.6,1.2-1.2C225.3,172.1,224.8,171.6,224.2,171.5z"/>
				</g>
				<g>
					<path class="st0" d="M203.5,154.8c0.6,0.3,1.1,0.9,1.1,1.6c0,1-0.8,1.8-1.8,1.8c-0.5,0-0.9-0.2-1.3-0.5c0.3,0.6,1,1.1,1.8,1.1
						c1.1,0,2-0.9,2-2C205.3,155.8,204.5,154.9,203.5,154.8z"/>
				</g>
				<g>
					<path class="st0" d="M194.6,120.3c0.6,0.3,1,0.8,1,1.5c0,0.9-0.7,1.6-1.6,1.6c-0.4,0-0.8-0.2-1.1-0.5c0.3,0.6,0.9,1,1.6,1
						c1,0,1.8-0.8,1.8-1.8C196.2,121.2,195.5,120.4,194.6,120.3z"/>
				</g>
				<g>
					<path class="st0" d="M232.2,123.2c0.5,0.3,0.9,0.8,0.9,1.5c0,0.9-0.7,1.6-1.6,1.6c-0.4,0-0.8-0.2-1.1-0.5c0.3,0.6,0.9,1,1.6,1
						c1,0,1.8-0.8,1.8-1.8C233.8,124.1,233.1,123.3,232.2,123.2z"/>
				</g>
				<g>
					<path class="st0" d="M218.2,128.2c0.6,0.3,1,0.9,1,1.6c0,1-0.8,1.7-1.7,1.7c-0.5,0-0.9-0.2-1.2-0.5c0.3,0.6,1,1,1.7,1
						c1.1,0,1.9-0.9,1.9-1.9C219.9,129.1,219.2,128.3,218.2,128.2z"/>
				</g>
				<g>
					<path class="st0" d="M195,132.3c0.4,0.2,0.6,0.5,0.6,0.9c0,0.6-0.5,1-1,1c-0.3,0-0.5-0.1-0.7-0.3c0.2,0.4,0.6,0.6,1,0.6
						c0.6,0,1.2-0.5,1.2-1.2C196,132.8,195.6,132.4,195,132.3z"/>
				</g>
				<g>
					<path class="st0" d="M198.7,151.9c0.5,0.2,0.8,0.7,0.8,1.3c0,0.8-0.6,1.4-1.4,1.4c-0.4,0-0.7-0.2-1-0.4
						c0.3,0.5,0.8,0.9,1.4,0.9c0.9,0,1.6-0.7,1.6-1.6C200.1,152.6,199.5,152,198.7,151.9z"/>
				</g>
				<g>
					<path class="st0" d="M209.5,139.8c0.6,0.3,0.9,0.8,0.9,1.5c0,0.9-0.7,1.6-1.6,1.6c-0.4,0-0.8-0.2-1.1-0.5c0.3,0.6,0.9,1,1.6,1
						c1,0,1.8-0.8,1.8-1.8C211.1,140.7,210.4,140,209.5,139.8z"/>
				</g>
				<g>
					<path class="st0" d="M229.1,150.6c0.5,0.2,0.8,0.7,0.8,1.3c0,0.8-0.7,1.5-1.5,1.5c-0.4,0-0.8-0.2-1-0.4
						c0.3,0.5,0.8,0.9,1.4,0.9c0.9,0,1.6-0.7,1.6-1.6C230.5,151.4,229.9,150.7,229.1,150.6z"/>
				</g>
				<g>
					<path class="st0" d="M204.5,169.5c0.5,0.2,0.8,0.7,0.8,1.3c0,0.8-0.6,1.5-1.5,1.5c-0.4,0-0.7-0.2-1-0.4
						c0.3,0.5,0.8,0.9,1.4,0.9c0.9,0,1.6-0.7,1.6-1.6C205.9,170.2,205.3,169.6,204.5,169.5z"/>
				</g>
				<path class="st47" d="M202.8,202.9c-6.1-35.3-16.9-32.1-12.8-95.7h7.5C192.7,166.2,201.5,175.8,202.8,202.9z"/>
				<path class="st48" d="M187.8,105.4c-3.4,31.6-0.1,48.5,3.1,64.9c2.3,11.9,7.6,21.3,8.4,33.8c0.1,1.4,1.4,2.2,2.7,1.9
					c3-0.9,7.5-1.2,10.2-1.3c2.7,0.1,7.2,0.4,10.2,1.3c1.3,0.4,2.6-0.5,2.7-1.9c0.8-12.5,6.1-21.9,8.4-33.8
					c3.2-16.4,6.5-33.4,3.1-64.9H187.8z"/>
				<path class="st49" d="M238,105.4h-1.4c3.4,31.6,0.1,48.5-3.1,64.9c-2.3,11.9-7.6,21.3-8.4,33.8c-0.1,1.4-1.4,2.2-2.7,1.9
					c-3-0.9-7.5-1.2-10.2-1.3c-2.7,0.1-7.2,0.4-10.2,1.3c-1.3,0.4-2.6-0.5-2.7-1.9c-0.8-12.5-6.1-21.9-8.4-33.8
					c-3.2-16.4-6.5-33.4-3.1-64.9h-1.4c-6.1,56.5,9.2,65.9,7.4,111.3c0,0.8,0.6,1.4,1.4,1.4h34.1c0.8,0,1.4-0.7,1.4-1.4
					C228.8,171.3,244.1,162,238,105.4z"/>
				<path class="st27" d="M222,210.5c-0.3,0.7-1.6,0.7-3.6,0.7c-2,0-4.7-0.1-7.6,0.1c-2.9,0.2-5.5,0.6-7.4,1
					c-1.8,0.4-2.9,0.9-3.5,0.5c-0.3-0.2-0.3-0.7,0-1.4c0.3-0.7,1-1.5,2-2.3c2-1.5,5.1-2.6,8.5-2.8c3.4-0.2,6.6,0.5,8.7,1.5
					C221.3,208.6,222.3,209.8,222,210.5z"/>
			</g>
			<path class="st28" d="M239.3,124.5c-0.2-5.8-0.6-12.1-1.4-19.2h-0.3c0.4-0.3,0.7-0.7,0.7-1.2c0.1-0.9-0.6-1.8-1.4-2.2
				c0.6-1.9-1.2-4.2-3.2-4c0.4-1.2-0.1-2.7-1.1-3.5c-1-0.8-2.6-0.9-3.7-0.2c-0.8-1.2-2.1-2.1-3.6-2.1c-1.5-0.1-2.9,0.6-3.8,1.8
				c-0.5-2.9-6.9-3.5-7.7-0.4c-0.4-0.9-1.1-1.5-1.9-1.8V218h17.2h0c0.8,0,1.4-0.7,1.4-1.4c-0.5-14,0.5-24.5,2.1-34.1
				c0-0.3,0.1-0.6,0.1-0.9c1.1-6.4,2.4-12.4,3.5-18.7c1.2-6.8,2.3-14.1,2.8-22.6c0.1-2.4,0.2-4.9,0.3-7.5c0-1.3,0-2.6,0-4
				C239.4,127.3,239.4,125.9,239.3,124.5z"/>
		</g>
	</g>
</g>
</svg>
