<?xml version="1.0" encoding="utf-8"?>
<!-- Generator: Adobe Illustrator 23.0.0, SVG Export Plug-In . SVG Version: 6.00 Build 0)  -->
<svg version="1.1" id="Capa_1" xmlns="http://www.w3.org/2000/svg" xmlns:xlink="http://www.w3.org/1999/xlink" x="0px" y="0px"
	 viewBox="0 0 300 300" style="enable-background:new 0 0 300 300;" xml:space="preserve">
<style type="text/css">
	.st0{fill:#AA200A;}
</style>
<path id="profile_x5F_plus_15_" class="st0" d="M161.7,232.2h23.5v23.5h-23.5v23.5h-23.5v-23.5h-23.5v-23.5h23.5v-23.5h23.5V232.2z
	 M267.4,255.7c-20.4,0-38.3,0-58.7,0v-23.5h32.7c-9.7-44.5-47-70.5-91.4-70.5s-81.7,26-91.4,70.5h32.7v23.5c-20.5,0-38.3,0-58.7,0
	c0-53.5,30.3-93.4,73.3-109.5c-16-12.9-26.3-32.7-26.3-54.9c0-38.9,31.5-70.5,70.5-70.5s70.5,31.5,70.5,70.5
	c0,22.2-10.3,42-26.3,54.9C237.1,162.3,267.4,202.2,267.4,255.7z M197,91.3c0-25.9-21.1-47-47-47s-47,21.1-47,47s21.1,47,47,47
	S197,117.2,197,91.3z"/>
</svg>
