<?xml version="1.0" encoding="utf-8"?>
<!-- Generator: Adobe Illustrator 23.0.0, SVG Export Plug-In . SVG Version: 6.00 Build 0)  -->
<svg version="1.1" id="Capa_1" xmlns="http://www.w3.org/2000/svg" xmlns:xlink="http://www.w3.org/1999/xlink" x="0px" y="0px"
	 viewBox="0 0 300 300" style="enable-background:new 0 0 300 300;" xml:space="preserve">
<style type="text/css">
	.st0{fill-rule:evenodd;clip-rule:evenodd;}
</style>
<path class="st0" d="M126.7,44.3c3,4.9,3.4,4.9,3.4,10.2v50.3h4.5V54.3c0-4.9-0.1-5.4,2.4-10c3,4.9,2.8,4.9,2.8,10.2l1.2,50.3v6.4
	c0,3.7-5.5,6-10.2,7.8c-14.4,5.5,14.8,117.5,8.5,142.7c-5.5,21.9-30.2,21.8-35.7,0c-6.3-25.2,22.9-137.2,8.5-142.7
	c-4.7-1.8-10.2-4-10.2-7.8v-6.4l1.2-50.5c0-4.9-0.1-5.4,2.4-10c3,4.9,2.8,4.9,2.8,10.2v50.3h4.5V54.3c0-4.9,0.5-5.4,3-10
	c3,4.9,3.4,4.9,3.4,10.2v50.3h4.4V54.3C123.7,49.4,124.2,48.9,126.7,44.3z"/>
<path class="st0" d="M185.1,45.3c3.8-0.1,5.7,0.9,6.6,3.1c3,7.7,1.1,23.6,1.2,32.2c0.4,29.4,0.2,72,0.8,99.5
	c-1.4,1.7-2.8,6.2-2.8,11.2c0.1,18.5,18.7,82.7-4.7,85.8c-3.2,0.4-5.8-1-8-2.8c-13.8-11.2-3.4-66.6-3.8-82.6
	c-0.6-4.6-1.1-7.8-4.6-11.9c-2.7-14.3-2.9-28.7-4.1-43.1c-1.1-13.1-1.2-25.2-1-37.7c0.1-16,2-26.6,7.7-42.4c1.1-3,3.1-7.8,7.5-10.1
	C181.3,45.8,183.1,45.3,185.1,45.3z"/>
</svg>
