<?xml version="1.0" encoding="utf-8"?>
<!-- Generator: Adobe Illustrator 23.0.0, SVG Export Plug-In . SVG Version: 6.00 Build 0)  -->
<svg version="1.1" id="Capa_1" xmlns="http://www.w3.org/2000/svg" xmlns:xlink="http://www.w3.org/1999/xlink" x="0px" y="0px"
	 viewBox="0 0 300 300" style="enable-background:new 0 0 300 300;" xml:space="preserve">
<style type="text/css">
	.st0{fill:#DD1500;}
	.st1{fill:#870F03;}
	.st2{fill:#FFFFFF;}
</style>
<g>
	<path class="st0" d="M93.3,218.2c-33.9,0-61.4-27.5-61.4-61.4c0-0.7,0-1.3,0.1-2c0.5-15.6,6.8-30.3,18-41.4
		c11.6-11.6,27-18,43.4-18h157.2v122.8H93.3z"/>
	<path class="st1" d="M250,95.9v121.7H93.3c-33.6,0-60.9-27.2-60.9-60.9c0-0.6,0-1.3,0.1-1.9c0.5-16,7.2-30.5,17.8-41.1
		c11-11,26.2-17.8,43-17.8H250 M251,94.8H250H93.3c-16.5,0-32.1,6.4-43.8,18.1c-11.2,11.2-17.6,26.1-18.1,41.8
		c-0.1,0.7-0.1,1.3-0.1,2c0,34.1,27.8,61.9,61.9,61.9H250h1.1v-1.1V95.9V94.8L251,94.8z"/>
</g>
<path class="st2" d="M187.2,149.3c-11.6,0.1-23.3,0-34.9,0c-0.6,0-1.2,0.1-1.9,0.1v16.1h22.3c-0.7,3.6-2.1,6.7-4.5,9.3
	c-3.8,4.1-8.7,6.1-14.2,6.9c-17.7,2.5-32.2-13.2-28.1-30.5c3.1-12.9,15.4-21.2,28.4-18.7c4,0.8,7.7,2.8,11.5,4.2
	c3.7-3.7,7.7-7.7,11.7-11.8c-12.6-10.1-26.8-13-42.3-7.4c-18.6,6.8-29.6,25.8-26.8,45.5c3.3,23.1,24.8,40,49.7,35.2
	c25.1-4.9,34.4-27.9,31.6-46.9C189.6,149.6,188.8,149.3,187.2,149.3z"/>
</svg>
