<?xml version="1.0" encoding="utf-8"?>
<!-- Generator: Adobe Illustrator 23.0.0, SVG Export Plug-In . SVG Version: 6.00 Build 0)  -->
<svg version="1.1" id="Capa_1" xmlns="http://www.w3.org/2000/svg" xmlns:xlink="http://www.w3.org/1999/xlink" x="0px" y="0px"
	 viewBox="0 0 300 300" style="enable-background:new 0 0 300 300;" xml:space="preserve">
<style type="text/css">
	.st0{fill:#BD220E;}
</style>
<g>
	<path class="st0" d="M112.3,237.9c-8.6,0-15.6,7-15.6,15.6c0,8.6,7,15.6,15.6,15.6c8.6,0,15.6-7,15.6-15.6
		C128,244.9,121,237.9,112.3,237.9z M112.3,262.5c-4.9,0-8.9-4-8.9-8.9s4-8.9,8.9-8.9c4.9,0,8.9,4,8.9,8.9S117.3,262.5,112.3,262.5z
		"/>
	<path class="st0" d="M186.4,237.9c-8.6,0-15.6,7-15.6,15.6c0,8.6,7,15.6,15.6,15.6c8.6,0,15.6-7,15.6-15.6
		C202.1,244.9,195.1,237.9,186.4,237.9z M186.4,262.5c-4.9,0-8.9-4-8.9-8.9s4-8.9,8.9-8.9c4.9,0,8.9,4,8.9,8.9
		S191.4,262.5,186.4,262.5z"/>
	<path class="st0" d="M203.7,202.7c0,0,3.8,0.3,6-6.8c2.3-7,20.8-61.5,20.8-61.5s0.5-6.3-6.5-6c-7,0.3-133.9,0.8-133.9,0.8
		l-9.8-43.2l-28.1-3.8c0,0-6.8,1-2.5,8.3l22.9,4l23.6,109.2l-17.1,21.6c0,0-2.3,6,2.8,8h127.3c0,0,3.8,1,3.8-3.8
		c0-4.8-4.3-5.3-4.3-5.3l-116.5,0.3l13.1-15.3L203.7,202.7z M211.7,138.7l7.4-0.3l-4.6,12.9h-2.8V138.7z M211.3,155.7h2.1l-2.1,3.3
		C211.3,159,211.3,156.8,211.3,155.7z M129.7,197.7l-14.6,0.8v-9.8h14.6V197.7z M129.7,184.3H115v-11h14.6V184.3z M149.1,184.3
		h-14.6v-11h14.6V184.3z M167.8,195.3l-14,0.6v-6.8l14-0.4V195.3z M192.4,138.4h14.5v12.3h-14.5V138.4z M192.3,155.7H207v12.1
		l-14.7,0.5V155.7z M192.6,173H207l-4.1,11.3h-10.6L192.6,173z M192.3,189.1l9.3-0.4l-1.6,4.6l-7.7,0.3V189.1z M173.5,138.4h14.5
		v12.3h-14.5V138.4z M173,156.1h14.5v12.3H173V156.1z M173,173h14.5v11.3H173V173z M173,189.1h14.5v4.8l-14.5,1.2
		C173,195.1,173,189.5,173,189.1z M153.8,138.4h14.5v12.3h-14.5V138.4z M153.8,156.1l14.6-0.2v12.8l-14.6-0.3V156.1z M153.4,173
		h14.5l0.5,11.3h-15V173z M134.4,139h14.5v12.3h-14.5V139z M148.7,156.1l0.4,12.3l-14.6,0.3l-0.3-12.6H148.7z M134.2,188.7h14.5
		l0.4,7.6l-14.9,0.7V188.7z M114.9,138.4h14.5v12.3h-14.5V138.4z M114.4,155.9H130v12.8h-15.6V155.9z M92,138.6l17.9,0.4v12.3H94.8
		L92,138.6z M95.9,156.3l14-0.4v12.5L99,168.7L95.9,156.3z M100,173.3h10.5v10.8h-8.3L100,173.3z M109.9,188.7l0.6,10.5h-4.3
		l-2.7-10.1L109.9,188.7z"/>
</g>
<g>
	<rect x="137.1" y="35.3" class="st0" width="31.5" height="57.3"/>
	<polygon class="st0" points="120,92.5 187.8,92.5 152.8,121.5 	"/>
</g>
</svg>
